<svg id="레이어_2" data-name="레이어 2" xmlns="http://www.w3.org/2000/svg" viewBox="0 0 17 17"><defs><style>.cls-1{fill:#45ac87;}.cls-2{fill:none;stroke:#45ac87;stroke-miterlimit:10;}</style></defs><path class="cls-1" d="M13.24,4.05a1.19,1.19,0,0,1,1.19,1.19v6.62a1.19,1.19,0,0,1-1.19,1.19H3.62a1.19,1.19,0,0,1-1.19-1.19V5.24A1.2,1.2,0,0,1,3.62,4.05h9.62m0-1H3.62A2.2,2.2,0,0,0,1.43,5.24v6.62a2.2,2.2,0,0,0,2.19,2.19h9.62a2.19,2.19,0,0,0,2.19-2.19V5.24a2.2,2.2,0,0,0-2.19-2.19Z"/><path class="cls-2" d="M2.06,6.47S6.61,10.1,8.43,10.1s6.33-3.72,6.33-3.72"/><line class="cls-2" x1="2.32" y1="12.56" x2="5.85" y2="9.02"/><line class="cls-2" x1="14.56" y1="12.68" x2="11.06" y2="9"/></svg>