<svg id="레이어_2" data-name="레이어 2" xmlns="http://www.w3.org/2000/svg" viewBox="0 0 17 17"><defs><style>.cls-1{fill:#45ac87;}</style></defs><path class="cls-1" d="M11.61,1.75A1.29,1.29,0,0,1,12.9,3V14a1.29,1.29,0,0,1-1.29,1.28H5A1.29,1.29,0,0,1,3.7,14V3A1.29,1.29,0,0,1,5,1.75h6.62m0-1H5A2.29,2.29,0,0,0,2.7,3V14A2.29,2.29,0,0,0,5,16.25h6.62A2.29,2.29,0,0,0,13.9,14V3A2.29,2.29,0,0,0,11.61.75Z"/><circle class="cls-1" cx="8.3" cy="13.67" r="0.86"/><path class="cls-1" d="M10.87,3.75a.44.44,0,0,1,.43.43v6.14a.44.44,0,0,1-.43.43H5.73a.44.44,0,0,1-.43-.43V4.18a.44.44,0,0,1,.43-.43h5.14m0-1H5.73A1.43,1.43,0,0,0,4.3,4.18v6.14a1.43,1.43,0,0,0,1.43,1.43h5.14a1.44,1.44,0,0,0,1.43-1.43V4.18a1.44,1.44,0,0,0-1.43-1.43Z"/></svg>