<?xml version="1.0" encoding="utf-8"?>
<!-- Generator: Adobe Illustrator 24.2.0, SVG Export Plug-In . SVG Version: 6.00 Build 0)  -->
<svg version="1.1" id="레이어_1" xmlns="http://www.w3.org/2000/svg" xmlns:xlink="http://www.w3.org/1999/xlink" x="0px"
	 y="0px" viewBox="0 0 35.4 36.7" style="enable-background:new 0 0 35.4 36.7;" xml:space="preserve">
<style type="text/css">
	.st0{fill:#EAD3C7;stroke:#000000;stroke-miterlimit:10;}
	.st1{fill:#B13636;stroke:#000000;stroke-miterlimit:10;}
	.st2{fill:#EFAD45;stroke:#000000;stroke-miterlimit:10;}
	.st3{fill:#F4BACD;}
</style>
<path class="st0" d="M60.4,43.2H21.6l-3-4.1c-0.3-0.5-1-0.6-1.5-0.3c-0.1,0.1-0.2,0.2-0.3,0.3l-2.9,4.1h-36.3
	c-1.6,0-2.9,1.3-2.9,2.9c0,0,0,0,0,0v51.8c0,1.6,1.3,2.9,2.9,2.9h82.6c1.6,0,2.9-1.3,2.9-2.9V46.1C63.3,44.5,62,43.2,60.4,43.2z"/>
<text transform="matrix(1 0 0 1 -16.2563 59.89)" style="font-family:'THEFACESHOP'; font-size:8px;">앞으로 알아낼 것이 많다는 건</text>
<text transform="matrix(1 0 0 1 -3.1063 69.89)" style="font-family:'THEFACESHOP'; font-size:8px;">참 좋은 일 같아요!</text>
<text transform="matrix(1 0 0 1 -17.8263 79.89)" style="font-family:'THEFACESHOP'; font-size:8px;">만약 이것저것 다 알고 있다면</text>
<text transform="matrix(1 0 0 1 -8.1363 89.89)" style="font-family:'THEFACESHOP'; font-size:8px;">무슨 재미가 있겠어요?</text>
<path class="st1" d="M27.4,6.9c-2.7-2.7-6.4-3.4-8.8-2c-0.4,0.3-1,0.3-1.4,0c-2.5-1.5-6.2-0.7-8.8,2c-3,3.1-3.6,7.4-1.3,9.8
	s6.7,1.8,9.8-1.3l0,0c0.6-0.6,1.5-0.6,2,0c0,0,0,0,0,0l0,0c3.1,3,7.4,3.6,9.8,1.3S30.4,9.9,27.4,6.9z"/>
<circle class="st1" cx="6.5" cy="19.9" r="1.5"/>
<circle class="st1" cx="5.6" cy="24.3" r="1.5"/>
<path class="st1" d="M7.1,31.4c0,0.8-0.7,2.7-1.5,2.7S4,32.2,4,31.4C4.2,30.6,5,30,5.8,30.1C6.4,30.2,6.9,30.7,7.1,31.4L7.1,31.4z"
	/>
<path class="st2" d="M7.1,26.8c-0.4,0-0.9,0.1-1.3,0.3c-0.2,0.1-0.4,0.1-0.7,0c-0.4-0.2-0.9-0.3-1.3-0.3c-0.6,0-1,0.4-1,1s0.4,1,1,1
	c0.4,0,0.9-0.1,1.3-0.3c0.2-0.1,0.4-0.1,0.7,0c0.4,0.2,0.8,0.3,1.3,0.3c0.6,0,1-0.4,1-1S7.6,26.8,7.1,26.8L7.1,26.8z"/>
<circle class="st1" cx="29.2" cy="19.9" r="1.5"/>
<circle class="st1" cx="30.1" cy="24.3" r="1.5"/>
<path class="st1" d="M28.6,31.4c0,0.8,0.6,2.7,1.4,2.7s1.6-1.9,1.6-2.8c0.1-0.8-0.4-1.6-1.3-1.7c-0.8-0.1-1.6,0.4-1.7,1.3
	C28.6,31.1,28.6,31.2,28.6,31.4L28.6,31.4z"/>
<path class="st2" d="M28.6,26.8c0.4,0,0.9,0.1,1.3,0.3c0.2,0.1,0.4,0.1,0.7,0c0.4-0.2,0.8-0.3,1.3-0.3c0.6,0,1,0.4,1,1s-0.4,1-1,1
	c-0.4,0-0.9-0.1-1.3-0.3c-0.2-0.1-0.4-0.1-0.7,0c-0.4,0.2-0.8,0.3-1.3,0.3c-0.6,0-1-0.4-1-1S28,26.8,28.6,26.8z"/>
<circle class="st3" cx="13" cy="22.4" r="0.3"/>
<circle class="st3" cx="14.3" cy="23.9" r="0.3"/>
<circle class="st3" cx="15.5" cy="22.4" r="0.3"/>
<circle class="st3" cx="17.4" cy="22.4" r="0.3"/>
<circle class="st3" cx="16.6" cy="24.7" r="0.3"/>
<circle class="st3" cx="20.3" cy="24.7" r="0.3"/>
<circle class="st3" cx="18.7" cy="23.9" r="0.3"/>
<circle class="st3" cx="21.8" cy="23.9" r="0.3"/>
<circle class="st3" cx="20" cy="22.4" r="0.3"/>
<circle class="st3" cx="22.8" cy="22.4" r="0.3"/>
</svg>
