<?xml version="1.0" encoding="utf-8"?>
<!-- Generator: Adobe Illustrator 24.2.0, SVG Export Plug-In . SVG Version: 6.00 Build 0)  -->
<svg version="1.1" id="레이어_1" xmlns="http://www.w3.org/2000/svg" xmlns:xlink="http://www.w3.org/1999/xlink" x="0px"
	 y="0px" viewBox="0 0 94.5 66.7" style="enable-background:new 0 0 94.5 66.7;" xml:space="preserve">
<style type="text/css">
	.st0{fill:#EAD3C7;stroke:#000000;stroke-miterlimit:10;}
	.st1{enable-background:new    ;}
	.st2{fill:#B13636;stroke:#000000;stroke-miterlimit:10;}
	.st3{fill:#EFAD45;stroke:#000000;stroke-miterlimit:10;}
	.st4{fill:#F4BACD;}
</style>
<path class="st0" d="M88.7,6.6H49.9l-3-4.1c-0.3-0.5-1-0.6-1.5-0.3c-0.1,0.1-0.2,0.2-0.3,0.3l-2.9,4.1H6.1c-1.6,0-2.9,1.3-2.9,2.9
	l0,0v51.8c0,1.6,1.3,2.9,2.9,2.9h82.6c1.6,0,2.9-1.3,2.9-2.9V9.5C91.6,7.9,90.3,6.6,88.7,6.6z"/>
<g class="st1">
	<path d="M12.4,20.3c0-0.1,0-0.2,0-0.3c0-0.1,0.1-0.2,0.1-0.3c0-0.1,0.1-0.2,0.1-0.3s0.1-0.2,0.1-0.3c0.1-0.1,0.1-0.2,0.2-0.3
		s0.1-0.2,0.1-0.2c0-0.1,0.1-0.1,0.2-0.1c0.1,0,0.1,0,0.2,0.1c0,0,0,0.1,0,0.1c0,0.1,0,0.1,0,0.2c0,0,0,0.1-0.1,0.1
		c0.1,0,0.1,0.1,0.2,0.2c0.1,0.1,0.1,0.2,0.1,0.4c0,0.1,0,0.2-0.1,0.3c0,0.1-0.1,0.2-0.2,0.4c-0.1,0.1-0.2,0.2-0.3,0.3
		c-0.1,0-0.2,0.1-0.3,0.1c-0.1,0-0.1,0-0.2-0.1C12.5,20.5,12.5,20.4,12.4,20.3z M13.3,19.3c0,0-0.1,0.1-0.1,0.1
		c0,0.1-0.1,0.2-0.1,0.3c0,0.1-0.1,0.2-0.1,0.3c0,0.1-0.1,0.2-0.1,0.2c0.1,0,0.2-0.1,0.3-0.2s0.2-0.3,0.2-0.5
		C13.4,19.5,13.4,19.4,13.3,19.3C13.4,19.3,13.4,19.3,13.3,19.3z M13.7,24.6c0,0,0-0.1,0-0.1c0,0,0-0.1,0.1-0.1c0,0,0.1-0.1,0.1-0.1
		c0,0,0.1,0,0.1-0.1c0,0,0.1-0.1,0.2-0.1c0.1-0.1,0.1-0.1,0.2-0.2c0.1-0.1,0.1-0.1,0.2-0.2c0.1-0.1,0.1-0.1,0.1-0.1
		c0.1-0.1,0.2-0.2,0.3-0.4s0.2-0.3,0.3-0.4c0.1-0.1,0.1-0.2,0.2-0.3s0.1-0.1,0.1-0.2c0,0,0,0,0.1,0c0,0,0.1,0,0.1,0
		c0.1,0,0.2,0,0.2,0s0,0.1,0,0.2c0,0,0,0.1,0,0.1c0,0,0,0.1-0.1,0.1c-0.2,0.3-0.3,0.6-0.6,0.8c-0.2,0.3-0.5,0.5-0.7,0.7
		c0.1,0,0.2,0,0.3,0c0.1,0,0.3,0,0.5-0.1c0.2,0,0.3,0,0.5-0.1c0.2,0,0.3,0,0.5,0c0,0,0.1,0,0.1,0c0,0,0,0,0,0.1c0,0,0,0.1,0,0.1
		s0,0.1-0.1,0.1c-0.1,0-0.1,0.1-0.2,0.1s-0.1,0-0.2,0c-0.1,0-0.2,0-0.3,0c-0.1,0-0.3,0-0.4,0.1s-0.3,0-0.4,0.1c-0.1,0-0.3,0-0.3,0.1
		c-0.1,0-0.2,0-0.3,0.1c-0.1,0-0.2,0.1-0.3,0.1C13.7,24.8,13.7,24.7,13.7,24.6z M13.8,21.8c0-0.1,0-0.1,0.1-0.2
		c0.1-0.1,0.2-0.1,0.3-0.1c0.1,0,0.2-0.1,0.3-0.1c0.1,0,0.2,0,0.2-0.1c0.1,0,0.2,0,0.3,0c0.1,0,0.2,0,0.4,0c0.1,0,0.2,0,0.4,0
		c0.1,0,0.2,0,0.3,0c0,0,0.1,0,0.2,0c0.1,0,0.1,0.1,0.1,0.2c0,0.1,0,0.1-0.1,0.1s-0.1,0-0.1,0c-0.2,0-0.4,0-0.5,0
		c-0.1,0-0.3,0-0.4,0c-0.1,0-0.3,0-0.4,0c-0.1,0-0.3,0.1-0.5,0.1c-0.1,0-0.2,0.1-0.2,0.1c-0.1,0-0.2,0.1-0.2,0.1c0,0-0.1,0-0.1,0
		C13.8,21.9,13.8,21.8,13.8,21.8z M14.2,23.5c0-0.1,0-0.1,0-0.3c0,0,0-0.1,0-0.2c0-0.1,0-0.2,0.1-0.3c0-0.1,0.1-0.2,0.1-0.3
		c0-0.1,0.1-0.2,0.1-0.2c0.1-0.1,0.1-0.2,0.2-0.2c0,0,0.1,0,0.1,0.1c0,0,0,0.1,0,0.1c0,0.1,0,0.2,0,0.2c0,0.1-0.1,0.2-0.1,0.2
		c0,0,0,0.1,0,0.1c0,0.1,0,0.1-0.1,0.2s0,0.1-0.1,0.2c0,0.1,0,0.1,0,0.1c0,0,0,0.1-0.1,0.1c0,0-0.1,0.1-0.1,0.1
		C14.3,23.5,14.3,23.5,14.2,23.5C14.2,23.5,14.2,23.5,14.2,23.5z M15.3,20.6c0-0.1,0-0.2,0-0.4c0-0.1,0-0.3,0-0.4s0-0.3,0.1-0.4
		c0-0.1,0-0.3,0.1-0.4c0-0.2,0.1-0.4,0.1-0.6c0-0.2,0.1-0.4,0.1-0.6c0,0,0-0.1,0-0.1c0,0,0,0,0,0c0,0,0,0,0,0c0,0,0.1,0,0.1,0
		c0,0,0.1,0,0.1,0c0,0,0.1,0,0.1,0.1c0,0,0,0.1,0,0.1c0,0.2-0.1,0.5-0.1,0.7c0,0.2-0.1,0.4-0.1,0.7c0.1,0,0.1,0,0.2,0
		c0.1,0,0.2,0,0.3,0c0.1,0,0.2,0,0.3-0.1c0.1,0,0.2,0,0.4,0c0.1,0,0.2,0,0.3,0c0.1,0,0.1,0.1,0.1,0.1c0,0.1,0,0.1-0.1,0.1
		c-0.1,0-0.1,0-0.2,0c-0.2,0-0.3,0-0.4,0.1c-0.1,0-0.3,0.1-0.4,0.1c0,0-0.1,0-0.2,0c-0.1,0-0.1,0-0.2,0.1c-0.1,0-0.1,0.1-0.2,0.1
		c0,0-0.1,0.1-0.1,0.1c0,0.3-0.1,0.6-0.1,0.8c0,0.1-0.1,0.1-0.2,0.1c-0.1,0-0.2,0-0.2-0.1C15.3,20.7,15.3,20.7,15.3,20.6z"/>
	<path d="M17.6,22.2c0,0,0-0.1,0-0.1c0,0,0-0.1,0.1-0.1c0,0,0,0,0.1,0c0.1,0,0.1,0,0.1,0c0.2,0,0.3,0,0.5-0.1c0.1,0,0.3-0.1,0.5-0.1
		c0.2,0,0.5-0.1,0.7-0.1c0.1,0,0.3,0,0.4-0.1c0.1,0,0.3,0,0.4,0c0.1,0,0.1,0,0.2,0s0.1,0,0.2,0c0,0,0,0,0.1,0c0.1,0,0.1,0,0.1,0
		c0,0,0.1,0,0.1,0.1c0,0,0,0.1,0,0.2c0,0,0,0.1-0.1,0.1c0,0-0.1,0-0.1,0c0,0,0,0-0.1,0c0,0-0.1,0-0.1,0c0,0-0.1,0-0.1,0
		c0,0-0.1,0-0.1,0c-0.1,0-0.1,0-0.2,0s-0.1,0-0.2,0c-0.2,0-0.4,0.1-0.6,0.1s-0.4,0-0.6,0.1c-0.2,0-0.4,0.1-0.5,0.1
		c-0.2,0-0.4,0.1-0.5,0.1c-0.1,0-0.1,0-0.2-0.1S17.6,22.2,17.6,22.2z M18.4,20.3c0-0.1,0-0.2,0.1-0.4c0-0.1,0.1-0.2,0.2-0.3
		s0.1-0.2,0.2-0.3c0.1-0.1,0.1-0.1,0.2-0.2c0,0,0.1,0,0.1,0s0.1,0,0.1,0c0,0,0,0,0.1,0c0,0,0.1,0,0.1,0c0.1,0,0.2,0.1,0.3,0.2
		c0.1,0.1,0.1,0.2,0.1,0.3c0,0.1,0,0.2-0.1,0.4c0,0.1-0.1,0.2-0.2,0.3c-0.1,0.1-0.2,0.2-0.3,0.3c-0.1,0.1-0.3,0.1-0.4,0.1
		c-0.1,0-0.2,0-0.3-0.1S18.4,20.4,18.4,20.3z M19.3,19.4c0,0-0.1,0.1-0.2,0.1c-0.1,0.1-0.1,0.1-0.2,0.2c0,0.1-0.1,0.2-0.1,0.3
		c0,0.1,0,0.2,0,0.2c0.1,0,0.1,0,0.2-0.1c0.1,0,0.1-0.1,0.2-0.2c0.1-0.1,0.1-0.1,0.1-0.2s0.1-0.2,0.1-0.2
		C19.4,19.5,19.4,19.5,19.3,19.4z"/>
	<path d="M21.9,20.9c0,0,0-0.1,0.1-0.1s0.1-0.1,0.1-0.1c0.1-0.1,0.1-0.2,0.2-0.2c0.1-0.1,0.1-0.1,0.2-0.2c0.1-0.1,0.1-0.1,0.2-0.2
		c0.1-0.1,0.1-0.1,0.2-0.2c0,0,0.1-0.1,0.1-0.1c0,0,0-0.1,0.1-0.1c-0.1,0-0.1,0-0.1,0c0,0-0.1,0-0.2,0c-0.1,0-0.1,0-0.2-0.1
		c-0.1,0-0.1-0.1-0.1-0.1s-0.1-0.1-0.1-0.1c0-0.1,0-0.1,0-0.2c0-0.1,0.1-0.2,0.2-0.3c0.1-0.1,0.2-0.2,0.2-0.4c0,0,0-0.1,0.1-0.1
		s0-0.1,0.1-0.1c0,0,0-0.1,0-0.1c0,0,0,0-0.1,0c0,0-0.1,0-0.1,0c-0.1,0-0.1,0-0.2,0s-0.1,0-0.2,0c-0.1,0-0.1,0-0.2,0
		c-0.1,0-0.1-0.1-0.1-0.2c0-0.1,0-0.1,0.1-0.1s0.1-0.1,0.2-0.1c0,0,0.1,0,0.2,0c0.1,0,0.1,0,0.2,0s0.1,0,0.2,0c0.1,0,0.1,0,0.1,0
		c0.2,0,0.2,0.1,0.3,0.2c0,0.1,0,0.2,0,0.3c0,0.1-0.1,0.2-0.1,0.2c-0.1,0.1-0.1,0.1-0.1,0.2c-0.1,0.1-0.1,0.2-0.2,0.2
		c0,0.1-0.1,0.1-0.1,0.2c0,0,0,0,0,0.1c0,0,0,0.1,0.1,0.1c0.1,0,0.1,0,0.2,0c0.1,0,0.1,0,0.2,0.1c0.1,0,0.1,0.1,0.2,0.1
		c0.1,0,0.1,0.1,0.1,0.2c0,0,0,0.1-0.1,0.1c0,0-0.1,0.1-0.1,0.1c-0.1,0.1-0.2,0.3-0.3,0.4c-0.1,0.1-0.2,0.2-0.3,0.4
		c-0.1,0.1-0.1,0.1-0.1,0.2c0,0,0,0.1-0.1,0.1c0,0,0,0,0,0.1c0,0,0,0,0,0c0.1,0,0.2,0,0.3,0c0,0,0.1,0,0.1,0c0.1,0,0.1,0,0.2,0
		c0.1,0,0.1,0,0.2-0.1s0.1,0,0.1,0c0.1,0,0.2-0.1,0.2-0.1c0.1,0,0.1,0,0.2,0c0,0,0.1,0,0.1,0c0,0,0,0.1,0,0.1c0,0,0,0.1,0,0.1
		c0,0,0,0.1-0.1,0.1c0,0-0.1,0.1-0.3,0.1c-0.1,0.1-0.3,0.1-0.4,0.1c-0.2,0-0.3,0.1-0.5,0.1c-0.2,0-0.3,0-0.4,0
		c-0.2,0-0.3-0.1-0.3-0.2C21.9,21.2,21.9,21.1,21.9,20.9z M21.9,23.3c0-0.1,0-0.1,0.1-0.1c0,0,0.1-0.1,0.1-0.1
		c0.1-0.1,0.2-0.2,0.3-0.3c0.1-0.1,0.1-0.2,0.2-0.3c0.1-0.4,0.3-0.7,0.4-0.9c0,0,0.1-0.1,0.1-0.1c0,0,0.1,0,0.1,0
		c0.1,0,0.1,0,0.1,0.1c0,0,0,0.1,0,0.1c0,0.1,0,0.2-0.1,0.2c-0.1,0.1-0.1,0.2-0.1,0.2c0,0.1-0.1,0.1-0.1,0.2c0,0.1,0,0.1-0.1,0.1
		c0,0,0,0.1-0.1,0.1c0,0,0,0.1-0.1,0.1c0,0,0,0.1-0.1,0.1c0,0-0.1,0.1-0.1,0.1c0.2,0,0.4,0,0.6,0c0.2,0,0.4,0,0.6,0
		c0.2,0,0.3,0,0.4,0s0.2,0,0.4,0.1c0,0,0.1,0.1,0.1,0.1c0,0.1,0,0.1-0.1,0.1c0,0-0.1,0-0.1,0c-0.1,0-0.1,0-0.2,0c-0.1,0-0.1,0-0.2,0
		c-0.1,0-0.1,0-0.1,0c0,0,0,0-0.1,0c0,0-0.1,0-0.2,0c-0.1,0-0.1,0-0.2,0c-0.1,0-0.1,0-0.1,0c-0.2,0-0.5,0-0.7,0.1s-0.5,0.1-0.7,0.1
		c-0.1,0-0.1,0-0.2-0.1C21.9,23.4,21.9,23.3,21.9,23.3z"/>
	<path d="M27.1,20.1c0-0.1,0-0.2,0-0.3s0.1-0.2,0.1-0.3c0-0.1,0.1-0.2,0.1-0.3s0.1-0.2,0.1-0.3c0.1-0.1,0.1-0.2,0.2-0.3
		c0.1-0.1,0.1-0.2,0.1-0.2c0-0.1,0.1-0.1,0.2-0.1c0.1,0,0.1,0,0.2,0.1c0,0,0,0.1,0,0.1c0,0.1,0,0.1,0,0.2c0,0,0,0.1-0.1,0.1
		c0.1,0,0.1,0.1,0.2,0.2c0.1,0.1,0.1,0.2,0.1,0.4c0,0.1,0,0.2-0.1,0.3c0,0.1-0.1,0.2-0.2,0.4c-0.1,0.1-0.2,0.2-0.3,0.3
		c-0.1,0-0.2,0.1-0.3,0.1c-0.1,0-0.1,0-0.2-0.1C27.2,20.3,27.1,20.2,27.1,20.1z M28,19.1c0,0-0.1,0.1-0.1,0.1c0,0.1-0.1,0.2-0.1,0.3
		c0,0.1-0.1,0.2-0.1,0.3c0,0.1-0.1,0.2-0.1,0.2c0.1,0,0.2-0.1,0.3-0.2s0.2-0.3,0.2-0.5c0,0,0-0.1,0-0.1C28.1,19.2,28,19.1,28,19.1z
		 M29.1,24.6c0-0.1,0-0.1,0.1-0.2c0-0.1,0.1-0.1,0.1-0.2c0.1-0.1,0.1-0.1,0.2-0.2s0.1-0.1,0.2-0.1c0,0,0.1-0.1,0.1-0.1
		c0.1-0.1,0.1-0.1,0.2-0.2c0.1-0.1,0.1-0.1,0.2-0.2c0,0,0.1-0.1,0.1-0.1c0,0,0.1-0.1,0.1-0.1s0-0.1,0.1-0.1c-0.1,0-0.2,0-0.3,0
		c-0.1,0-0.3,0-0.4,0c-0.1,0-0.2,0-0.3-0.1s-0.1-0.2-0.1-0.3c0-0.1,0.1-0.2,0.1-0.4c0.1-0.1,0.1-0.2,0.2-0.3
		c0.1-0.1,0.2-0.3,0.3-0.4s0.2-0.2,0.3-0.4c0,0,0-0.1,0-0.1c0,0,0,0,0-0.1c-0.3,0-0.5,0-0.7,0.1c-0.2,0.1-0.4,0.2-0.6,0.4
		c-0.1,0.1-0.1,0.1-0.2,0c-0.1-0.1-0.1-0.1-0.1-0.2c0-0.1,0-0.1,0.1-0.2c0.1-0.1,0.1-0.1,0.2-0.2c0.4-0.3,0.8-0.4,1.2-0.4
		c0,0,0.1,0,0.2,0c0.1,0,0.1,0,0.2,0s0.1,0.1,0.1,0.1c0,0,0.1,0.1,0.1,0.2c0,0.1,0,0.2-0.1,0.3c-0.1,0.1-0.1,0.2-0.2,0.4
		c-0.1,0.1-0.2,0.2-0.3,0.4c-0.1,0.1-0.2,0.2-0.2,0.3c0,0-0.1,0.1-0.1,0.1c0,0,0,0.1-0.1,0.1c0,0,0,0.1,0,0.1c0,0,0,0,0.1,0
		c0.1,0,0.3,0,0.4,0c0.1,0,0.3,0,0.4,0c0.1,0,0.2,0,0.2,0.1c0,0.1,0,0.1,0,0.2c0,0,0,0.1-0.1,0.2c0,0.1-0.1,0.1-0.2,0.2
		c-0.1,0.1-0.1,0.1-0.2,0.2s-0.1,0.1-0.2,0.2c-0.1,0.1-0.2,0.2-0.3,0.3c-0.1,0.1-0.2,0.2-0.3,0.4c0.1,0,0.2,0,0.2,0
		c0.3-0.1,0.6-0.1,0.9-0.2c0,0,0.1,0,0.1,0s0.1,0,0.1,0.1c0,0,0,0.1,0,0.1c0,0,0,0.1,0,0.1c0,0-0.1,0.1-0.3,0.1
		c-0.1,0-0.3,0.1-0.4,0.1c-0.2,0-0.3,0.1-0.5,0.1c-0.1,0-0.3,0-0.3,0c-0.1,0-0.2,0-0.3-0.1S29,24.8,29.1,24.6z M30,20
		c0-0.1,0-0.2,0-0.4c0-0.2,0-0.3,0-0.5c0-0.2,0-0.3,0-0.5c0-0.2,0-0.3,0-0.4c0-0.1,0-0.2,0.1-0.3s0-0.2,0.1-0.3c0,0,0-0.1,0-0.1
		c0,0,0,0,0,0c0,0,0,0,0,0c0,0,0.1,0,0.1,0s0.1,0,0.1,0s0.1,0,0.1,0.1c0,0,0,0.1,0,0.1c0,0.2-0.1,0.4-0.1,0.5c0,0.1,0,0.3,0,0.5
		c0,0,0.1,0,0.1,0c0.1,0,0.1,0,0.2,0c0.1,0,0.1,0,0.2,0s0.1,0,0.1,0c0.1,0,0.2,0,0.3,0c0.1,0,0.2,0,0.4,0c0.1,0,0.2,0,0.3,0
		c0.1,0,0.1,0.1,0.1,0.1c0,0.1,0,0.1-0.1,0.1c-0.1,0-0.1,0-0.2,0c-0.2,0-0.3,0-0.4,0.1c-0.1,0-0.3,0.1-0.4,0.1c-0.1,0-0.1,0-0.2,0.1
		c-0.1,0-0.1,0-0.2,0.1c-0.1,0-0.1,0.1-0.2,0.1s-0.1,0.1-0.1,0.1c0,0.1,0,0.3,0,0.4s0,0.2,0,0.4c0,0.1-0.1,0.1-0.2,0.1
		c-0.1,0-0.2,0-0.2-0.1S30,20.1,30,20z"/>
	<path d="M32.3,21.4c0-0.1,0-0.2,0-0.3c0-0.1,0.1-0.2,0.1-0.3s0.1-0.2,0.1-0.3c0-0.1,0.1-0.2,0.1-0.2c0.1-0.1,0.1-0.2,0.2-0.3
		c0.1-0.1,0.1-0.2,0.2-0.2c0-0.1,0.1-0.1,0.2-0.1c0.1,0,0.2,0,0.2,0.1c0,0,0.1,0.1,0,0.2c0,0.1,0,0.1-0.1,0.2c0,0,0.1,0,0.1,0.1
		c0,0,0.1,0.1,0.1,0.1c0,0.1,0.1,0.1,0.1,0.2c0,0.1,0,0.2,0,0.3c0,0.2-0.1,0.3-0.1,0.4c-0.1,0.1-0.2,0.2-0.3,0.3
		c-0.1,0.1-0.2,0.1-0.3,0.2c-0.1,0.1-0.2,0.1-0.4,0.1c-0.1,0-0.1,0-0.2-0.1C32.4,21.6,32.3,21.5,32.3,21.4z M33.3,20.4
		c0,0-0.1,0.1-0.1,0.1c-0.1,0.1-0.1,0.2-0.2,0.3s-0.1,0.2-0.1,0.3s-0.1,0.2-0.1,0.2c0,0,0.1,0,0.1,0c0.1,0,0.1,0,0.2-0.1
		c0.1,0,0.1-0.1,0.2-0.2c0.1-0.1,0.1-0.2,0.1-0.3c0-0.1,0-0.2,0-0.2C33.4,20.4,33.3,20.4,33.3,20.4z M35,21.6c0-0.1-0.1-0.2-0.1-0.2
		c0-0.1,0-0.2,0.1-0.2c0,0,0.1-0.1,0.1-0.1c0-0.1,0-0.2,0.1-0.3c0-0.2,0.1-0.3,0.1-0.5c0-0.2,0.1-0.3,0.1-0.5c0-0.2,0-0.3,0.1-0.3
		c0-0.2,0.1-0.4,0.1-0.5s0.1-0.3,0.1-0.5c0,0,0-0.1,0.1-0.1s0.1,0,0.1,0c0.1,0,0.1,0,0.2,0.1c0,0.1,0.1,0.1,0.1,0.2c0,0,0,0.1,0,0.1
		s0,0.1,0,0.1c-0.1,0.3-0.2,0.6-0.2,0.9s-0.1,0.6-0.2,0.9c0,0.1,0,0.1,0,0.2s0,0.1,0,0.2c0.1,0,0.2-0.1,0.3-0.1c0.1,0,0.2,0,0.3-0.1
		c0.1,0,0.1,0,0.2,0s0.1,0,0.2,0c0.1,0,0.1,0,0.2,0c0.1,0,0.1,0,0.1,0c0,0,0,0,0,0c0,0,0,0.1,0,0.1c0,0,0,0.1,0,0.1
		c0,0,0,0.1-0.1,0.1c0,0-0.1,0-0.2,0c-0.1,0-0.1,0-0.2,0.1c0,0-0.1,0-0.2,0.1c-0.1,0-0.2,0-0.2,0.1c-0.1,0-0.1,0-0.2,0.1
		s-0.1,0-0.2,0.1c-0.1,0-0.1,0.1-0.2,0.1c0,0.1-0.1,0.1-0.1,0.2v0.9c0,0,0,0.1-0.1,0.1c0,0-0.1,0-0.1,0c-0.1,0-0.1,0-0.2,0
		c0,0-0.1-0.1-0.1-0.1s0-0.1,0-0.1c0-0.1,0-0.1,0-0.2V21.6z"/>
	<path d="M37.4,19.6c0,0,0-0.1,0-0.1c0-0.1,0-0.1,0-0.2c0-0.1,0-0.1,0-0.2c0-0.1,0-0.1,0-0.2c0-0.1,0-0.1,0-0.2c0-0.1,0-0.1,0-0.2
		c0-0.1,0-0.1,0-0.2s0.1-0.1,0.2-0.1c0.1,0,0.1,0,0.2,0c0.1,0,0.1,0.1,0.1,0.2c0,0.1,0,0.1,0,0.2s0,0.1,0,0.2s0,0.1,0,0.2
		c0,0.1,0,0.2,0,0.3c0,0.1,0,0.2,0,0.3c0,0.1,0,0.2,0,0.2c0,0.1,0,0.2,0.1,0.2c0,0,0,0.1,0.1,0.1c0,0,0.1,0,0.1,0
		c0.1,0,0.1,0,0.2-0.1s0.2-0.1,0.4-0.2c0,0,0.1-0.1,0.1-0.1s0.1-0.1,0.1-0.1c0.1,0,0.1,0,0.1,0c0,0,0.1,0.1,0.1,0.1c0,0,0,0.1,0,0.1
		c0,0,0,0.1-0.1,0.2c0,0.1-0.1,0.1-0.2,0.2c-0.1,0-0.1,0.1-0.2,0.1c-0.1,0-0.1,0.1-0.1,0.1s-0.1,0.1-0.1,0.1c0,0-0.1,0.1-0.2,0.1
		c-0.1,0-0.1,0.1-0.2,0.1c-0.1,0-0.1,0-0.2,0c-0.1,0-0.1,0-0.2-0.1c-0.1-0.1-0.1-0.1-0.2-0.2c0-0.1-0.1-0.2-0.1-0.2
		c0-0.1,0-0.2-0.1-0.3C37.4,19.8,37.4,19.7,37.4,19.6z M39.7,24.4c0-0.1,0-0.1,0.1-0.2c0-0.1,0.1-0.1,0.2-0.2
		c0.1-0.1,0.1-0.1,0.2-0.2c0.1-0.1,0.1-0.1,0.2-0.1c0.1,0,0.1-0.1,0.2-0.1s0.2-0.1,0.2-0.2c0.1-0.1,0.1-0.1,0.2-0.2
		c0.1,0,0.1-0.1,0.1-0.1c0,0,0.1-0.1,0.1-0.1c0,0,0-0.1,0.1-0.1c0,0-0.1,0-0.2,0c-0.1,0-0.2,0-0.2,0c-0.1,0-0.2,0-0.3,0
		s-0.2,0-0.2,0c-0.1,0-0.2,0-0.3-0.1c-0.1-0.1-0.1-0.2-0.1-0.3c0-0.1,0.1-0.2,0.1-0.4c0.1-0.1,0.2-0.2,0.3-0.3
		c0.1-0.1,0.2-0.3,0.4-0.4c0.1-0.1,0.2-0.2,0.3-0.3c0.1-0.1,0.1-0.1,0.1-0.2c-0.3,0-0.5,0.1-0.8,0.1s-0.5,0.2-0.7,0.4
		c0,0-0.1,0-0.1,0c0,0-0.1,0-0.1,0c0,0-0.1,0-0.1-0.1c0,0,0-0.1,0-0.1c0-0.1,0-0.1,0.1-0.2c0.1-0.1,0.2-0.1,0.2-0.2
		c0.4-0.3,0.9-0.4,1.4-0.4c0,0,0.1,0,0.2,0c0.1,0,0.1,0,0.2,0c0.1,0,0.1,0.1,0.2,0.1s0.1,0.1,0.1,0.2c0,0.1,0,0.2-0.1,0.3
		c-0.1,0.1-0.2,0.2-0.3,0.3S41.1,21.9,41,22c-0.1,0.1-0.2,0.2-0.3,0.3c0,0-0.1,0.1-0.1,0.2c0,0.1-0.1,0.1-0.1,0.2c0,0,0,0.1,0,0.1
		c0,0,0.1,0,0.1,0c0.2,0,0.3,0,0.5,0c0.1,0,0.3,0,0.4,0c0.1,0,0.2,0,0.2,0.1c0,0.1,0.1,0.1,0,0.2c0,0,0,0.1-0.1,0.2
		s-0.1,0.1-0.2,0.2c-0.1,0.1-0.1,0.1-0.2,0.2c-0.1,0.1-0.2,0.1-0.2,0.2c-0.1,0.1-0.2,0.2-0.4,0.3c-0.2,0.1-0.3,0.2-0.4,0.4
		c0,0,0.1,0,0.2,0c0.1,0,0.1,0,0.2,0c0.2,0,0.4-0.1,0.6-0.1c0.2,0,0.4-0.1,0.5-0.1c0,0,0.1,0,0.1,0c0,0,0.1,0,0.1,0.1
		c0,0,0,0.1,0,0.1c0,0,0,0.1,0,0.1c0,0-0.1,0.1-0.3,0.1s-0.3,0.1-0.5,0.1s-0.4,0.1-0.5,0.1c-0.2,0-0.3,0-0.4,0c-0.1,0-0.2,0-0.3-0.1
		S39.7,24.6,39.7,24.4z M39.6,18.7c0-0.1,0-0.3,0-0.5s0-0.4,0.1-0.7c0,0,0-0.1,0.1-0.1s0.1,0,0.2,0c0.1,0,0.1,0.1,0.1,0.1
		c0,0,0,0.1,0,0.1c0,0.1,0,0.2-0.1,0.3c0,0.1,0,0.2,0,0.3c0,0.1,0,0.2,0,0.3s0,0.2,0,0.3c0,0,0,0.1,0,0.1c0,0.1,0,0.1,0,0.2
		c0,0.1,0,0.1,0,0.2c0,0.1,0,0.1,0,0.1c0.1-0.1,0.3-0.2,0.4-0.3c0.1-0.1,0.3-0.2,0.5-0.3c0,0,0.1,0,0.1,0c0,0,0.1,0,0.1,0
		s0.1,0,0.1,0c0,0,0,0,0,0.1c0,0.1,0,0.1,0,0.1c0,0-0.1,0-0.1,0.1c-0.1,0.1-0.2,0.1-0.3,0.2s-0.2,0.1-0.3,0.2
		c-0.1,0.1-0.2,0.1-0.2,0.2c-0.1,0.1-0.1,0.1-0.1,0.1c0,0-0.1,0.1-0.1,0.1c0,0,0,0.1,0,0.1c0,0,0,0,0,0.1s0,0.1,0,0.1
		c0,0,0,0.1-0.1,0.1c0,0-0.1,0-0.1,0c-0.1,0-0.1,0-0.2-0.1c0,0-0.1-0.1-0.1-0.1c0-0.1,0-0.1-0.1-0.2c0-0.1,0-0.1,0-0.2
		c0-0.1,0-0.2-0.1-0.3s0-0.2,0-0.3c0-0.1,0-0.2,0-0.3C39.6,19,39.6,18.9,39.6,18.7z M41.5,19.6c0-0.1,0-0.2,0-0.3
		c0-0.1,0-0.2,0.1-0.3s0-0.2,0.1-0.3c0-0.1,0.1-0.2,0.1-0.3c0-0.1,0-0.2,0.1-0.2s0-0.2,0.1-0.2c0-0.1,0.1-0.1,0.2-0.1
		c0,0,0.1,0,0.1,0c0,0,0.1,0,0.1,0.1c0,0,0.1,0,0.1,0.1c0,0,0,0.1,0,0.1c0,0.1,0,0.3-0.1,0.4c-0.1,0.1-0.1,0.2-0.1,0.4
		c0,0.1-0.1,0.2-0.1,0.4c0,0.1-0.1,0.2-0.1,0.3c0,0.1,0,0.2-0.1,0.4s0,0.3,0,0.4c0,0.1-0.1,0.2-0.2,0.2c0,0-0.1,0-0.1,0
		c0,0,0-0.1,0-0.1c0-0.1,0-0.2,0-0.3S41.5,19.7,41.5,19.6z"/>
	<path d="M46.5,20.3c0,0.1-0.1,0.2-0.1,0.3c0,0.1-0.1,0.2-0.1,0.3c0,0.1-0.1,0.2-0.1,0.3c0,0.1-0.1,0.2-0.2,0.2
		c-0.1,0-0.1,0-0.2-0.1c0,0,0-0.1,0-0.2c0-0.1,0-0.2,0.1-0.3s0.1-0.2,0.1-0.3c0-0.1,0.1-0.2,0.1-0.3c0-0.1,0.1-0.2,0.1-0.3
		c0-0.1,0-0.2,0-0.3s0-0.2,0-0.3c0-0.1-0.1-0.2-0.2-0.2c-0.1,0-0.2,0-0.4,0.1c-0.1,0-0.2,0.1-0.3,0.1c-0.1,0-0.1,0.1-0.2,0.1
		s-0.1,0-0.2,0.1c-0.1,0-0.1,0-0.2,0s-0.1-0.1-0.1-0.2c0-0.1,0-0.1,0.1-0.2c0.1-0.1,0.2-0.1,0.3-0.1c0.1,0,0.2-0.1,0.3-0.1
		c0.1,0,0.2-0.1,0.3-0.1c0.1,0,0.2,0,0.3,0c0.1,0,0.1,0,0.2,0c0.2,0,0.3,0.1,0.3,0.1c0.1,0.1,0.1,0.1,0.2,0.2c0,0,0,0.1,0,0.1
		c0,0.1,0,0.1,0,0.1c0,0.2,0,0.4,0,0.5C46.6,19.9,46.5,20.1,46.5,20.3z M47.6,22.3c-0.1,0-0.1,0.1-0.2,0.2c-0.1,0.1-0.2,0.1-0.2,0.2
		c0,0-0.1,0-0.1,0.1s0,0.1-0.1,0.1c0,0-0.1,0-0.1,0.1s-0.1,0-0.1,0c-0.1,0-0.1,0-0.1,0c0,0,0-0.1,0-0.1c0,0,0-0.1,0-0.1
		c0,0,0-0.1,0.1-0.1c0.1-0.1,0.2-0.2,0.4-0.4c0.1-0.1,0.3-0.2,0.4-0.3s0.3-0.2,0.4-0.3s0.3-0.2,0.4-0.3c0.1-0.1,0.1-0.1,0.2-0.2
		s0.2-0.1,0.3-0.1c0,0,0.1,0,0.1,0S49,21,49,21c0,0,0,0.1,0,0.1c0,0.1,0,0.1-0.1,0.1c-0.2,0.1-0.3,0.3-0.5,0.4s-0.3,0.2-0.5,0.4
		c0.1,0.1,0.1,0.2,0.2,0.3c0.1,0.1,0.2,0.2,0.3,0.3c0.1,0.1,0.3,0.2,0.4,0.3s0.2,0.2,0.4,0.3c0.1,0.1,0.3,0.2,0.4,0.3
		c0.1,0.1,0.2,0.2,0.4,0.3c0,0,0.1,0,0.1,0.1s0.1,0.1,0.2,0.1s0.1,0.1,0.2,0.1s0.1,0.1,0.1,0.1c0,0.1,0,0.1-0.1,0.1
		c-0.1,0-0.2,0-0.3-0.1s-0.2-0.1-0.4-0.2c-0.1-0.1-0.2-0.2-0.4-0.2c-0.1-0.1-0.2-0.2-0.3-0.2c0,0-0.1-0.1-0.2-0.1s-0.2-0.1-0.3-0.2
		c-0.1-0.1-0.2-0.1-0.3-0.2c-0.1-0.1-0.1-0.1-0.2-0.1c0,0-0.1-0.1-0.1-0.1c-0.1-0.1-0.1-0.1-0.2-0.2c-0.1-0.1-0.1-0.1-0.2-0.1
		C47.6,22.4,47.6,22.4,47.6,22.3z M49,19.5c-0.1,0-0.2,0.1-0.3,0.1c-0.1,0-0.2,0.1-0.4,0.1c0,0,0,0-0.1,0c-0.1,0-0.1,0-0.2,0.1
		c-0.1,0-0.1,0.1-0.2,0.1c-0.1,0-0.1,0-0.2,0.1c-0.1,0-0.2,0.1-0.3,0.1s-0.2,0.1-0.3,0.1c-0.1,0-0.1,0-0.2,0s-0.1-0.1-0.1-0.2
		c0-0.1,0-0.1,0.1-0.1c0.1,0,0.1-0.1,0.2-0.1c0,0,0,0,0.1,0c0.1,0,0.1,0,0.2-0.1s0.1,0,0.1-0.1c0,0,0.1,0,0.1,0
		c0.1,0,0.2-0.1,0.3-0.1c0.1,0,0.1,0,0.2-0.1c0.1,0,0.2-0.1,0.3-0.1c0.1,0,0.2-0.1,0.3-0.1c0.1,0,0.2-0.1,0.3-0.1
		c0.1,0,0.1-0.1,0.1-0.1c0,0,0-0.1,0-0.1c0-0.1,0-0.1,0-0.2c0-0.1,0-0.1,0-0.2c0-0.1,0-0.1,0-0.1c0-0.1,0.1-0.1,0.1-0.1
		c0,0,0.1-0.1,0.2-0.1c0.1,0,0.2,0.1,0.2,0.2c0,0.1,0,0.1,0,0.2c0,0.1,0,0.1-0.1,0.2c0,0.1-0.1,0.1-0.1,0.2c0,0.1-0.1,0.1-0.1,0.2
		c0,0.2-0.1,0.4-0.1,0.6s-0.1,0.4-0.1,0.6c0,0,0,0.1,0,0.1c0,0,0,0.1,0,0.1c0,0,0,0.1-0.1,0.1c0,0-0.1,0-0.1,0c0,0-0.1,0-0.1,0
		c0,0,0-0.1-0.1-0.1c0,0,0-0.1,0-0.1c0-0.1,0-0.1,0-0.1c0-0.1,0-0.2,0-0.3S49,19.6,49,19.5z"/>
	<path d="M50.6,21.7c0-0.1,0-0.2,0-0.3c0-0.1,0.1-0.2,0.1-0.3s0.1-0.2,0.1-0.3c0-0.1,0.1-0.2,0.1-0.2c0.1-0.1,0.1-0.2,0.2-0.3
		c0.1-0.1,0.1-0.2,0.2-0.2c0-0.1,0.1-0.1,0.2-0.1s0.2,0,0.2,0.1c0,0,0.1,0.1,0,0.2c0,0.1,0,0.1-0.1,0.2c0,0,0.1,0,0.1,0.1
		c0,0,0.1,0.1,0.1,0.1c0,0.1,0.1,0.1,0.1,0.2c0,0.1,0,0.2,0,0.3c0,0.2-0.1,0.3-0.1,0.4s-0.2,0.2-0.3,0.3c-0.1,0.1-0.2,0.1-0.3,0.2
		S51.1,22,51,22c-0.1,0-0.1,0-0.2-0.1C50.7,21.9,50.6,21.8,50.6,21.7z M51.6,20.7c0,0-0.1,0.1-0.1,0.1c-0.1,0.1-0.1,0.2-0.2,0.3
		c-0.1,0.1-0.1,0.2-0.1,0.3s-0.1,0.2-0.1,0.2c0,0,0.1,0,0.1,0c0.1,0,0.1,0,0.2-0.1c0.1,0,0.1-0.1,0.2-0.2c0.1-0.1,0.1-0.2,0.1-0.3
		c0-0.1,0-0.2,0-0.2C51.6,20.7,51.6,20.7,51.6,20.7z M53.4,22c0-0.1,0-0.2,0-0.3c0-0.1,0-0.2,0-0.3c0-0.2,0-0.5,0.1-0.7
		c0-0.2,0.1-0.4,0.1-0.7c0-0.1,0-0.1,0-0.2c0-0.1,0-0.2,0.1-0.2c0-0.1,0.1-0.1,0.1-0.2c0-0.1,0.1-0.1,0.1-0.1s0.1,0,0.2,0.1
		s0.1,0.1,0.1,0.1c0,0.1,0,0.2-0.1,0.3c0,0.1,0,0.2-0.1,0.2C54,20.2,54,20.5,54,20.6c0,0.2-0.1,0.3-0.1,0.4c0,0.1,0,0.2,0,0.2
		c0,0,0,0.1,0,0.1c0,0.2,0,0.3-0.1,0.5c0,0.2,0,0.3,0,0.5c0,0,0,0.1-0.1,0.1c0,0-0.1,0-0.1,0c-0.1,0-0.1,0-0.1-0.1
		C53.4,22.2,53.4,22.1,53.4,22z"/>
	<path d="M57.2,21c0,0,0-0.1,0-0.1c0,0,0-0.1,0-0.1c0,0,0,0,0.1-0.1c0,0,0.1-0.1,0.1-0.1c0,0,0.1-0.1,0.1-0.1s0.1,0,0.1-0.1
		c0,0,0.1-0.1,0.2-0.1c0,0,0.1,0,0.1-0.1c0.1-0.2,0.1-0.4,0.1-0.5s0.1-0.3,0.1-0.5c0-0.1,0-0.1,0-0.2S58.1,19,58,19
		c-0.1,0-0.1,0-0.2,0c-0.1,0-0.1,0-0.2,0c-0.1,0-0.1,0.1-0.2,0.1c-0.1,0-0.1,0.1-0.1,0.1c-0.1,0.2-0.1,0.3-0.1,0.5
		c0,0.2,0,0.4,0,0.5c0,0,0,0.1,0,0.1s-0.1,0-0.2,0c-0.1,0-0.1,0-0.2-0.1c0-0.1,0-0.1,0-0.2c0-0.2,0-0.3,0-0.4s0-0.3,0-0.4
		c0-0.2,0-0.3,0.1-0.4s0.1-0.3,0.1-0.4c0-0.1,0-0.1,0.1-0.2s0.1-0.1,0.2-0.1c0.1,0,0.1,0,0.2,0c0.1,0,0.1,0.1,0.1,0.2
		c0,0.1,0,0.1-0.1,0.2c0,0,0,0.1,0,0.2c0.2-0.1,0.4-0.2,0.7-0.2c0.2,0,0.3,0,0.4,0.1c0.1,0.1,0.2,0.2,0.2,0.3c0,0.2,0,0.4,0,0.6
		s-0.1,0.4-0.2,0.6c0.1,0,0.2-0.1,0.3-0.1c0.1,0,0.2-0.1,0.3-0.1c0,0,0.1,0,0.1,0c0.1,0,0.1,0,0.1,0.1c0,0,0,0.1,0,0.1
		c0,0,0,0.1-0.1,0.1c0,0,0,0-0.1,0c0,0-0.1,0-0.1,0c-0.1,0.1-0.3,0.1-0.5,0.2c-0.2,0.1-0.4,0.2-0.7,0.3c-0.1,0-0.2,0.1-0.2,0.2
		c-0.1,0.1-0.1,0.1-0.2,0.1C57.4,21.1,57.4,21.1,57.2,21C57.3,21.1,57.3,21,57.2,21z M58.5,23.2c-0.2,0-0.3,0-0.3-0.1
		c0-0.1-0.1-0.2-0.1-0.4c0-0.2,0-0.4,0.1-0.5s0.1-0.3,0.2-0.5c0,0,0-0.1,0-0.1c0-0.1,0-0.1,0-0.2c0,0,0-0.1,0.1-0.1
		c0,0,0.1-0.1,0.1-0.1c0.1,0,0.2,0,0.2,0.1c0.1,0,0.1,0.1,0.1,0.2c0,0.1,0,0.1,0,0.1c0,0-0.1,0.1-0.1,0.1c0,0,0,0,0,0.1
		c0,0,0,0.1,0,0.1c0,0.1-0.1,0.2-0.1,0.3c0,0.1-0.1,0.2-0.1,0.4c0,0,0,0.1,0,0.1c0,0,0,0.1,0,0.1c0,0,0,0.1,0.1,0.1c0,0,0.1,0,0.1,0
		c0.1,0,0.2,0,0.3,0c0.1,0,0.1,0,0.2,0c0.1,0,0.1,0,0.2,0c0.1,0,0.1,0,0.2,0c0.1,0,0.2,0,0.2,0c0,0,0.1,0,0.1,0.1c0,0.1,0,0.1,0,0.2
		c0,0-0.1,0.1-0.1,0.1c-0.1,0-0.1,0.1-0.2,0.1s-0.1,0-0.2,0.1c-0.1,0-0.3,0.1-0.4,0.1C58.7,23.2,58.6,23.2,58.5,23.2z M60,22.6
		c0,0,0-0.1,0.1-0.1s0.1-0.1,0.1-0.1c0.1,0,0.1-0.1,0.2-0.1c0.1,0,0.1,0,0.1-0.1c0-0.2,0-0.4,0-0.6c0-0.1,0-0.2,0.1-0.2
		c0-0.1,0-0.1,0.1-0.2c0,0,0-0.1,0-0.1c0-0.1,0-0.1,0.1-0.2c0-0.1,0.1-0.1,0.1-0.1c0,0,0.1-0.1,0.1-0.1c0.1,0,0.2,0.1,0.2,0.2
		c0,0.1,0,0.1,0,0.2c0,0-0.1,0.1-0.1,0.2c-0.1,0.1-0.1,0.3-0.1,0.4c0,0.1-0.1,0.2-0.1,0.4c0.1,0,0.2,0,0.3-0.1c0.1,0,0.2,0,0.2,0
		c0.1,0,0.2,0,0.2,0c0.1,0,0.2,0,0.3,0c0.1,0,0.1,0,0.2,0.1s0.1,0.1,0.1,0.2c0,0.1,0,0.1,0,0.1s-0.1,0-0.1,0c-0.2,0-0.4,0-0.6,0.1
		s-0.4,0.1-0.5,0.1c0,0-0.1,0-0.2,0.1c-0.1,0-0.2,0.1-0.2,0.1c0,0-0.1,0-0.1,0.1c-0.1,0-0.1,0.1-0.2,0.1c-0.1,0-0.1,0-0.2-0.1
		C60,22.7,60,22.7,60,22.6z M60.1,20.5c0-0.1,0-0.2,0-0.4c0-0.1,0-0.3,0-0.4c0-0.1,0-0.3,0.1-0.4c0-0.1,0-0.3,0.1-0.4
		c0-0.2,0.1-0.4,0.1-0.6c0-0.2,0.1-0.4,0.1-0.6c0,0,0-0.1,0-0.1c0,0,0,0,0,0c0,0,0,0,0,0c0,0,0.1,0,0.1,0c0,0,0.1,0,0.1,0
		s0.1,0,0.1,0.1c0,0,0,0.1,0,0.1c0,0.2-0.1,0.5-0.1,0.7c0,0.2-0.1,0.4-0.1,0.7c0.1,0,0.1,0,0.2,0c0.1,0,0.2,0,0.3,0
		c0.1,0,0.2,0,0.3-0.1c0.1,0,0.2,0,0.4,0c0.1,0,0.2,0,0.3,0c0.1,0,0.1,0.1,0.1,0.1c0,0.1,0,0.1-0.1,0.1c-0.1,0-0.1,0-0.2,0
		c-0.2,0-0.3,0-0.4,0.1c-0.1,0-0.3,0.1-0.4,0.1c0,0-0.1,0-0.2,0c-0.1,0-0.1,0-0.2,0.1c-0.1,0-0.1,0.1-0.2,0.1c0,0-0.1,0.1-0.1,0.1
		c0,0.1,0,0.3,0,0.4c0,0.1,0,0.3,0,0.4c0,0.1-0.1,0.1-0.2,0.1c-0.1,0-0.2,0-0.2-0.1C60.1,20.7,60.1,20.6,60.1,20.5z M60.3,23.9
		c0-0.1,0-0.3,0.1-0.4s0.1-0.2,0.2-0.3c0.1-0.1,0.1-0.2,0.2-0.3c0.1-0.1,0.2-0.1,0.2-0.2c0.1,0,0.1,0,0.2,0.1c0,0.1,0.1,0.1,0.1,0.2
		c0,0.1,0,0.2,0.1,0.2c0,0.1,0,0.2,0,0.2c0,0.1,0,0.2-0.1,0.3c0,0.1-0.1,0.2-0.2,0.3c0,0-0.1,0.1-0.1,0.1c-0.1,0-0.1,0.1-0.2,0.1
		c-0.1,0-0.2,0-0.3,0c-0.1,0-0.1-0.1-0.2-0.1C60.4,24,60.3,24,60.3,23.9z M61,23.2c0,0-0.1,0.1-0.1,0.1s-0.1,0.2-0.1,0.2
		c0,0,0,0.1,0,0.1c0,0,0,0.1,0,0.1c0,0,0.1,0,0.1-0.1c0,0,0.1-0.1,0.1-0.2c0-0.1,0-0.1,0-0.2C61,23.3,61,23.3,61,23.2z"/>
	<path d="M62.6,19.5c0-0.1,0-0.1,0.1-0.2c0.1-0.1,0.2-0.1,0.3-0.1s0.3-0.1,0.4-0.1s0.2,0,0.3,0c0.1,0,0.1,0,0.2,0c0.1,0,0.1,0,0.2,0
		c0.1,0,0.1,0,0.1,0.1c0,0,0.1,0.1,0.1,0.1c0,0,0,0.1,0,0.1c0,0.1-0.1,0.1-0.1,0.1c-0.2,0-0.3,0-0.5,0s-0.3,0.1-0.5,0.1
		c-0.1,0-0.1,0-0.2,0.1c-0.1,0-0.1,0.1-0.2,0.1c0,0-0.1,0-0.1,0c0,0,0,0-0.1-0.1c0,0,0-0.1,0-0.1C62.7,19.6,62.6,19.6,62.6,19.5z
		 M62.7,21.4c0-0.1,0-0.1,0-0.2s0-0.2,0.1-0.3c0-0.1,0-0.2,0.1-0.3s0.1-0.2,0.1-0.2c0,0,0,0,0.1,0c0,0,0.1,0,0.2,0
		c0.1,0,0.1,0.1,0.1,0.2c0,0.1,0,0.2,0,0.3c0,0.1,0,0.2-0.1,0.3c0,0.1,0,0.2,0,0.3c0,0.1,0,0.1,0.1,0.1s0.1,0,0.1,0
		c0.3,0,0.6-0.1,0.8-0.2c0.1,0,0.1-0.1,0.2-0.1c0.1,0,0.2-0.1,0.3-0.1c0.1,0,0.2-0.1,0.3-0.1c0.1,0,0.1-0.1,0.2-0.1s0.1,0,0.1,0
		c0,0,0,0.1,0.1,0.1c0,0.1,0,0.1,0,0.1c0,0,0,0.1-0.1,0.1c0,0-0.1,0-0.1,0.1c-0.1,0-0.1,0.1-0.2,0.1s-0.1,0.1-0.2,0.1
		c-0.1,0-0.1,0.1-0.2,0.1c-0.1,0.1-0.3,0.1-0.5,0.2c-0.2,0.1-0.3,0.1-0.4,0.1c0,0-0.1,0-0.2,0.1c-0.1,0-0.2,0-0.3,0
		c-0.1,0-0.1,0-0.2,0s-0.1-0.1-0.2-0.1C62.8,21.7,62.7,21.6,62.7,21.4z M65.8,23c0,0,0-0.1,0-0.2c0-0.1,0-0.2,0-0.4s0-0.2,0-0.3
		c0-0.1,0-0.2,0-0.2c0-0.1,0-0.1,0-0.2c0,0,0-0.1,0-0.2c0,0,0-0.1,0-0.1c0,0,0-0.1,0-0.1c0,0,0-0.1,0-0.2s0-0.2,0-0.3
		c0-0.1,0-0.2,0-0.3s0-0.2,0-0.2c0-0.3,0.1-0.6,0.1-0.8c0-0.3,0.1-0.6,0.1-0.8c0-0.1,0-0.1,0.1-0.1c0.1,0,0.1,0,0.2,0
		c0.1,0,0.1,0,0.1,0c0,0,0,0.1,0,0.1c0,0.1,0,0.3,0,0.4s0,0.3-0.1,0.4c0,0.2-0.1,0.5-0.1,0.8c0,0.3-0.1,0.6-0.1,0.8v0.2
		c0,0,0.1,0,0.2,0c0.1,0,0.1-0.1,0.2-0.1c0.1,0,0.2-0.1,0.2-0.1c0.1,0,0.1,0,0.2-0.1c0.1,0,0.3-0.1,0.4-0.1s0.2-0.1,0.3-0.1
		c0.1,0,0.1,0,0.2,0c0,0,0.1,0,0.1,0.1c0,0.1,0,0.1-0.1,0.1s-0.1,0-0.2,0.1c-0.2,0.1-0.5,0.2-0.8,0.3s-0.5,0.2-0.7,0.4
		c0,0,0,0.1,0,0.2c0,0.1,0,0.2,0,0.4c0,0.1,0,0.2,0,0.4c0,0.1,0,0.2,0,0.2c0,0.1,0,0.1,0,0.2c0,0.1-0.1,0.1-0.1,0.1
		c-0.1,0-0.1,0-0.2,0S65.8,23.1,65.8,23z"/>
	<path d="M68.1,21.1c0,0,0-0.1,0-0.1c0,0,0.1,0,0.1-0.1c0.4-0.2,0.8-0.3,1.2-0.3c0.4-0.1,0.8-0.1,1.3-0.1h0.4c0.2,0,0.3,0,0.5,0
		s0.3,0,0.4,0.1c0.1,0,0.2,0.1,0.3,0.1s0.1,0.1,0.1,0.2c0,0,0,0-0.1,0c0,0,0,0-0.1,0c-0.1,0-0.2,0-0.3,0c-0.1,0-0.2,0-0.3,0
		c-0.2,0-0.3,0-0.5,0c-0.2,0-0.3,0-0.5,0s-0.4,0-0.6,0c-0.2,0-0.4,0-0.5,0.1c-0.2,0-0.3,0.1-0.5,0.1c-0.1,0-0.2,0.1-0.3,0.1
		c-0.1,0.1-0.2,0.1-0.3,0.1c-0.1,0-0.1,0-0.2-0.1C68.1,21.2,68.1,21.1,68.1,21.1z M68.6,19.6c0-0.1,0-0.2,0-0.3
		c0-0.1,0.1-0.2,0.1-0.3c0,0,0-0.1,0.1-0.2c0-0.1,0.1-0.2,0.1-0.2c0-0.1,0.1-0.2,0.1-0.2c0-0.1,0.1-0.1,0.1-0.2c0,0,0.1-0.1,0.1-0.1
		c0,0,0.1,0,0.1,0c0.1,0,0.1,0,0.1,0c0,0,0,0.1,0,0.1c0,0,0,0,0,0.1l0,0c-0.1,0.2-0.2,0.4-0.3,0.6c-0.1,0.2-0.1,0.4-0.2,0.5
		c0.1,0,0.1,0,0.2,0c0.1,0,0.2,0,0.2,0c0.1,0,0.3-0.1,0.4-0.1s0.2-0.1,0.3-0.1c0.1,0,0.1,0,0.2,0c0,0,0.1,0.1,0.1,0.1
		c0,0.1,0,0.1,0,0.1c0,0,0,0-0.1,0.1c0,0-0.1,0-0.1,0c0,0-0.1,0-0.1,0.1s-0.1,0-0.1,0.1c0,0-0.1,0-0.1,0c-0.2,0-0.3,0.1-0.5,0.1
		c-0.2,0.1-0.3,0.1-0.4,0.1c-0.1,0-0.2,0-0.3-0.1S68.6,19.7,68.6,19.6z M69.6,22.7c0-0.2,0-0.5,0.1-0.7c0.1-0.2,0.2-0.4,0.3-0.6
		c0,0,0,0,0.1-0.1c0,0,0.1,0,0.1,0c0,0,0.1,0,0.2,0c0.1,0,0.1,0,0.1,0.1c0,0.1,0,0.1,0,0.2c0,0.1-0.1,0.1-0.1,0.2c0,0,0,0.1-0.1,0.1
		c0,0,0,0.1-0.1,0.1s0,0.1-0.1,0.2s-0.1,0.1-0.1,0.2c0,0,0,0.1,0,0.1c0,0,0,0.1,0,0.1c0,0.1,0,0.1,0.1,0.1c0,0,0.1,0,0.2,0
		c0.1,0,0.3-0.1,0.4-0.1c0.1,0,0.2-0.1,0.4-0.1c0.1,0,0.2-0.1,0.4-0.1c0.1,0,0.2-0.1,0.4-0.1c0,0,0.1,0,0.1,0c0,0,0,0.1,0,0.1
		c0,0,0,0.1,0,0.1c0,0-0.1,0.1-0.1,0.1s-0.1,0-0.3,0.1s-0.3,0.1-0.5,0.2S70.6,23,70.5,23s-0.2,0.1-0.3,0.1c0,0-0.1,0-0.1,0
		c0,0-0.1,0-0.1,0h0c-0.1,0-0.2,0-0.3-0.1C69.6,22.9,69.6,22.8,69.6,22.7z"/>
	<path d="M76.4,20.7c0,0.1-0.1,0.2-0.1,0.3s-0.1,0.2-0.1,0.3c0,0.1-0.1,0.2-0.1,0.3c0,0.1-0.1,0.2-0.2,0.2c-0.1,0-0.1,0-0.2-0.1
		c0,0,0-0.1,0-0.2c0-0.1,0-0.2,0.1-0.3c0-0.1,0.1-0.2,0.1-0.3c0-0.1,0.1-0.2,0.1-0.3s0.1-0.2,0.1-0.3c0-0.1,0-0.2,0-0.3s0-0.2,0-0.3
		c0-0.1-0.1-0.2-0.2-0.2c-0.1,0-0.2,0-0.4,0.1c-0.1,0-0.2,0.1-0.3,0.1c-0.1,0-0.1,0.1-0.2,0.1c-0.1,0-0.1,0-0.2,0.1
		c-0.1,0-0.1,0-0.2,0c0,0-0.1-0.1-0.1-0.2c0-0.1,0-0.1,0.1-0.2c0.1-0.1,0.2-0.1,0.3-0.1c0.1,0,0.2-0.1,0.3-0.1
		c0.1,0,0.2-0.1,0.3-0.1c0.1,0,0.2,0,0.3,0c0.1,0,0.1,0,0.2,0c0.2,0,0.3,0.1,0.3,0.1c0.1,0.1,0.1,0.1,0.2,0.2c0,0,0,0.1,0,0.1
		c0,0.1,0,0.1,0,0.1c0,0.2,0,0.4,0,0.5S76.4,20.5,76.4,20.7z M78.9,19.9c-0.1,0-0.2,0.1-0.3,0.1c-0.1,0-0.2,0.1-0.4,0.1
		c0,0,0,0-0.1,0c-0.1,0-0.1,0-0.2,0.1c-0.1,0-0.1,0.1-0.2,0.1c-0.1,0-0.1,0-0.2,0.1c-0.1,0-0.2,0.1-0.3,0.1c-0.1,0-0.2,0.1-0.3,0.1
		c-0.1,0-0.1,0-0.2,0c-0.1,0-0.1-0.1-0.1-0.2c0-0.1,0-0.1,0.1-0.1c0.1,0,0.1-0.1,0.2-0.1c0,0,0,0,0.1,0c0.1,0,0.1,0,0.2-0.1
		c0.1,0,0.1,0,0.1-0.1c0,0,0.1,0,0.1,0c0.1,0,0.2-0.1,0.3-0.1c0.1,0,0.1,0,0.2-0.1c0.1,0,0.2-0.1,0.3-0.1c0.1,0,0.2-0.1,0.3-0.1
		s0.2-0.1,0.3-0.1c0.1,0,0.1-0.1,0.1-0.1c0,0,0-0.1,0-0.1c0-0.1,0-0.1,0-0.2c0-0.1,0-0.1,0-0.2c0-0.1,0-0.1,0-0.1
		c0-0.1,0.1-0.1,0.1-0.1c0,0,0.1-0.1,0.2-0.1c0.1,0,0.2,0.1,0.2,0.2c0,0.1,0,0.1,0,0.2c0,0.1,0,0.1-0.1,0.2c0,0.1-0.1,0.1-0.1,0.2
		c0,0.1-0.1,0.1-0.1,0.2c0,0.1,0,0.2-0.1,0.3s-0.1,0.3-0.1,0.5s-0.1,0.3-0.1,0.5c0,0.1,0,0.3,0,0.3c0,0,0,0.1,0,0.1c0,0,0,0.1,0,0.1
		c0,0,0,0.1-0.1,0.1s-0.1,0-0.1,0c0,0-0.1,0-0.1,0s0-0.1-0.1-0.1c0,0,0-0.1,0-0.1c0-0.1,0-0.1,0-0.1c0-0.1,0-0.1,0-0.2
		c0-0.1,0-0.2,0-0.3c0-0.1,0-0.2,0-0.3C78.9,20,78.9,20,78.9,19.9z M77.3,22.7c0-0.1,0-0.2,0-0.3s0.1-0.2,0.1-0.3
		c0,0,0.1-0.1,0.1-0.2c0-0.1,0.1-0.2,0.1-0.3c0.1-0.1,0.1-0.2,0.2-0.3c0.1-0.1,0.1-0.1,0.2-0.1c0.1,0,0.1,0,0.2,0
		c0.1,0,0.1,0.1,0.1,0.1c0,0.1,0,0.1-0.1,0.2c-0.1,0.1-0.1,0.1-0.1,0.2c-0.1,0.1-0.1,0.2-0.2,0.3s-0.1,0.2-0.1,0.4c0,0,0,0,0,0.1
		c0,0,0,0,0,0.1c0,0,0,0,0.1,0c0,0,0.1,0,0.1,0c0,0,0.1,0,0.1,0s0,0,0.1,0c0.2-0.1,0.4-0.2,0.7-0.2c0.3-0.1,0.5-0.1,0.8-0.2
		c0.1,0,0.1,0,0.2,0c0.1,0,0.1,0,0.2,0c0,0,0,0,0,0.1s0,0.1,0,0.1c0,0,0,0.1,0,0.1c0,0,0,0-0.1,0.1c0,0-0.1,0-0.2,0
		c-0.1,0-0.2,0-0.3,0c-0.2,0-0.3,0.1-0.5,0.1c-0.2,0.1-0.4,0.1-0.6,0.2c-0.1,0-0.2,0.1-0.4,0.2c-0.1,0.1-0.3,0.1-0.5,0
		c-0.1,0-0.2-0.1-0.2-0.1C77.4,22.9,77.3,22.8,77.3,22.7z"/>
</g>
<g class="st1">
	<path d="M25.5,31.5C25.5,31.5,25.5,31.5,25.5,31.5c0-0.1,0-0.2,0-0.2c0.1-0.2,0.3-0.3,0.4-0.4c0.1-0.1,0.2-0.2,0.3-0.4
		c0.1-0.1,0.2-0.2,0.3-0.4s0.2-0.3,0.3-0.5c0.1-0.1,0.1-0.1,0.1-0.2c0-0.1,0-0.1,0.1-0.2c0-0.1,0-0.1-0.1-0.1c-0.1,0-0.2,0-0.3,0.1
		c-0.1,0-0.1,0.1-0.2,0.1c-0.1,0-0.1,0.1-0.2,0.1c0,0-0.1,0.1-0.2,0.1c-0.1,0-0.2-0.1-0.2-0.2c0,0,0-0.1,0-0.1s0.1-0.1,0.1-0.1
		c0,0,0.1,0,0.1-0.1c0,0,0.1,0,0.1,0c0.1,0,0.2-0.1,0.2-0.1c0.1,0,0.1-0.1,0.2-0.1c0.1,0,0.1,0,0.2,0s0.2,0,0.2,0
		c0.2,0,0.3,0,0.4,0.1c0.1,0.1,0.1,0.2,0.1,0.3c0,0.1,0,0.2,0,0.2c0,0.1,0,0.1-0.1,0.2c0,0.1-0.1,0.1-0.1,0.2c0,0.1-0.1,0.1-0.1,0.2
		C27.1,30,27,30.1,27,30.2s-0.1,0.2-0.2,0.3c0,0,0.1,0.1,0.2,0.1c0.1,0,0.2,0.1,0.3,0.1c0.1,0,0.2,0.1,0.3,0.1c0.1,0,0.2,0,0.3,0.1
		c0.1,0,0.2,0.1,0.2,0.2c0,0.1,0,0.1-0.1,0.1c0,0-0.1,0-0.1,0c-0.2,0-0.4-0.1-0.6-0.1s-0.4-0.1-0.6-0.1c0,0,0,0.1-0.1,0.1
		c0,0.1-0.1,0.1-0.1,0.2c-0.1,0.1-0.1,0.1-0.1,0.2c0,0.1-0.1,0.1-0.1,0.1c0,0-0.1,0.1-0.1,0.1c-0.1,0.1-0.1,0.1-0.2,0.1
		C25.7,31.7,25.6,31.6,25.5,31.5C25.6,31.6,25.5,31.6,25.5,31.5z M26.8,28.3c0-0.1,0-0.2,0-0.3c0-0.1,0-0.2,0-0.2
		c0-0.1,0-0.1,0.1-0.2c0-0.1,0.1-0.2,0.1-0.2c0-0.1,0.1-0.2,0.1-0.2c0-0.1,0.1-0.1,0.2-0.1c0.1,0,0.2,0.1,0.2,0.2
		c0,0.1,0,0.2-0.1,0.3c0,0.1-0.1,0.2-0.1,0.3c0,0.1,0,0.1-0.1,0.2c0,0.1,0,0.1,0,0.1s0,0.1,0,0.1c0,0,0,0.1,0,0.1c0,0,0,0.1-0.1,0.1
		c0,0-0.1,0-0.1,0c0,0-0.1,0-0.1,0C26.8,28.4,26.8,28.4,26.8,28.3z M28.5,33.6c0,0,0-0.1,0.1-0.1c0,0,0.1-0.1,0.1-0.1
		c0,0,0.1,0,0.1-0.1s0.1,0,0.1-0.1c0,0,0,0,0,0c0,0,0,0,0,0c0.1-0.1,0.1-0.3,0.2-0.4c0-0.1,0.1-0.3,0.1-0.4c0-0.1,0-0.1,0-0.2
		c0,0-0.1-0.1-0.1-0.1c-0.1,0-0.2,0-0.3,0c-0.1,0-0.2,0.1-0.3,0.1c-0.2,0.1-0.3,0.1-0.3,0.2s-0.1,0.2-0.2,0.2c0,0.1-0.1,0.2-0.1,0.3
		c0,0.1,0,0.2,0,0.4c0,0.1-0.1,0.1-0.2,0.1c-0.1,0-0.1,0-0.1-0.1c0,0,0-0.1-0.1-0.1c0-0.1,0-0.1,0-0.2c0-0.1,0-0.1,0-0.1
		c0,0,0-0.1,0-0.2c0-0.1,0-0.1,0-0.2s0-0.2,0-0.2c0-0.1,0-0.1,0-0.2c0-0.1,0-0.2,0.1-0.3c0-0.1,0-0.2,0.1-0.3c0-0.1,0.1-0.2,0.1-0.2
		s0.1-0.1,0.2-0.1c0,0,0.1,0,0.1,0c0,0,0.1,0.1,0,0.1c0,0.1,0,0.2-0.1,0.3c0,0.1,0,0.2-0.1,0.3c0.1,0,0.1-0.1,0.2-0.1
		c0.1,0,0.1,0,0.1-0.1c0.2-0.1,0.4-0.1,0.6-0.1c0.1,0,0.3,0,0.4,0c0.1,0,0.2,0.1,0.2,0.2c0,0.1,0.1,0.2,0.1,0.3c0,0.1,0,0.3-0.1,0.4
		c0,0,0,0,0,0.1c0,0,0,0.1,0,0.1c0,0,0,0.1-0.1,0.1c0,0,0,0.1-0.1,0.1c0.1,0,0.2-0.1,0.3-0.1c0.1,0,0.2,0,0.3-0.1c0.1,0,0.2,0,0.4,0
		c0.1,0,0.3,0,0.3,0c0,0,0.1,0,0.1,0s0,0.1,0,0.1c0,0,0,0.1,0,0.1c0,0,0,0-0.1,0c-0.1,0-0.2,0-0.3,0c-0.1,0-0.2,0-0.3,0.1
		c-0.1,0-0.2,0-0.3,0.1c-0.1,0-0.2,0.1-0.3,0.1c-0.1,0-0.1,0-0.2,0.1c-0.1,0-0.2,0.1-0.2,0.1c-0.1,0-0.2,0.1-0.2,0.1
		c-0.1,0-0.2,0.1-0.3,0.1c-0.1,0-0.1,0-0.1-0.1S28.5,33.7,28.5,33.6z M28.9,29.5c0-0.1,0-0.2,0-0.3c0-0.1,0-0.1,0-0.2
		c0-0.1,0-0.1,0-0.2c0-0.1,0-0.1,0-0.2c0-0.1,0-0.1,0-0.2c0-0.1,0-0.2,0.1-0.2c0,0,0,0,0.1-0.1s0.1,0,0.1,0c0.1,0,0.1,0,0.2,0.1
		s0.1,0.1,0.1,0.2c0,0.1,0,0.2,0,0.3c0,0.2-0.1,0.3-0.1,0.5s-0.1,0.3-0.1,0.5c0.1,0,0.3-0.1,0.4-0.1c0.1,0,0.3-0.1,0.3-0.1
		c0.1,0,0.2,0,0.3-0.1s0.2,0,0.4,0c0,0,0.1,0,0.1,0.1c0,0,0,0.1,0,0.1c0,0,0,0-0.1,0.1c-0.1,0-0.1,0-0.2,0.1c-0.1,0-0.1,0-0.2,0.1
		c-0.1,0-0.2,0.1-0.3,0.1c-0.1,0-0.2,0.1-0.2,0.1c-0.1,0-0.2,0.1-0.2,0.1c-0.1,0-0.2,0.1-0.3,0.1c0,0.2,0,0.3,0,0.4
		c0,0.1,0,0.3,0,0.4c0,0,0,0.1,0,0.1c0,0,0,0.1,0,0.1v0c0,0.1,0,0.1-0.1,0.1c-0.1,0-0.1,0-0.1,0c0,0-0.1,0-0.1,0
		c0,0-0.1-0.1-0.1-0.1c0-0.1-0.1-0.2-0.1-0.3c0-0.1,0-0.2,0-0.2c0-0.1,0-0.2,0-0.2c0,0,0,0,0-0.1s0-0.1,0-0.2c0-0.1,0-0.2,0-0.2
		C28.9,29.7,28.9,29.6,28.9,29.5z"/>
	<path d="M33,29.9c0-0.1,0.1-0.2,0.1-0.2c0,0,0-0.1,0.1-0.1c0-0.1,0.1-0.1,0.1-0.2c0-0.1,0.1-0.1,0.1-0.2c0-0.1,0.1-0.1,0.1-0.1
		c0.1-0.1,0.2-0.2,0.2-0.3c0.1-0.1,0.1-0.2,0.2-0.3c0,0,0-0.1,0.1-0.2c0-0.1,0.1-0.2,0.1-0.2c0-0.1,0-0.1,0-0.2c0,0-0.1-0.1-0.1-0.1
		c-0.1,0-0.2,0-0.2,0c-0.1,0-0.2,0.1-0.2,0.1c0,0,0,0-0.1,0c0,0-0.1,0-0.1,0.1s-0.1,0-0.1,0.1c0,0,0,0,0,0c0,0,0,0-0.1,0
		c0,0,0,0,0,0c-0.1,0-0.1,0-0.2-0.1c0,0,0-0.1,0-0.2c0,0,0-0.1,0.1-0.1s0.1-0.1,0.1-0.1c0.1-0.1,0.3-0.1,0.4-0.2
		c0.2,0,0.3-0.1,0.5,0c0.1,0,0.2,0,0.3,0.1c0.1,0,0.1,0.1,0.2,0.2c0,0,0,0.1,0,0.2c0,0.1,0,0.2,0,0.2c0,0.1,0,0.2-0.1,0.2
		c0.1,0,0.2,0,0.2,0s0.1,0,0.2,0c0.2,0,0.3,0,0.5,0c0.2,0,0.3,0,0.5,0c0.1,0,0.2,0,0.4,0c0.1,0,0.3,0,0.4,0.1c0.1,0,0.1,0.1,0.1,0.2
		c0,0,0,0.1,0,0.1c0,0-0.1,0-0.1,0c-0.1,0-0.2,0-0.3,0c-0.1,0-0.2,0-0.4,0c-0.1,0-0.2,0-0.3,0c-0.1,0-0.2,0-0.3,0
		c-0.2,0-0.3,0-0.4,0.1c-0.1,0-0.2,0.1-0.4,0.1c-0.1,0-0.1,0-0.2,0.1s-0.1,0.1-0.1,0.1c-0.1,0.1-0.1,0.1-0.2,0.2s-0.1,0.2-0.2,0.3
		c0,0,0,0.1-0.1,0.1c-0.1,0.1-0.1,0.1-0.2,0.2S33.4,30,33.3,30s-0.1,0.1-0.1,0.1c-0.1,0.1-0.2,0.1-0.2,0C32.9,30.1,32.9,30,33,29.9z
		 M33.5,31.1c0-0.1,0-0.1,0-0.1c0,0,0.1-0.1,0.2-0.1c0,0,0.1-0.1,0.2-0.1c0.1-0.1,0.1-0.1,0.2-0.3c0.1-0.1,0.1-0.2,0.2-0.2
		c0.1-0.1,0.1-0.2,0.1-0.3c0.1-0.1,0.1-0.2,0.1-0.3c0-0.1,0-0.1,0.1-0.2c0-0.1,0.1-0.1,0.1-0.2c0-0.1,0.1-0.1,0.1-0.2c0,0,0,0,0.1,0
		c0,0,0.1,0,0.1,0c0.1,0,0.2,0.1,0.2,0.2c0,0.1,0,0.1,0,0.2c0,0.1-0.1,0.2-0.1,0.3c-0.1,0.1-0.1,0.3-0.2,0.5
		c-0.1,0.2-0.2,0.3-0.3,0.5c0.1,0,0.2,0,0.2-0.1c0.1,0,0.1,0,0.2,0c0.2,0,0.5-0.1,0.7-0.1c0.2,0,0.5-0.1,0.8-0.1c0,0,0.1,0,0.1,0
		s0.1,0,0.2,0c0,0,0.1,0,0.1,0c0,0,0,0,0,0.1c0,0.1,0,0.1-0.1,0.1s-0.1,0-0.2,0.1c-0.1,0-0.2,0-0.2,0c-0.1,0-0.2,0-0.2,0
		c-0.2,0-0.4,0.1-0.5,0.1c-0.2,0-0.4,0.1-0.6,0.1c-0.1,0-0.2,0-0.3,0.1c-0.1,0-0.2,0.1-0.3,0.1c-0.1,0-0.2,0.1-0.3,0.1
		c-0.1,0-0.2,0.1-0.4,0.1c-0.1,0-0.1,0-0.2-0.1C33.6,31.3,33.6,31.2,33.5,31.1z M34.9,33.3c0.2-0.1,0.4-0.2,0.7-0.2
		c0.2,0,0.5-0.1,0.8-0.1c0,0,0.1,0,0.1,0s0.1,0,0.2,0c0.1,0,0.1,0,0.2,0.1s0.1,0.1,0.1,0.1c0,0,0,0.1,0,0.1c0,0,0,0-0.1,0.1
		c0,0,0,0-0.1,0s-0.1,0-0.2,0c-0.1,0-0.1,0-0.2,0c-0.1,0-0.1,0-0.2,0c-0.1,0-0.2,0-0.3,0c-0.1,0-0.2,0-0.2,0c-0.2,0-0.3,0.1-0.5,0.1
		s-0.3,0.1-0.4,0.2c0,0,0,0-0.1,0s-0.1,0-0.1,0c-0.1,0-0.1,0-0.2-0.1s-0.1-0.1-0.1-0.2c0,0,0-0.1,0-0.1c0,0,0.1-0.1,0.1-0.1
		s0.1,0,0.1-0.1c0,0,0.1,0,0.1,0C34.8,33.4,34.8,33.4,34.9,33.3C34.9,33.4,34.9,33.4,34.9,33.3z M35.3,33.1c0,0-0.1,0-0.1,0
		c0,0-0.1,0-0.1,0s0-0.1,0-0.1c0,0,0-0.1,0-0.1c0,0,0-0.1,0-0.1c0-0.1,0.1-0.3,0.1-0.4c0-0.1,0.1-0.2,0.1-0.4c0-0.1,0-0.1,0.1-0.2
		c0-0.1,0-0.1,0.1-0.2c0-0.1,0-0.2,0.1-0.2s0-0.1,0.1-0.1c0.1,0,0.2,0,0.2,0.1c0.1,0.1,0.1,0.2,0.1,0.2c0,0,0,0.1,0,0.1
		c0,0,0,0.1-0.1,0.2c0,0,0,0.1,0,0.1s0,0.1-0.1,0.2c0,0.1-0.1,0.1-0.1,0.2c0,0.1-0.1,0.2-0.2,0.3c0,0.1-0.1,0.1-0.1,0.2
		C35.4,33,35.4,33,35.3,33.1z M35.2,35c0-0.2,0.1-0.3,0.2-0.5c0.1-0.2,0.2-0.3,0.3-0.5c0,0,0.1-0.1,0.1-0.1s0.1-0.1,0.1-0.1
		c0.1,0,0.1,0,0.2,0.1c0.1,0.1,0.1,0.1,0.2,0.2c0,0,0,0.1,0,0.1c0,0,0,0.1,0,0.2c0,0.1,0,0.1,0,0.2c0,0.1,0,0.1-0.1,0.2
		c-0.1,0.1-0.2,0.3-0.3,0.4c-0.1,0.1-0.3,0.2-0.4,0.2c-0.1,0-0.2,0-0.2-0.1C35.3,35.2,35.2,35.1,35.2,35z M36,34.3
		c-0.1,0.1-0.2,0.2-0.2,0.3s-0.1,0.2-0.1,0.4c0.1-0.1,0.2-0.1,0.2-0.2c0.1-0.1,0.1-0.2,0.1-0.2C36,34.4,36,34.4,36,34.3
		C36,34.3,36,34.3,36,34.3z"/>
	<path d="M37.5,31.3c0,0,0-0.1,0-0.1c0,0,0.1,0,0.1-0.1c0.2-0.1,0.4-0.1,0.5-0.2s0.3-0.1,0.5-0.1c0.2,0,0.3,0,0.5-0.1
		c0.2,0,0.4,0,0.6,0h0.4c0.2,0,0.3,0,0.5,0c0.1,0,0.3,0,0.4,0.1c0.1,0,0.2,0.1,0.3,0.1c0.1,0,0.1,0.1,0.1,0.2c0,0,0,0-0.1,0
		c0,0,0,0-0.1,0c-0.1,0-0.2,0-0.3,0c-0.1,0-0.2,0-0.3,0c-0.2,0-0.3,0-0.5,0c-0.3,0-0.6,0-0.9,0c-0.3,0-0.6,0.1-0.9,0.2
		c-0.1,0-0.2,0.1-0.3,0.1s-0.2,0.1-0.3,0.1c-0.1,0-0.1,0-0.2-0.1S37.5,31.4,37.5,31.3z M38.4,29.8c0-0.1,0-0.2,0.1-0.4
		s0.1-0.2,0.2-0.3s0.1-0.2,0.2-0.3c0.1-0.1,0.1-0.1,0.2-0.2c0,0,0.1,0,0.1,0s0.1,0,0.1,0c0,0,0,0,0.1,0c0,0,0.1,0,0.1,0
		c0.1,0,0.2,0.1,0.3,0.2c0.1,0.1,0.1,0.2,0.1,0.3c0,0.1,0,0.2-0.1,0.4c0,0.1-0.1,0.2-0.2,0.3c-0.1,0.1-0.2,0.2-0.3,0.3
		c-0.1,0.1-0.3,0.1-0.4,0.1c-0.1,0-0.2,0-0.3-0.1S38.4,29.9,38.4,29.8z M38.8,32.9c0-0.2,0-0.5,0.1-0.7c0.1-0.2,0.2-0.4,0.3-0.6
		c0,0,0,0,0.1-0.1c0,0,0.1,0,0.1,0c0,0,0.1,0,0.2,0c0.1,0,0.1,0,0.1,0.1c0,0.1,0,0.1,0,0.2s-0.1,0.1-0.1,0.2c0,0,0,0.1-0.1,0.1
		c0,0,0,0.1-0.1,0.1c0,0,0,0.1-0.1,0.2c0,0.1-0.1,0.1-0.1,0.2c0,0,0,0.1,0,0.1c0,0,0,0.1,0,0.1c0,0.1,0,0.1,0.1,0.1c0,0,0.1,0,0.2,0
		c0.1,0,0.3-0.1,0.4-0.1s0.2-0.1,0.4-0.1c0.1,0,0.2-0.1,0.4-0.1c0.1,0,0.2-0.1,0.4-0.1c0,0,0.1,0,0.1,0s0,0.1,0,0.1s0,0.1,0,0.1
		s-0.1,0.1-0.1,0.1s-0.1,0-0.3,0.1S40.3,33,40.1,33c-0.2,0.1-0.3,0.1-0.5,0.2c-0.1,0.1-0.2,0.1-0.3,0.1c0,0-0.1,0-0.1,0
		c0,0-0.1,0-0.1,0h0c-0.1,0-0.2,0-0.3-0.1C38.8,33.1,38.8,33,38.8,32.9z M39.4,28.9c0,0-0.1,0.1-0.2,0.1c-0.1,0.1-0.1,0.1-0.2,0.2
		c0,0.1-0.1,0.2-0.1,0.3s0,0.2,0,0.2c0.1,0,0.1,0,0.2-0.1c0.1,0,0.1-0.1,0.2-0.2c0.1-0.1,0.1-0.1,0.1-0.2s0.1-0.2,0.1-0.2
		C39.4,29,39.4,28.9,39.4,28.9z"/>
	<path d="M43.7,29.9c0-0.1,0-0.2,0-0.3c0-0.1,0.1-0.2,0.1-0.3s0.1-0.2,0.1-0.3s0.1-0.2,0.1-0.3c0.1-0.1,0.1-0.2,0.2-0.3
		s0.1-0.2,0.1-0.2c0-0.1,0.1-0.1,0.2-0.1c0.1,0,0.1,0,0.2,0.1c0,0,0,0.1,0,0.1c0,0.1,0,0.1,0,0.2c0,0,0,0.1-0.1,0.1
		c0.1,0,0.1,0.1,0.2,0.2s0.1,0.2,0.1,0.4c0,0.1,0,0.2-0.1,0.3c0,0.1-0.1,0.2-0.2,0.4c-0.1,0.1-0.2,0.2-0.3,0.3
		c-0.1,0-0.2,0.1-0.3,0.1c-0.1,0-0.1,0-0.2-0.1C43.8,30.1,43.7,30,43.7,29.9z M44.6,28.9c0,0-0.1,0.1-0.1,0.1c0,0.1-0.1,0.2-0.1,0.3
		c0,0.1-0.1,0.2-0.1,0.3c0,0.1-0.1,0.2-0.1,0.2c0.1,0,0.2-0.1,0.3-0.2c0.1-0.1,0.2-0.3,0.2-0.5c0,0,0-0.1,0-0.1
		C44.7,28.9,44.6,28.9,44.6,28.9z M46.6,29.8c0-0.1,0-0.2,0-0.3c0-0.1,0-0.2,0-0.3c0-0.1,0-0.2,0-0.3s0-0.2,0-0.3
		c0-0.1,0-0.2,0.1-0.3c0-0.1,0.1-0.2,0.1-0.3c0-0.1,0.1-0.2,0.1-0.2c0-0.1,0.1-0.1,0.1-0.2c0,0,0.1-0.1,0.2-0.1c0.1,0,0.1,0,0.2,0
		c0,0,0,0,0.1,0.1c0,0,0,0,0,0.1c0,0.1,0,0.1,0,0.2c0,0.1-0.1,0.1-0.1,0.2c-0.1,0.2-0.1,0.5-0.2,0.7c0,0.2-0.1,0.5-0.1,0.8
		c0,0.1,0,0.2,0,0.3c0,0.1,0,0.2,0,0.2c0,0,0,0,0,0.1c0,0,0,0,0,0.1c0.1,0,0.2,0,0.3,0c0.1,0,0.2,0,0.2,0.1c0.1,0,0.1,0.1,0.1,0.1
		s0,0.1,0,0.1c0,0.1,0,0.3-0.1,0.4s-0.2,0.2-0.3,0.3c-0.1,0.1-0.2,0.2-0.3,0.3c-0.1,0.1-0.2,0.2-0.3,0.3c0,0-0.1,0.1-0.1,0.1
		c0,0.1,0,0.1,0,0.2c0.1,0,0.1,0,0.2,0s0.2,0,0.3,0c0.1,0,0.2,0,0.3,0c0.1,0,0.2,0,0.2,0c0.1,0,0.2,0,0.3,0.1c0.1,0,0.1,0.1,0.1,0.3
		c0,0.1,0,0.1,0,0.2c0,0.1-0.1,0.1-0.1,0.2c-0.1,0.1-0.1,0.1-0.2,0.2c-0.1,0.1-0.1,0.1-0.2,0.2c0,0-0.1,0.1-0.3,0.2
		c-0.1,0.1-0.3,0.2-0.4,0.3s-0.3,0.2-0.4,0.3c-0.1,0.1-0.2,0.2-0.3,0.2c0.1,0,0.2,0,0.4,0c0.2,0,0.4,0,0.6-0.1
		c0.2,0,0.3-0.1,0.5-0.1c0.1,0,0.1,0,0.2,0c0.1,0,0.1,0,0.1,0.1c0,0,0,0.1,0,0.1c0,0,0,0.1-0.1,0.1c0,0-0.1,0-0.1,0.1
		c0,0-0.1,0-0.1,0c-0.2,0.1-0.4,0.1-0.6,0.2c-0.2,0.1-0.4,0.1-0.7,0.1c-0.1,0-0.2,0-0.2,0c-0.1,0-0.1,0-0.2-0.1c0,0-0.1,0-0.1-0.1
		c0-0.1-0.1-0.1-0.1-0.2c0-0.1,0-0.2,0.1-0.2c0.1-0.1,0.1-0.1,0.2-0.2s0.2-0.1,0.3-0.2c0.1-0.1,0.2-0.1,0.2-0.2
		c0.2-0.1,0.4-0.3,0.6-0.5c0.2-0.2,0.4-0.3,0.5-0.5h-0.9c-0.1,0-0.2,0-0.3,0c-0.1,0-0.1,0-0.2,0c-0.1,0-0.1-0.1-0.1-0.1
		c0-0.1-0.1-0.1-0.1-0.2c0-0.1,0-0.2,0.1-0.4s0.2-0.2,0.3-0.3c0.1-0.1,0.2-0.2,0.3-0.3c0.1-0.1,0.2-0.2,0.3-0.3c0,0,0,0,0.1-0.1
		s0-0.1,0-0.1c0,0,0,0,0,0c0,0,0,0-0.1,0c-0.1,0-0.2,0-0.3,0s-0.2,0-0.3,0.1c-0.1,0-0.2,0.1-0.3,0.1c-0.1,0-0.2,0.1-0.3,0.2
		c0,0,0,0-0.1,0s-0.1,0-0.1,0.1s-0.1,0.1-0.1,0.1s-0.1,0-0.1,0.1c0,0-0.1,0-0.1,0c0,0-0.1,0-0.1-0.1c0,0,0-0.1-0.1-0.1
		c0,0,0-0.1,0-0.1c0-0.1,0.1-0.1,0.1-0.2c0.1-0.1,0.1-0.1,0.2-0.1c0.2-0.1,0.4-0.2,0.6-0.3c0.2-0.1,0.4-0.1,0.7-0.2c0,0,0-0.1,0-0.2
		C46.6,29.9,46.6,29.8,46.6,29.8z"/>
	<path d="M51.5,31.4c0,0-0.1,0-0.1,0c0,0,0-0.1,0-0.2c0-0.1,0-0.2,0.1-0.4c0-0.1,0.1-0.3,0.1-0.4s0.1-0.3,0.2-0.4s0.1-0.3,0.1-0.3
		c0,0,0-0.1,0-0.1c0,0,0-0.1,0-0.1c0,0,0-0.1,0-0.1c0,0-0.1,0-0.2,0c-0.1,0-0.2,0-0.3,0c-0.1,0-0.2,0-0.3,0.1c-0.1,0-0.1,0-0.2,0.1
		c-0.1,0-0.1,0-0.2,0.1c-0.1,0-0.2,0-0.2,0c-0.1,0-0.1-0.1-0.1-0.1c0,0,0-0.1,0-0.1s0-0.1,0.1-0.1c0.2-0.1,0.5-0.2,0.7-0.2
		c0.2,0,0.5,0,0.6,0c0.1,0,0.3,0,0.4,0.1c0.1,0,0.2,0.1,0.2,0.3c0,0.1,0,0.1,0,0.3s0,0.2-0.1,0.3c0,0,0,0.1-0.1,0.2
		c0,0.1,0,0.1-0.1,0.2c0,0.1-0.1,0.1-0.1,0.2c0,0.1-0.1,0.1-0.1,0.2c0,0,0,0.1,0,0.1s0,0.1-0.1,0.2s0,0.1-0.1,0.2
		c0,0.1,0,0.1-0.1,0.1c0,0.1-0.1,0.1-0.1,0.2C51.7,31.4,51.6,31.4,51.5,31.4z M52.6,31.9c0-0.1,0-0.1,0.1-0.2
		c0.1-0.1,0.1-0.1,0.2-0.2c0.1,0,0.2-0.1,0.3-0.1s0.2-0.1,0.2-0.1c0.2-0.1,0.4-0.1,0.6-0.2c0.2,0,0.4,0,0.6,0c0,0,0.1,0,0.2,0
		s0.1,0,0.2,0s0.1,0,0.2,0.1c0.1,0,0.1,0.1,0.1,0.1c0,0,0,0.1-0.1,0.1c-0.1,0-0.1,0-0.2,0c-0.1,0-0.3,0-0.4,0c-0.1,0-0.2,0-0.2,0
		c-0.1,0-0.2,0-0.3,0c-0.1,0-0.2,0-0.2,0.1c-0.1,0-0.1,0-0.2,0.1c-0.1,0-0.2,0.1-0.2,0.1c-0.1,0-0.1,0-0.1,0.1c0,0-0.1,0-0.1,0.1
		c0,0-0.1,0.1-0.1,0.1c0,0-0.1,0.1-0.2,0.1c-0.1,0-0.2,0-0.2,0S52.6,32,52.6,31.9z M52.9,34c0-0.1,0-0.2,0-0.3s0-0.2,0.1-0.4
		c0-0.1,0.1-0.3,0.1-0.4c0-0.1,0.1-0.2,0.1-0.3c0,0,0-0.1,0-0.2c0-0.1,0-0.1,0.1-0.2c0-0.1,0.1-0.1,0.1-0.2c0,0,0.1-0.1,0.2-0.1
		c0.1,0,0.1,0,0.2,0c0,0,0.1,0.1,0.1,0.1c0,0.1,0,0.1-0.1,0.2c0,0.1-0.1,0.2-0.1,0.3c0.1,0,0.2,0,0.2,0s0.1,0,0.2,0
		c0.1,0,0.2,0,0.3,0c0.1,0,0.2,0,0.3,0c0.1,0,0.2,0,0.3,0c0.1,0,0.2,0,0.3,0c0.2,0,0.3,0,0.3,0.1c0,0.1,0,0.1-0.1,0.2
		c-0.1,0-0.1,0.1-0.2,0.1c0,0-0.1,0-0.2,0c-0.1,0-0.2,0-0.3,0c-0.1,0-0.3,0-0.4,0.1c-0.1,0-0.3,0-0.4,0.1c-0.1,0-0.2,0-0.3,0.1
		c-0.1,0-0.2,0-0.2,0c0,0.1-0.1,0.2-0.1,0.4c0,0.1,0,0.2,0,0.3c0,0,0,0.1,0,0.1s0,0.1,0,0.1c0.1,0,0.2,0,0.3,0s0.2,0,0.3-0.1
		s0.2-0.1,0.3-0.1c0.1,0,0.2-0.1,0.3-0.1c0,0,0.1,0,0.1,0s0.1,0,0.1,0c0,0,0,0,0,0.1s0,0.1,0,0.1c0,0.1-0.1,0.1-0.2,0.2
		c-0.1,0.1-0.2,0.1-0.4,0.2c-0.1,0.1-0.3,0.1-0.4,0.1s-0.2,0-0.3,0c-0.2,0-0.3,0-0.4-0.1C52.9,34.3,52.9,34.2,52.9,34z M53.6,30.5
		c0-0.1,0-0.2,0-0.3c0-0.1,0-0.3,0-0.4c0-0.1,0-0.3,0.1-0.4c0-0.1,0-0.2,0.1-0.3c0-0.2,0.1-0.4,0.1-0.6c0-0.2,0.1-0.4,0.1-0.6
		c0,0,0-0.1,0-0.1c0,0,0,0,0,0c0,0,0,0,0,0c0,0,0.1,0,0.1,0s0.1,0,0.1,0s0.1,0,0.1,0.1c0,0,0,0.1,0,0.1c0,0.2-0.1,0.5-0.1,0.7
		c0,0.2-0.1,0.4-0.1,0.7c0.1,0,0.1,0,0.2,0c0.1,0,0.2,0,0.3,0c0.1,0,0.2,0,0.3-0.1c0.1,0,0.2,0,0.4,0c0.1,0,0.2,0,0.3,0
		c0.1,0,0.1,0.1,0.1,0.1c0,0.1,0,0.1-0.1,0.1c-0.1,0-0.1,0-0.2,0c-0.2,0-0.3,0-0.4,0.1c-0.1,0-0.3,0.1-0.4,0.1c0,0-0.1,0-0.2,0
		c-0.1,0-0.1,0-0.2,0.1c-0.1,0-0.1,0.1-0.2,0.1s-0.1,0.1-0.1,0.1c0,0.1,0,0.3,0,0.4c0,0.1,0,0.3,0,0.4c0,0.1-0.1,0.1-0.2,0.1
		c-0.1,0-0.2,0-0.2-0.1C53.6,30.7,53.6,30.6,53.6,30.5z"/>
	<path d="M56,31.4c0-0.1,0-0.2,0-0.3c0-0.1,0.1-0.2,0.1-0.3s0.1-0.2,0.1-0.3c0-0.1,0.1-0.2,0.1-0.2c0.1-0.1,0.1-0.2,0.2-0.3
		s0.1-0.2,0.2-0.2c0-0.1,0.1-0.1,0.2-0.1c0.1,0,0.2,0,0.2,0.1c0,0,0.1,0.1,0,0.2c0,0.1,0,0.1-0.1,0.2c0,0,0.1,0,0.1,0.1
		c0,0,0.1,0.1,0.1,0.1c0,0.1,0.1,0.1,0.1,0.2c0,0.1,0,0.2,0,0.3c0,0.2-0.1,0.3-0.1,0.4c-0.1,0.1-0.2,0.2-0.3,0.3
		c-0.1,0.1-0.2,0.1-0.3,0.2c-0.1,0.1-0.2,0.1-0.4,0.1c-0.1,0-0.1,0-0.2-0.1C56.1,31.6,56,31.5,56,31.4z M57,30.4
		c0,0-0.1,0.1-0.1,0.1c-0.1,0.1-0.1,0.2-0.2,0.3c-0.1,0.1-0.1,0.2-0.1,0.3s-0.1,0.2-0.1,0.2c0,0,0.1,0,0.1,0c0.1,0,0.1,0,0.2-0.1
		c0.1,0,0.1-0.1,0.2-0.2c0.1-0.1,0.1-0.2,0.1-0.3c0-0.1,0-0.2,0-0.2C57.1,30.4,57,30.4,57,30.4z M58.7,31.6c0-0.1-0.1-0.2-0.1-0.2
		c0-0.1,0-0.2,0.1-0.2c0,0,0.1-0.1,0.1-0.1c0-0.1,0-0.2,0.1-0.3s0.1-0.3,0.1-0.5c0-0.2,0.1-0.3,0.1-0.5c0-0.2,0-0.3,0.1-0.3
		c0-0.2,0.1-0.4,0.1-0.5c0-0.2,0.1-0.3,0.1-0.5c0,0,0-0.1,0.1-0.1c0.1,0,0.1,0,0.1,0c0.1,0,0.1,0,0.2,0.1s0.1,0.1,0.1,0.2
		c0,0,0,0.1,0,0.1c0,0,0,0.1,0,0.1c-0.1,0.3-0.2,0.6-0.2,0.9c-0.1,0.3-0.1,0.6-0.2,0.9c0,0.1,0,0.1,0,0.2c0,0.1,0,0.1,0,0.2
		c0.1,0,0.2-0.1,0.3-0.1c0.1,0,0.2,0,0.3-0.1c0.1,0,0.1,0,0.2,0s0.1,0,0.2,0c0.1,0,0.1,0,0.2,0c0.1,0,0.1,0,0.1,0c0,0,0,0,0,0
		c0,0,0,0.1,0,0.1s0,0.1,0,0.1c0,0,0,0.1-0.1,0.1c0,0-0.1,0-0.2,0c-0.1,0-0.1,0-0.2,0.1c0,0-0.1,0-0.2,0.1c-0.1,0-0.2,0-0.2,0.1
		c-0.1,0-0.1,0-0.2,0.1c-0.1,0-0.1,0-0.2,0.1s-0.1,0.1-0.2,0.1s-0.1,0.1-0.1,0.2v0.9c0,0,0,0.1-0.1,0.1c0,0-0.1,0-0.1,0
		c-0.1,0-0.1,0-0.2,0c0,0-0.1-0.1-0.1-0.1s0-0.1,0-0.1c0-0.1,0-0.1,0-0.2V31.6z"/>
	<path d="M60.9,33c0,0,0-0.1,0-0.1c0,0,0-0.1,0.1-0.1c0,0,0.1,0,0.2-0.1c0.1,0,0.1,0,0.2-0.1c0.2-0.1,0.3-0.2,0.5-0.3
		c0.2-0.1,0.3-0.3,0.4-0.4c0.1-0.2,0.2-0.4,0.2-0.6c0.1-0.2,0.1-0.4,0.2-0.6c0-0.1,0.1-0.2,0.1-0.3c0-0.1,0.1-0.2,0.1-0.3
		c0,0,0-0.1,0-0.2c0-0.1,0-0.1,0-0.2c0-0.1,0-0.1,0.1-0.1c0,0,0.1-0.1,0.1-0.1c0.1,0,0.1,0,0.1,0.1c0,0,0,0.1,0,0.2
		c0,0.1,0,0.2,0,0.2s0,0.1-0.1,0.2c0,0.1-0.1,0.2-0.1,0.4c0,0.1-0.1,0.2-0.1,0.3s-0.1,0.2-0.1,0.3c0,0.1-0.1,0.2-0.1,0.4
		c0,0.1,0,0.1-0.1,0.2c0,0.1,0,0.1-0.1,0.2c0,0.1-0.1,0.1-0.1,0.2c0,0.1-0.1,0.1-0.1,0.2c0,0.1-0.1,0.1-0.2,0.2s-0.1,0.1-0.2,0.2
		c0.1,0,0.2,0,0.4,0c0.1,0,0.3,0,0.6,0c0.1,0,0.1,0,0.2,0c0.1,0,0.1,0,0.2,0c0.1,0,0.1,0,0.2,0c0.1,0,0.1,0,0.2,0c0,0,0.1,0,0.1,0.1
		s0,0.1,0,0.1c0,0.1-0.1,0.1-0.2,0.1c-0.1,0-0.3,0-0.5,0c-0.2,0-0.4,0-0.5,0c-0.1,0-0.3,0-0.4,0c-0.1,0-0.3,0-0.5,0
		c-0.1,0-0.3,0-0.4,0.1c-0.1,0-0.3,0-0.4,0c-0.1,0-0.1,0-0.2,0C60.9,33.2,60.9,33.1,60.9,33z M61.1,31.7c0-0.2,0-0.4,0.1-0.5
		c0.1-0.2,0.1-0.4,0.2-0.5c0,0,0-0.1,0.1-0.1s0.1-0.1,0.1-0.1c0.1,0,0.1,0,0.2,0.1c0.1,0,0.1,0.1,0.1,0.1c0,0.1,0,0.2-0.1,0.3
		c0,0.1-0.1,0.2-0.1,0.3c0,0.1-0.1,0.2-0.1,0.3c0,0.1-0.1,0.2-0.1,0.3c0,0.1,0,0.1,0,0.2c0,0,0,0.1,0,0.1c0,0,0,0.1,0,0.1
		c0,0,0,0-0.1,0c-0.1,0-0.1,0-0.2-0.1s-0.1-0.1-0.1-0.1c0-0.1,0-0.1,0-0.2C61.1,31.8,61.1,31.7,61.1,31.7z M61.2,29.6
		c0-0.1,0-0.2,0.1-0.4c0-0.1,0.1-0.2,0.2-0.3c0.1-0.1,0.1-0.2,0.2-0.3s0.1-0.1,0.2-0.2c0,0,0.1,0,0.1,0s0.1,0,0.1,0c0,0,0,0,0.1,0
		c0,0,0.1,0,0.1,0c0.1,0,0.2,0.1,0.3,0.2c0.1,0.1,0.1,0.2,0.1,0.3c0,0.1,0,0.2-0.1,0.4c0,0.1-0.1,0.2-0.2,0.3
		c-0.1,0.1-0.2,0.2-0.3,0.3s-0.3,0.1-0.4,0.1c-0.1,0-0.2,0-0.3-0.1C61.3,29.7,61.2,29.7,61.2,29.6z M62.2,28.7c0,0-0.1,0.1-0.2,0.1
		c-0.1,0.1-0.1,0.1-0.2,0.2c0,0.1-0.1,0.2-0.1,0.3c0,0.1,0,0.2,0,0.2c0.1,0,0.1,0,0.2-0.1c0.1,0,0.1-0.1,0.2-0.2s0.1-0.1,0.1-0.2
		c0-0.1,0.1-0.2,0.1-0.2C62.2,28.8,62.2,28.7,62.2,28.7z"/>
	<path d="M64.7,33.1c0-0.1,0-0.1,0-0.2s0.1-0.1,0.2-0.1c0.1,0,0.2,0,0.3,0.1c0.1,0.1,0.1,0.2,0.2,0.3c0,0.1,0,0.2,0,0.3
		c0,0.1-0.1,0.1-0.2,0.1c-0.1,0-0.3,0-0.3-0.1S64.7,33.2,64.7,33.1z M65,31.6c0-0.1,0-0.1,0-0.2c0-0.1,0-0.1,0-0.2
		c0-0.1,0-0.2,0-0.3c0-0.1,0-0.3,0-0.4c0-0.1,0-0.3,0.1-0.4c0-0.2,0.1-0.3,0.1-0.5c0-0.2,0-0.3,0.1-0.5c0-0.2,0-0.4,0.1-0.5
		c0,0,0-0.1,0-0.2c0-0.1,0-0.1,0-0.2s0-0.1,0.1-0.2c0,0,0.1-0.1,0.1-0.1c0.1,0,0.2,0,0.2,0.1c0,0.1,0.1,0.1,0.1,0.2
		c0,0.2,0,0.5,0,0.7c0,0.3-0.1,0.5-0.1,0.8c0,0.1,0,0.1,0,0.2s0,0.1,0,0.2s0,0.1,0,0.2c0,0.1,0,0.1,0,0.2c0,0,0,0,0,0.1s0,0.1,0,0.2
		c0,0.1,0,0.1,0,0.2c0,0.1,0,0.1,0,0.1c0,0.1,0,0.1,0,0.2c0,0.1,0,0.1,0,0.2s0,0.1-0.1,0.2c0,0-0.1,0.1-0.1,0.1c0,0-0.1,0-0.1,0
		C65,31.7,65,31.7,65,31.6z"/>
</g>
<g class="st1">
	<path d="M11.3,41.4c0,0,0-0.1,0-0.1c0,0,0-0.1,0-0.1c0,0,0,0,0.1-0.1c0,0,0.1-0.1,0.1-0.1c0,0,0.1-0.1,0.1-0.1c0,0,0.1,0,0.1-0.1
		c0,0,0.1-0.1,0.2-0.1c0,0,0.1,0,0.1-0.1c0.1-0.2,0.1-0.4,0.2-0.5c0-0.2,0.1-0.4,0.1-0.6c0-0.1,0-0.1,0-0.2c0,0-0.1-0.1-0.2-0.1
		c-0.1,0-0.1,0-0.2,0s-0.1,0-0.2,0c-0.1,0-0.1,0.1-0.2,0.1s-0.1,0.1-0.1,0.1c-0.1,0.2-0.1,0.3-0.1,0.5s0,0.4,0,0.6c0,0,0,0.1,0,0.1
		c0,0-0.1,0-0.2,0c-0.1,0-0.1,0-0.2-0.1c0-0.1,0-0.1,0-0.2c0-0.2,0-0.3,0-0.4c0-0.1,0-0.3,0-0.4c0-0.2,0-0.3,0.1-0.4
		c0-0.1,0.1-0.3,0.1-0.4c0-0.1,0-0.1,0.1-0.2c0,0,0.1-0.1,0.2-0.1c0.1,0,0.1,0,0.2,0c0.1,0,0.1,0.1,0.1,0.2c0,0.1,0,0.1-0.1,0.2
		c0,0,0,0.1,0,0.2c0.2-0.1,0.4-0.2,0.7-0.2c0.2,0,0.3,0,0.4,0.1c0.1,0.1,0.2,0.2,0.2,0.3c0,0.2,0,0.4,0,0.6s-0.1,0.4-0.2,0.6
		c0.1,0,0.2-0.1,0.3-0.1s0.2-0.1,0.3-0.1c0,0,0.1,0,0.1,0s0.1,0,0.1,0.1c0,0,0,0.1,0,0.1c0,0,0,0.1-0.1,0.1c0,0,0,0-0.1,0
		c0,0-0.1,0-0.1,0c-0.1,0.1-0.3,0.1-0.5,0.2c-0.2,0.1-0.4,0.2-0.7,0.3c-0.1,0-0.2,0.1-0.2,0.2c-0.1,0.1-0.1,0.1-0.2,0.1
		c0,0,0,0-0.1,0S11.3,41.5,11.3,41.4z M12.9,42.9c0-0.1,0-0.2,0-0.3c0-0.1,0.1-0.2,0.1-0.3c0.1-0.1,0.1-0.2,0.2-0.3
		c0.1-0.1,0.1-0.2,0.2-0.3c0,0,0.1-0.1,0.1-0.1c0.1,0,0.1,0,0.2,0.1c0,0,0.1,0.1,0.1,0.2s0,0.1-0.1,0.2c-0.1,0.1-0.1,0.2-0.2,0.2
		c0,0.1-0.1,0.2-0.1,0.3s-0.1,0.2-0.1,0.3c0,0.1,0,0.1,0,0.1c0,0,0,0,0.1,0c0.1,0,0.3,0,0.5-0.1c0.2-0.1,0.4-0.1,0.6-0.2
		c0.2-0.1,0.4-0.1,0.6-0.2c0.2-0.1,0.4-0.1,0.5-0.1h0.1c0,0,0.1,0,0.1,0.1c0,0.1,0,0.1,0,0.1c-0.1,0-0.2,0.1-0.3,0.1
		c-0.1,0-0.3,0.1-0.4,0.1c-0.1,0-0.3,0.1-0.4,0.1c-0.1,0-0.2,0.1-0.3,0.1c-0.2,0.1-0.4,0.1-0.6,0.2c-0.2,0.1-0.4,0.1-0.6,0.1
		c-0.1,0-0.1,0-0.2,0c-0.1,0-0.1-0.1-0.2-0.1C12.9,43.3,12.9,43.1,12.9,42.9z M14.2,41.7c0-0.1,0-0.2,0-0.3c0-0.1,0-0.3,0-0.4
		s0-0.3,0-0.5c0-0.2,0-0.3,0-0.5c0-0.1,0-0.3,0-0.4c0-0.1,0-0.2,0-0.3c0-0.2,0.1-0.4,0.1-0.6c0-0.2,0.1-0.4,0.1-0.6
		c0,0,0-0.1,0.1-0.1c0,0,0,0,0,0c0,0,0.1,0,0.1,0c0,0,0.1,0,0.1,0s0.1,0,0.1,0.1c0,0,0,0.1,0,0.1c0,0.1,0,0.3-0.1,0.4
		c0,0.2-0.1,0.3-0.1,0.5c0,0.2-0.1,0.4-0.1,0.5s0,0.4,0,0.5c0,0,0.1,0,0.1,0c0.1,0,0.1,0,0.2,0c0.1,0,0.1,0,0.2,0c0.1,0,0.1,0,0.1,0
		c0.1,0,0.2,0,0.3-0.1c0.1,0,0.2,0,0.4,0c0.1,0,0.2,0,0.3,0c0.1,0,0.1,0.1,0.1,0.1c0,0.1,0,0.1-0.1,0.1c-0.1,0-0.1,0-0.2,0
		c-0.2,0-0.3,0-0.4,0.1c-0.1,0-0.3,0.1-0.4,0.1c-0.1,0-0.1,0-0.2,0.1s-0.1,0-0.2,0.1c-0.1,0-0.1,0.1-0.2,0.1c0,0-0.1,0.1-0.1,0.1
		c0,0.1,0,0.2,0,0.2c0,0.1,0,0.2,0,0.3c0,0.1,0,0.2,0,0.3s0,0.2,0,0.2c0,0.1-0.1,0.1-0.2,0.1c-0.1,0-0.2,0-0.2-0.1
		C14.2,41.9,14.2,41.8,14.2,41.7z"/>
	<path d="M16.7,40.3c0-0.1,0-0.2,0-0.3c0-0.1,0.1-0.2,0.1-0.3c0-0.1,0.1-0.2,0.1-0.3s0.1-0.2,0.1-0.3c0.1-0.1,0.1-0.2,0.2-0.3
		s0.1-0.2,0.1-0.2c0-0.1,0.1-0.1,0.2-0.1c0.1,0,0.1,0,0.2,0.1c0,0,0,0.1,0,0.1c0,0.1,0,0.1,0,0.2c0,0,0,0.1-0.1,0.1
		c0.1,0,0.1,0.1,0.2,0.2c0.1,0.1,0.1,0.2,0.1,0.4c0,0.1,0,0.2-0.1,0.3c0,0.1-0.1,0.2-0.2,0.4c-0.1,0.1-0.2,0.2-0.3,0.3
		c-0.1,0-0.2,0.1-0.3,0.1c-0.1,0-0.1,0-0.2-0.1C16.7,40.5,16.7,40.4,16.7,40.3z M17.6,39.3c0,0-0.1,0.1-0.1,0.1
		c0,0.1-0.1,0.2-0.1,0.3c0,0.1-0.1,0.2-0.1,0.3c0,0.1-0.1,0.2-0.1,0.2c0.1,0,0.2-0.1,0.3-0.2s0.2-0.3,0.2-0.5
		C17.7,39.5,17.7,39.4,17.6,39.3C17.6,39.3,17.6,39.3,17.6,39.3z M19,44.1c0-0.1,0-0.2,0-0.3c0-0.1,0-0.2,0.1-0.3
		c0-0.1,0.1-0.2,0.1-0.3s0.1-0.2,0.1-0.3c0-0.1,0.1-0.2,0.1-0.2s0-0.1,0.1-0.2c0-0.1,0-0.1,0.1-0.2c0-0.1,0.1-0.2,0.1-0.3
		c0,0,0-0.1,0-0.1c0,0-0.1-0.1-0.2-0.1c-0.2,0-0.4,0-0.5,0.1c-0.1,0-0.3,0.1-0.5,0.2c0,0-0.1,0.1-0.1,0.1c-0.1,0-0.1,0.1-0.2,0.1
		c-0.1,0-0.1,0-0.1-0.1c0-0.1,0-0.1,0-0.2c0-0.1,0-0.1,0.1-0.2c0.1-0.1,0.2-0.1,0.3-0.2c0.1-0.1,0.2-0.1,0.3-0.1
		c0.1,0,0.2-0.1,0.2-0.1c0.2,0,0.3-0.1,0.4-0.1c0.1,0,0.3,0,0.4,0c0.2,0,0.3,0.1,0.3,0.3c0,0.2,0,0.4-0.1,0.5
		c-0.1,0.2-0.1,0.3-0.2,0.5c0,0.1,0,0.1-0.1,0.2c0,0.1-0.1,0.2-0.1,0.3c0,0.1-0.1,0.2-0.1,0.2c0,0.1,0,0.1-0.1,0.2c0,0,0,0.1,0,0.1
		c0,0,0,0.1,0,0.1c0,0,0,0.1,0,0.1c0,0,0,0.1,0,0.1c0,0,0,0,0,0.1c0,0,0,0.1,0,0.1s0,0.1,0,0.1s0,0-0.1,0c-0.1,0-0.1,0-0.2-0.1
		C19,44.3,19,44.2,19,44.1z M19.4,40.4c0-0.2,0-0.3,0-0.5c0-0.1,0-0.3,0-0.4s0-0.3,0.1-0.5c0-0.2,0.1-0.4,0.1-0.6
		c0-0.1,0-0.2,0.1-0.3c0-0.1,0-0.2,0.1-0.3c0-0.1,0.1-0.1,0.2-0.1c0.1,0,0.1,0,0.2,0.1c0,0,0.1,0.1,0,0.1v0c0,0.1,0,0.2-0.1,0.3
		c0,0.1,0,0.2-0.1,0.3c0,0.1,0,0.2-0.1,0.3c0,0.1,0,0.2-0.1,0.3c0,0,0,0.1,0,0.2c0,0.1,0,0.2,0,0.3c0,0.1,0,0.2,0,0.4s0,0.3,0,0.4
		c0.2-0.1,0.4-0.2,0.6-0.3c0.2-0.1,0.4-0.1,0.7-0.1c0.1,0,0.2,0,0.3,0c0.1,0,0.2,0,0.2,0c0,0,0.1,0,0.1,0s0.1,0.1,0.1,0.1
		c0,0.1,0,0.1-0.1,0.1c0,0-0.1,0-0.1,0c-0.1,0-0.2,0-0.3,0s-0.2,0-0.3,0c-0.4,0.1-0.7,0.2-1,0.4c0,0-0.1,0.1-0.1,0.1
		c0,0-0.1,0.1-0.1,0.1c0,0,0,0-0.1,0.1c0,0,0,0.1,0,0.1s0,0-0.1,0.1c0,0,0,0-0.1,0c-0.1,0-0.1,0-0.2,0s-0.1-0.1-0.1-0.2
		c0,0,0-0.1,0-0.2S19.4,40.5,19.4,40.4z M20.2,39.1c0-0.1,0.1-0.2,0.2-0.2c0.1-0.1,0.2-0.1,0.3-0.2s0.2-0.1,0.3-0.2
		c0.1,0,0.2-0.1,0.3-0.1c0.1,0,0.2,0,0.4-0.1c0.1,0,0.2,0,0.3,0c0.1,0,0.1,0,0.1,0.1s0,0.1,0,0.1c0,0,0,0.1,0,0.1c0,0-0.1,0-0.1,0
		c-0.1,0-0.3,0-0.4,0s-0.3,0.1-0.4,0.1c-0.1,0-0.2,0.1-0.3,0.1c-0.1,0.1-0.2,0.1-0.2,0.2c0,0-0.1,0.1-0.1,0.1c0,0-0.1,0.1-0.2,0.1
		c0,0-0.1,0-0.1-0.1S20.2,39.1,20.2,39.1z"/>
	<path d="M24.2,41.7c0-0.1,0-0.2,0-0.3c0-0.1,0.1-0.2,0.1-0.3s0.1-0.2,0.1-0.3c0-0.1,0.1-0.2,0.1-0.2c0.1-0.1,0.1-0.2,0.2-0.3
		c0.1-0.1,0.1-0.2,0.2-0.2c0-0.1,0.1-0.1,0.2-0.1c0.1,0,0.2,0,0.2,0.1c0,0,0.1,0.1,0,0.2c0,0.1,0,0.1-0.1,0.2c0,0,0.1,0,0.1,0.1
		c0,0,0.1,0.1,0.1,0.1c0,0.1,0.1,0.1,0.1,0.2c0,0.1,0,0.2,0,0.3c0,0.2-0.1,0.3-0.1,0.4c-0.1,0.1-0.2,0.2-0.3,0.3
		c-0.1,0.1-0.2,0.1-0.3,0.2C24.8,42,24.7,42,24.6,42c-0.1,0-0.1,0-0.2-0.1C24.2,41.9,24.2,41.8,24.2,41.7z M25.1,40.7
		c0,0-0.1,0.1-0.1,0.1c-0.1,0.1-0.1,0.2-0.2,0.3s-0.1,0.2-0.1,0.3s-0.1,0.2-0.1,0.2c0,0,0.1,0,0.1,0c0.1,0,0.1,0,0.2-0.1
		s0.1-0.1,0.2-0.2s0.1-0.2,0.1-0.3c0-0.1,0-0.2,0-0.2C25.2,40.7,25.2,40.7,25.1,40.7z M27,42c0-0.1,0-0.2,0-0.3c0-0.1,0-0.2,0-0.3
		c0-0.2,0-0.5,0.1-0.7s0.1-0.4,0.1-0.7c0-0.1,0-0.1,0-0.2c0-0.1,0-0.2,0.1-0.2s0.1-0.1,0.1-0.2s0.1-0.1,0.1-0.1s0.1,0,0.2,0.1
		c0.1,0,0.1,0.1,0.1,0.1c0,0.1,0,0.2-0.1,0.3c0,0.1,0,0.2-0.1,0.2c-0.1,0.3-0.1,0.5-0.1,0.7c0,0.2-0.1,0.3-0.1,0.4s0,0.2,0,0.2
		s0,0.1,0,0.1c0,0.2,0,0.3-0.1,0.5c0,0.2,0,0.3,0,0.5c0,0,0,0.1-0.1,0.1c0,0-0.1,0-0.1,0c-0.1,0-0.1,0-0.1-0.1S27,42.1,27,42z"/>
	<path d="M30.2,40.3c0,0.1-0.1,0.2-0.1,0.3c0,0.1-0.1,0.2-0.1,0.3c0,0.1-0.1,0.2-0.1,0.3c0,0.1-0.1,0.2-0.2,0.2
		c-0.1,0-0.1,0-0.2-0.1c0,0,0-0.1,0-0.2c0-0.1,0-0.2,0.1-0.3s0.1-0.2,0.1-0.3c0-0.1,0.1-0.2,0.1-0.3c0-0.1,0.1-0.2,0.1-0.3
		c0-0.1,0-0.2,0-0.3s0-0.2,0-0.3c0-0.1-0.1-0.2-0.2-0.2c-0.1,0-0.2,0-0.4,0.1c-0.1,0-0.2,0.1-0.3,0.1c-0.1,0-0.1,0.1-0.2,0.1
		s-0.1,0-0.2,0.1c-0.1,0-0.1,0-0.2,0s-0.1-0.1-0.1-0.2c0-0.1,0-0.1,0.1-0.2c0.1-0.1,0.2-0.1,0.3-0.1c0.1,0,0.2-0.1,0.3-0.1
		c0.1,0,0.2-0.1,0.3-0.1c0.1,0,0.2,0,0.3,0c0.1,0,0.1,0,0.2,0c0.2,0,0.3,0.1,0.3,0.1c0.1,0.1,0.1,0.1,0.2,0.2c0,0,0,0.1,0,0.1
		c0,0.1,0,0.1,0,0.1c0,0.2,0,0.4,0,0.5C30.3,39.9,30.2,40.1,30.2,40.3z M31.3,42.3c-0.1,0-0.1,0.1-0.2,0.2c-0.1,0.1-0.2,0.1-0.2,0.2
		c0,0-0.1,0-0.1,0.1s0,0.1-0.1,0.1c0,0-0.1,0-0.1,0.1s-0.1,0-0.1,0c-0.1,0-0.1,0-0.1,0c0,0,0-0.1,0-0.1c0,0,0-0.1,0-0.1
		c0,0,0-0.1,0.1-0.1c0.1-0.1,0.2-0.2,0.4-0.4c0.1-0.1,0.3-0.2,0.4-0.3s0.3-0.2,0.4-0.3s0.3-0.2,0.4-0.3c0.1-0.1,0.1-0.1,0.2-0.2
		c0.1-0.1,0.2-0.1,0.3-0.1c0,0,0.1,0,0.1,0s0,0.1,0.1,0.1c0,0,0,0.1,0,0.1s0,0.1-0.1,0.1c-0.2,0.1-0.3,0.3-0.5,0.4s-0.3,0.2-0.5,0.4
		c0.1,0.1,0.1,0.2,0.2,0.3c0.1,0.1,0.2,0.2,0.3,0.3s0.3,0.2,0.4,0.3c0.1,0.1,0.2,0.2,0.4,0.3c0.1,0.1,0.3,0.2,0.4,0.3
		s0.2,0.2,0.4,0.3c0,0,0.1,0,0.1,0.1c0.1,0,0.1,0.1,0.2,0.1s0.1,0.1,0.2,0.1c0,0,0.1,0.1,0.1,0.1c0,0.1,0,0.1-0.1,0.1
		c-0.1,0-0.2,0-0.3-0.1s-0.2-0.1-0.4-0.2s-0.2-0.2-0.4-0.2c-0.1-0.1-0.2-0.2-0.3-0.2c0,0-0.1-0.1-0.2-0.1s-0.2-0.1-0.3-0.2
		c-0.1-0.1-0.2-0.1-0.3-0.2c-0.1-0.1-0.1-0.1-0.2-0.1c0,0-0.1-0.1-0.1-0.1c-0.1-0.1-0.1-0.1-0.2-0.2c-0.1-0.1-0.1-0.1-0.2-0.1
		C31.4,42.4,31.3,42.4,31.3,42.3z M32.7,39.5c-0.1,0-0.2,0.1-0.3,0.1c-0.1,0-0.2,0.1-0.4,0.1c0,0,0,0-0.1,0s-0.1,0-0.2,0.1
		c-0.1,0-0.1,0.1-0.2,0.1c-0.1,0-0.1,0-0.2,0.1c-0.1,0-0.2,0.1-0.3,0.1s-0.2,0.1-0.3,0.1c-0.1,0-0.1,0-0.2,0s-0.1-0.1-0.1-0.2
		c0-0.1,0-0.1,0.1-0.1c0.1,0,0.1-0.1,0.2-0.1c0,0,0,0,0.1,0c0.1,0,0.1,0,0.2-0.1s0.1,0,0.1-0.1c0,0,0.1,0,0.1,0
		c0.1,0,0.2-0.1,0.3-0.1c0.1,0,0.1,0,0.2-0.1c0.1,0,0.2-0.1,0.3-0.1c0.1,0,0.2-0.1,0.3-0.1c0.1,0,0.2-0.1,0.3-0.1
		c0.1,0,0.1-0.1,0.1-0.1c0,0,0-0.1,0-0.1c0-0.1,0-0.1,0-0.2c0-0.1,0-0.1,0-0.2c0-0.1,0-0.1,0-0.1c0-0.1,0.1-0.1,0.1-0.1
		c0,0,0.1-0.1,0.2-0.1c0.1,0,0.2,0.1,0.2,0.2c0,0.1,0,0.1,0,0.2c0,0.1,0,0.1-0.1,0.2s-0.1,0.1-0.1,0.2c0,0.1-0.1,0.1-0.1,0.2
		c0,0.2-0.1,0.4-0.1,0.6S33,40.1,33,40.2c0,0,0,0.1,0,0.1c0,0,0,0.1,0,0.1c0,0,0,0.1-0.1,0.1c0,0-0.1,0-0.1,0s-0.1,0-0.1,0
		c0,0,0-0.1-0.1-0.1c0,0,0-0.1,0-0.1c0-0.1,0-0.1,0-0.1c0-0.1,0-0.2,0-0.3S32.7,39.6,32.7,39.5z"/>
	<path d="M34.9,42.1c0,0,0,0.1-0.1,0.2c0,0.1-0.1,0.1-0.1,0.3c0,0-0.1,0.1-0.1,0.1c0,0-0.1,0-0.2,0c0,0,0,0-0.1,0s0-0.1,0-0.1
		c0,0,0-0.1,0-0.1s0-0.1,0-0.1c0,0,0,0,0-0.1c0,0,0.1-0.1,0.1-0.1c0-0.1,0.1-0.1,0.1-0.2s0-0.1,0.1-0.1c0.1-0.1,0.1-0.2,0.2-0.4
		c0.1-0.1,0.1-0.3,0.2-0.4c0-0.1,0.1-0.2,0.1-0.3c0.1-0.1,0.1-0.3,0.2-0.4c0-0.1,0.1-0.3,0.1-0.4c0-0.1,0.1-0.3,0.1-0.4
		c-0.1,0-0.3,0.1-0.4,0.2c0,0-0.1,0.1-0.1,0.1c-0.1,0-0.1,0.1-0.2,0.2c0,0-0.1,0.1-0.1,0.1c0,0-0.1,0-0.1,0c-0.1,0-0.1,0-0.1-0.1
		c0-0.1,0-0.1,0-0.1c0-0.1,0-0.1,0.1-0.1c0,0,0.1-0.1,0.1-0.1c0.1-0.1,0.2-0.2,0.3-0.3s0.3-0.1,0.4-0.2c0,0,0.1,0,0.2,0s0.1,0,0.2,0
		c0.1,0,0.2,0.1,0.3,0.2c0,0.1,0,0.2,0,0.3c0,0.1,0,0.2-0.1,0.4c0,0.1-0.1,0.3-0.1,0.4c0,0.1-0.1,0.3-0.2,0.4
		c-0.1,0.1-0.1,0.3-0.2,0.4c0,0.1-0.1,0.1-0.1,0.2c0,0.1-0.1,0.2-0.1,0.2c0,0,0.1,0.1,0.2,0.1c0.1,0,0.2,0.1,0.3,0.1
		s0.2,0.1,0.4,0.1c0.1,0,0.2,0.1,0.3,0.1c0,0,0,0,0.1,0c0,0,0.1,0,0.1,0c0,0,0.1,0,0.1,0c0,0,0.1,0,0.1,0c0.2,0,0.2,0.1,0.2,0.3
		c0,0.1-0.1,0.1-0.2,0.1c0,0-0.1,0-0.1,0s-0.1,0-0.1,0c-0.1,0-0.1,0-0.3-0.1c-0.1,0-0.2-0.1-0.4-0.1c-0.1,0-0.3-0.1-0.4-0.1
		c-0.1,0-0.2-0.1-0.2-0.1c0,0-0.1,0-0.1,0c0,0,0,0-0.1,0c0,0,0,0-0.1,0c0,0,0,0,0,0.1C34.9,42,34.9,42,34.9,42.1z M37.8,42
		c0,0,0-0.1,0-0.2c0-0.1,0-0.2,0-0.3s0-0.2,0-0.3c0-0.1,0-0.2,0-0.2c0-0.1,0-0.2,0-0.3c0-0.1,0-0.2,0-0.3c0,0-0.1,0.1-0.2,0.1
		c-0.1,0.1-0.2,0.1-0.2,0.2c-0.2,0.1-0.4,0.2-0.5,0.3c-0.2,0.1-0.4,0.1-0.7,0.2c-0.1,0-0.1,0-0.1-0.1c0,0-0.1-0.1-0.1-0.1
		s0-0.1,0-0.1c0,0,0.1-0.1,0.1-0.1c0.1,0,0.1,0,0.2,0c0.1,0,0.2,0,0.2-0.1c0.3-0.1,0.5-0.2,0.7-0.4c0.2-0.2,0.4-0.3,0.6-0.5
		c0,0,0.1-0.1,0.1-0.1c0-0.1,0-0.1,0.1-0.1c0,0,0-0.1,0.1-0.1c0,0,0.1,0,0.2,0c0.1,0,0.2,0.1,0.2,0.2c0,0.1,0,0.1,0,0.2
		c0,0,0,0.1-0.1,0.2c-0.1,0.1-0.1,0.3-0.1,0.5c0,0.2-0.1,0.3-0.1,0.5c0,0.1,0,0.1,0,0.2c0,0.1,0,0.2,0,0.2c0,0.1,0,0.2,0,0.2
		c0,0.1,0,0.1,0,0.2c0,0.1,0,0.2,0,0.3c0,0.1-0.1,0.1-0.2,0.1C37.9,42,37.9,42,37.8,42C37.8,42,37.8,42,37.8,42z"/>
	<path d="M40.9,40.3c0,0.1-0.1,0.2-0.1,0.3c0,0.1-0.1,0.2-0.1,0.3c0,0.1-0.1,0.2-0.1,0.3c0,0.1-0.1,0.2-0.2,0.2
		c-0.1,0-0.1,0-0.2-0.1c0,0,0-0.1,0-0.2c0-0.1,0-0.2,0.1-0.3s0.1-0.2,0.1-0.3c0-0.1,0.1-0.2,0.1-0.3c0-0.1,0.1-0.2,0.1-0.3
		c0-0.1,0-0.2,0-0.3s0-0.2,0-0.3c0-0.1-0.1-0.2-0.2-0.2c-0.1,0-0.2,0-0.4,0.1c-0.1,0-0.2,0.1-0.3,0.1c-0.1,0-0.1,0.1-0.2,0.1
		s-0.1,0-0.2,0.1c-0.1,0-0.1,0-0.2,0s-0.1-0.1-0.1-0.2c0-0.1,0-0.1,0.1-0.2c0.1-0.1,0.2-0.1,0.3-0.1c0.1,0,0.2-0.1,0.3-0.1
		c0.1,0,0.2-0.1,0.3-0.1c0.1,0,0.2,0,0.3,0c0.1,0,0.1,0,0.2,0c0.2,0,0.3,0.1,0.3,0.1c0.1,0.1,0.1,0.1,0.2,0.2c0,0,0,0.1,0,0.1
		c0,0.1,0,0.1,0,0.1c0,0.2,0,0.4,0,0.5C41,39.9,41,40.1,40.9,40.3z M42,42.3c-0.1,0-0.1,0.1-0.2,0.2c-0.1,0.1-0.2,0.1-0.2,0.2
		c0,0-0.1,0-0.1,0.1s0,0.1-0.1,0.1c0,0-0.1,0-0.1,0.1s-0.1,0-0.1,0c-0.1,0-0.1,0-0.1,0c0,0,0-0.1,0-0.1c0,0,0-0.1,0-0.1
		c0,0,0-0.1,0.1-0.1c0.1-0.1,0.2-0.2,0.4-0.4c0.1-0.1,0.3-0.2,0.4-0.3s0.3-0.2,0.4-0.3s0.3-0.2,0.4-0.3c0.1-0.1,0.1-0.1,0.2-0.2
		c0.1-0.1,0.2-0.1,0.3-0.1c0,0,0.1,0,0.1,0s0,0.1,0.1,0.1c0,0,0,0.1,0,0.1s0,0.1-0.1,0.1c-0.2,0.1-0.3,0.3-0.5,0.4s-0.3,0.2-0.5,0.4
		c0.1,0.1,0.1,0.2,0.2,0.3c0.1,0.1,0.2,0.2,0.3,0.3s0.3,0.2,0.4,0.3c0.1,0.1,0.2,0.2,0.4,0.3c0.1,0.1,0.3,0.2,0.4,0.3
		s0.2,0.2,0.4,0.3c0,0,0.1,0,0.1,0.1c0.1,0,0.1,0.1,0.2,0.1s0.1,0.1,0.2,0.1c0,0,0.1,0.1,0.1,0.1c0,0.1,0,0.1-0.1,0.1
		c-0.1,0-0.2,0-0.3-0.1s-0.2-0.1-0.4-0.2s-0.2-0.2-0.4-0.2c-0.1-0.1-0.2-0.2-0.3-0.2c0,0-0.1-0.1-0.2-0.1s-0.2-0.1-0.3-0.2
		c-0.1-0.1-0.2-0.1-0.3-0.2c-0.1-0.1-0.1-0.1-0.2-0.1c0,0-0.1-0.1-0.1-0.1c-0.1-0.1-0.1-0.1-0.2-0.2c-0.1-0.1-0.1-0.1-0.2-0.1
		C42.1,42.4,42.1,42.4,42,42.3z M43.5,39.5c-0.1,0-0.2,0.1-0.3,0.1c-0.1,0-0.2,0.1-0.4,0.1c0,0,0,0-0.1,0s-0.1,0-0.2,0.1
		c-0.1,0-0.1,0.1-0.2,0.1c-0.1,0-0.1,0-0.2,0.1c-0.1,0-0.2,0.1-0.3,0.1s-0.2,0.1-0.3,0.1c-0.1,0-0.1,0-0.2,0s-0.1-0.1-0.1-0.2
		c0-0.1,0-0.1,0.1-0.1c0.1,0,0.1-0.1,0.2-0.1c0,0,0,0,0.1,0c0.1,0,0.1,0,0.2-0.1s0.1,0,0.1-0.1c0,0,0.1,0,0.1,0
		c0.1,0,0.2-0.1,0.3-0.1c0.1,0,0.1,0,0.2-0.1c0.1,0,0.2-0.1,0.3-0.1c0.1,0,0.2-0.1,0.3-0.1c0.1,0,0.2-0.1,0.3-0.1
		c0.1,0,0.1-0.1,0.1-0.1c0,0,0-0.1,0-0.1c0-0.1,0-0.1,0-0.2c0-0.1,0-0.1,0-0.2c0-0.1,0-0.1,0-0.1c0-0.1,0.1-0.1,0.1-0.1
		c0,0,0.1-0.1,0.2-0.1c0.1,0,0.2,0.1,0.2,0.2c0,0.1,0,0.1,0,0.2c0,0.1,0,0.1-0.1,0.2s-0.1,0.1-0.1,0.2C44,39,44,39,44,39.1
		c0,0.2-0.1,0.4-0.1,0.6s-0.1,0.4-0.1,0.6c0,0,0,0.1,0,0.1c0,0,0,0.1,0,0.1c0,0,0,0.1-0.1,0.1c0,0-0.1,0-0.1,0s-0.1,0-0.1,0
		c0,0,0-0.1-0.1-0.1c0,0,0-0.1,0-0.1c0-0.1,0-0.1,0-0.1c0-0.1,0-0.2,0-0.3S43.5,39.6,43.5,39.5z"/>
	<path d="M46.9,39.5c0-0.1,0-0.1,0.1-0.2c0.1-0.1,0.2-0.1,0.3-0.1s0.3-0.1,0.4-0.1c0.1,0,0.2,0,0.3,0c0.1,0,0.1,0,0.2,0
		c0.1,0,0.1,0,0.2,0s0.1,0,0.1,0.1c0,0,0.1,0.1,0.1,0.1c0,0,0,0.1,0,0.1c0,0.1-0.1,0.1-0.1,0.1c-0.2,0-0.3,0-0.5,0
		c-0.2,0-0.3,0.1-0.5,0.1c-0.1,0-0.1,0-0.2,0.1c-0.1,0-0.1,0.1-0.2,0.1c0,0-0.1,0-0.1,0c0,0,0,0-0.1-0.1c0,0,0-0.1,0-0.1
		C46.9,39.6,46.9,39.6,46.9,39.5z M47,41.4c0-0.1,0-0.1,0-0.2c0-0.1,0-0.2,0.1-0.3c0-0.1,0-0.2,0.1-0.3s0.1-0.2,0.1-0.2
		c0,0,0,0,0.1,0c0,0,0.1,0,0.2,0c0.1,0,0.1,0.1,0.1,0.2c0,0.1,0,0.2,0,0.3c0,0.1,0,0.2-0.1,0.3c0,0.1,0,0.2,0,0.3
		c0,0.1,0,0.1,0.1,0.1c0,0,0.1,0,0.1,0c0.3,0,0.6-0.1,0.8-0.2c0.1,0,0.1-0.1,0.2-0.1c0.1,0,0.2-0.1,0.3-0.1c0.1,0,0.2-0.1,0.3-0.1
		c0.1,0,0.1-0.1,0.2-0.1c0,0,0.1,0,0.1,0c0,0,0,0.1,0.1,0.1c0,0.1,0,0.1,0,0.1c0,0,0,0.1-0.1,0.1c0,0-0.1,0-0.1,0.1
		c-0.1,0-0.1,0.1-0.2,0.1s-0.1,0.1-0.2,0.1c-0.1,0-0.1,0.1-0.2,0.1c-0.1,0.1-0.3,0.1-0.5,0.2c-0.2,0.1-0.3,0.1-0.4,0.1
		c0,0-0.1,0-0.2,0.1c-0.1,0-0.2,0-0.3,0c-0.1,0-0.1,0-0.2,0s-0.1-0.1-0.2-0.1C47,41.7,47,41.6,47,41.4z M50.1,43c0,0,0-0.1,0-0.2
		c0-0.1,0-0.2,0-0.4s0-0.2,0-0.3c0-0.1,0-0.2,0-0.2c0-0.1,0-0.1,0-0.2c0,0,0-0.1,0-0.2c0,0,0-0.1,0-0.1c0,0,0-0.1,0-0.1
		c0,0,0-0.1,0-0.2c0-0.1,0-0.2,0-0.3c0-0.1,0-0.2,0-0.3s0-0.2,0-0.2c0-0.3,0.1-0.6,0.1-0.8c0-0.3,0.1-0.6,0.1-0.8
		c0-0.1,0-0.1,0.1-0.1c0.1,0,0.1,0,0.2,0c0.1,0,0.1,0,0.1,0c0,0,0,0.1,0,0.1c0,0.1,0,0.3,0,0.4c0,0.1,0,0.3-0.1,0.4
		c0,0.2-0.1,0.5-0.1,0.8c0,0.3-0.1,0.6-0.1,0.8v0.2c0,0,0.1,0,0.2,0c0.1,0,0.1-0.1,0.2-0.1s0.2-0.1,0.2-0.1c0.1,0,0.1,0,0.2-0.1
		c0.1,0,0.3-0.1,0.4-0.1c0.1,0,0.2-0.1,0.3-0.1c0.1,0,0.1,0,0.2,0s0.1,0,0.1,0.1c0,0.1,0,0.1-0.1,0.1s-0.1,0-0.2,0.1
		c-0.2,0.1-0.5,0.2-0.8,0.3c-0.3,0.1-0.5,0.2-0.7,0.4c0,0,0,0.1,0,0.2c0,0.1,0,0.2,0,0.4s0,0.2,0,0.4c0,0.1,0,0.2,0,0.2
		c0,0.1,0,0.1,0,0.2c0,0.1-0.1,0.1-0.1,0.1c-0.1,0-0.1,0-0.2,0S50.1,43.1,50.1,43z"/>
	<path d="M54.3,40.1c0-0.1,0-0.2,0-0.3c0-0.1,0.1-0.2,0.1-0.3c0-0.1,0.1-0.2,0.1-0.3s0.1-0.2,0.1-0.3c0.1-0.1,0.1-0.2,0.2-0.3
		c0.1-0.1,0.1-0.2,0.1-0.2c0-0.1,0.1-0.1,0.2-0.1c0.1,0,0.1,0,0.2,0.1c0,0,0,0.1,0,0.1s0,0.1,0,0.2c0,0,0,0.1-0.1,0.1
		c0.1,0,0.1,0.1,0.2,0.2s0.1,0.2,0.1,0.4c0,0.1,0,0.2-0.1,0.3c0,0.1-0.1,0.2-0.2,0.4c-0.1,0.1-0.2,0.2-0.3,0.3
		c-0.1,0-0.2,0.1-0.3,0.1c-0.1,0-0.1,0-0.2-0.1C54.4,40.3,54.3,40.2,54.3,40.1z M55.2,39.1c0,0-0.1,0.1-0.1,0.1
		c0,0.1-0.1,0.2-0.1,0.3c0,0.1-0.1,0.2-0.1,0.3c0,0.1-0.1,0.2-0.1,0.2c0.1,0,0.2-0.1,0.3-0.2c0.1-0.1,0.2-0.3,0.2-0.5
		c0,0,0-0.1,0-0.1C55.3,39.2,55.2,39.1,55.2,39.1z M56.3,44.6c0-0.1,0-0.1,0.1-0.2c0-0.1,0.1-0.1,0.1-0.2c0.1-0.1,0.1-0.1,0.2-0.2
		s0.1-0.1,0.2-0.1c0,0,0.1-0.1,0.1-0.1c0.1-0.1,0.1-0.1,0.2-0.2c0.1-0.1,0.1-0.1,0.2-0.2c0,0,0.1-0.1,0.1-0.1c0,0,0.1-0.1,0.1-0.1
		c0,0,0-0.1,0.1-0.1c-0.1,0-0.2,0-0.3,0c-0.1,0-0.3,0-0.4,0s-0.2,0-0.3-0.1c-0.1-0.1-0.1-0.2-0.1-0.3c0-0.1,0.1-0.2,0.1-0.4
		c0.1-0.1,0.1-0.2,0.2-0.3c0.1-0.1,0.2-0.3,0.3-0.4s0.2-0.2,0.3-0.4c0,0,0-0.1,0-0.1c0,0,0,0,0-0.1c-0.3,0-0.5,0-0.7,0.1
		c-0.2,0.1-0.4,0.2-0.6,0.4c-0.1,0.1-0.1,0.1-0.2,0c-0.1-0.1-0.1-0.1-0.1-0.2c0-0.1,0-0.1,0.1-0.2c0.1-0.1,0.1-0.1,0.2-0.2
		c0.4-0.3,0.8-0.4,1.2-0.4c0,0,0.1,0,0.2,0c0.1,0,0.1,0,0.2,0c0.1,0,0.1,0.1,0.1,0.1S58,41,58,41c0,0.1,0,0.2-0.1,0.3
		s-0.1,0.2-0.2,0.4c-0.1,0.1-0.2,0.2-0.3,0.4c-0.1,0.1-0.2,0.2-0.2,0.3c0,0-0.1,0.1-0.1,0.1s0,0.1-0.1,0.1c0,0,0,0.1,0,0.1
		c0,0,0,0,0.1,0c0.1,0,0.3,0,0.4,0c0.1,0,0.3,0,0.4,0c0.1,0,0.2,0,0.2,0.1c0,0.1,0,0.1,0,0.2c0,0,0,0.1-0.1,0.2
		c0,0.1-0.1,0.1-0.2,0.2c-0.1,0.1-0.1,0.1-0.2,0.2s-0.1,0.1-0.2,0.2c-0.1,0.1-0.2,0.2-0.3,0.3c-0.1,0.1-0.2,0.2-0.3,0.4
		c0.1,0,0.2,0,0.2,0c0.3-0.1,0.6-0.1,0.9-0.2c0,0,0.1,0,0.1,0s0.1,0,0.1,0.1c0,0,0,0.1,0,0.1c0,0,0,0.1,0,0.1c0,0-0.1,0.1-0.3,0.1
		c-0.1,0-0.3,0.1-0.4,0.1c-0.2,0-0.3,0.1-0.5,0.1c-0.1,0-0.3,0-0.3,0c-0.1,0-0.2,0-0.3-0.1C56.3,44.9,56.3,44.8,56.3,44.6z M57.2,40
		c0-0.1,0-0.2,0-0.4c0-0.2,0-0.3,0-0.5s0-0.3,0-0.5c0-0.2,0-0.3,0-0.4c0-0.1,0-0.2,0.1-0.3c0-0.1,0-0.2,0.1-0.3c0,0,0-0.1,0-0.1
		s0,0,0,0c0,0,0,0,0,0c0,0,0.1,0,0.1,0c0,0,0.1,0,0.1,0s0.1,0,0.1,0.1c0,0,0,0.1,0,0.1c0,0.2-0.1,0.4-0.1,0.5c0,0.1,0,0.3,0,0.5
		c0,0,0.1,0,0.1,0c0.1,0,0.1,0,0.2,0s0.1,0,0.2,0c0.1,0,0.1,0,0.1,0c0.1,0,0.2,0,0.3,0s0.2,0,0.4,0c0.1,0,0.2,0,0.3,0
		c0.1,0,0.1,0.1,0.1,0.1c0,0.1,0,0.1-0.1,0.1c-0.1,0-0.1,0-0.2,0c-0.2,0-0.3,0-0.4,0.1c-0.1,0-0.3,0.1-0.4,0.1c-0.1,0-0.1,0-0.2,0.1
		c-0.1,0-0.1,0-0.2,0.1s-0.1,0.1-0.2,0.1c0,0-0.1,0.1-0.1,0.1c0,0.1,0,0.3,0,0.4c0,0.1,0,0.2,0,0.4c0,0.1-0.1,0.1-0.2,0.1
		c-0.1,0-0.2,0-0.2-0.1S57.2,40.1,57.2,40z"/>
	<path d="M59.5,42.7C59.5,42.6,59.5,42.6,59.5,42.7c0.1-0.1,0.1-0.1,0.1-0.2c0,0,0.1-0.1,0.1-0.1c0,0,0.1,0,0.1-0.1
		c0.1-0.1,0.1-0.2,0.2-0.3c0-0.1,0.1-0.2,0.1-0.2c0-0.1,0.1-0.2,0.1-0.3c0-0.1,0.1-0.2,0.1-0.3c0-0.1,0.1-0.2,0.1-0.4
		c0-0.1,0-0.3,0-0.4c0-0.1,0-0.1,0.1-0.1c0.1,0,0.1,0,0.2,0c0.1,0,0.1,0,0.1,0.1c0,0,0,0.1,0,0.1c0,0.1,0,0.1,0,0.2c0,0,0,0.1,0,0.2
		c0,0.1,0,0.1,0,0.2c0,0,0,0.1,0,0.1s0,0.1,0,0.1c0,0,0,0.1-0.1,0.2c0,0.1-0.1,0.2-0.1,0.3c0,0.1,0,0.2-0.1,0.2
		c0,0.1-0.1,0.1-0.1,0.2c0,0.1-0.1,0.1-0.1,0.2c0,0,0.1,0,0.1,0c0.1,0,0.1,0,0.2,0c0.1,0,0.1,0,0.2,0c0.1,0,0.1,0,0.1,0
		c0.1,0,0.2,0,0.3,0s0.2,0,0.4,0s0.3,0,0.4,0c0.1,0,0.2,0,0.3,0l0.7,0c0,0,0.1,0,0.1,0.1c0,0,0,0.1,0,0.1c0,0,0,0.1,0,0.1
		c0,0,0,0,0,0c-0.1,0-0.3,0.1-0.5,0.1c-0.2,0-0.5,0.1-0.7,0.1c-0.2,0-0.5,0.1-0.7,0.1s-0.4,0.1-0.5,0.1c-0.1,0-0.1,0-0.2,0
		s-0.1,0-0.2,0.1c-0.1,0-0.1,0-0.2,0c-0.1,0-0.1,0-0.2,0C59.5,42.9,59.5,42.9,59.5,42.7z M61.2,41c0,0,0-0.1,0-0.2s0.1-0.2,0.1-0.2
		c0-0.1,0.1-0.2,0.1-0.4c0-0.1,0.1-0.3,0.1-0.4c0,0,0,0,0-0.1c0,0,0,0,0-0.1c0-0.1,0-0.1-0.1-0.2c0,0-0.1-0.1-0.1-0.1s-0.1,0-0.2,0
		c-0.1,0-0.1,0-0.2,0c0,0-0.1,0-0.2,0c-0.1,0-0.3,0-0.5,0.1c0,0-0.1,0-0.2,0c-0.1,0-0.1-0.1-0.1-0.2c0,0,0-0.1,0-0.1
		c0-0.1,0.1-0.1,0.1-0.1c0.1,0,0.2,0,0.4-0.1s0.3,0,0.5,0c0.1,0,0.2,0,0.4,0c0.1,0,0.3,0.1,0.4,0.1c0.1,0,0.2,0.1,0.2,0.2
		c0,0.1,0,0.2,0,0.3c0,0.1,0,0.1,0,0.2c0,0.1,0,0.1-0.1,0.2c0,0,0,0,0,0.1c0,0.1,0,0.1-0.1,0.2c0,0.1,0,0.1-0.1,0.2
		c0,0.1,0,0.1-0.1,0.1c0,0,0,0.1-0.1,0.1c0,0.1-0.1,0.1-0.1,0.2s-0.1,0.1-0.1,0.1c0,0-0.1,0.1-0.1,0.1c-0.1,0-0.1,0-0.2,0
		C61.2,41.1,61.2,41.1,61.2,41z"/>
	<path d="M65.4,40.5c0-0.1,0-0.2,0-0.3c0-0.1,0.1-0.2,0.1-0.3c0-0.1,0.1-0.2,0.1-0.3s0.1-0.2,0.1-0.3c0.1-0.1,0.1-0.2,0.2-0.3
		s0.1-0.2,0.1-0.2c0-0.1,0.1-0.1,0.2-0.1c0.1,0,0.1,0,0.2,0.1c0,0,0,0.1,0,0.1c0,0.1,0,0.1,0,0.2c0,0,0,0.1-0.1,0.1
		c0.1,0,0.1,0.1,0.2,0.2c0.1,0.1,0.1,0.2,0.1,0.4c0,0.1,0,0.2-0.1,0.3s-0.1,0.2-0.2,0.4c-0.1,0.1-0.2,0.2-0.3,0.3
		c-0.1,0-0.2,0.1-0.3,0.1c-0.1,0-0.1,0-0.2-0.1S65.4,40.6,65.4,40.5z M66.3,42.7c0,0-0.1,0.1-0.2,0.1S66,42.9,66,43
		c0,0-0.1,0.1-0.1,0.1c0,0,0,0.1-0.1,0.1c0,0,0,0.1-0.1,0.1c0,0-0.1,0-0.1,0c-0.1,0-0.1,0-0.2,0s-0.1-0.1-0.1-0.2c0-0.1,0-0.1,0-0.1
		c0,0,0-0.1,0.1-0.1c0.1-0.1,0.2-0.2,0.3-0.4c0.1-0.1,0.2-0.3,0.4-0.4c0.1-0.1,0.3-0.3,0.4-0.4c0.1-0.1,0.2-0.2,0.4-0.3
		c0,0,0,0,0.1,0c0,0,0.1,0,0.1,0c0,0,0.1,0,0.2,0.1c0.1,0,0.1,0.1,0.1,0.2c0,0,0,0.1-0.1,0.2c-0.1,0.1-0.2,0.2-0.2,0.3
		c-0.1,0.1-0.2,0.2-0.2,0.2s-0.1,0.1-0.1,0.2c0,0,0,0.1,0.1,0.2c0,0.1,0.1,0.1,0.1,0.2s0.1,0.1,0.2,0.2c0.1,0.1,0.1,0.1,0.2,0.2
		c0,0,0,0.1,0,0.1s0,0.1,0,0.1s0,0-0.1,0.1c0,0,0,0-0.1,0c-0.1,0-0.2-0.1-0.3-0.1c-0.1-0.1-0.2-0.1-0.2-0.2s-0.1-0.1-0.2-0.2
		C66.4,42.8,66.3,42.8,66.3,42.7z M66.3,39.5c0,0-0.1,0.1-0.1,0.1c0,0.1-0.1,0.2-0.1,0.3c0,0.1-0.1,0.2-0.1,0.3
		c0,0.1-0.1,0.2-0.1,0.2c0.1,0,0.2-0.1,0.3-0.2c0.1-0.1,0.2-0.3,0.2-0.5C66.4,39.7,66.4,39.7,66.3,39.5
		C66.4,39.6,66.3,39.5,66.3,39.5z M68.5,42.6c0,0-0.1,0.1-0.1,0.1c0,0-0.1,0.1-0.1,0.1c-0.1,0.1-0.1,0.1-0.2,0.2
		c0,0.1-0.1,0.1-0.2,0.1c-0.1,0-0.1,0-0.2-0.1s0-0.1,0-0.2c0,0,0,0,0.1-0.1c0,0,0-0.1,0.1-0.1c0.2-0.2,0.4-0.4,0.6-0.6
		s0.4-0.4,0.7-0.6c0,0,0.1,0,0.1,0c0,0,0.1,0,0.1,0s0.1,0.1,0.1,0.1c0,0,0,0.1,0,0.1s-0.1,0.1-0.1,0.2c-0.1,0.1-0.1,0.1-0.2,0.2
		c-0.1,0.1-0.1,0.1-0.2,0.2s-0.1,0.1-0.1,0.1c0,0.1,0,0.2,0.1,0.3c0,0.1,0.1,0.2,0.1,0.3c0,0.1,0.1,0.2,0.2,0.3
		c0.1,0.1,0.1,0.1,0.1,0.2c0,0.1,0.1,0.1,0.1,0.2c0,0.1,0,0.1,0,0.1c-0.1,0-0.2,0-0.3-0.1c0,0-0.1-0.1-0.2-0.2
		c-0.1-0.1-0.1-0.1-0.1-0.2c0,0-0.1-0.1-0.1-0.2c0-0.1-0.1-0.1-0.1-0.2c0-0.1-0.1-0.1-0.1-0.2C68.6,42.7,68.5,42.6,68.5,42.6z
		 M68.3,40.5c0-0.1,0-0.2,0-0.3c0-0.1,0-0.2,0-0.3c0-0.2,0.1-0.4,0.1-0.6s0.1-0.4,0.1-0.6c0-0.1,0.1-0.2,0.1-0.2
		c0-0.1,0.1-0.1,0.1-0.2c0,0,0.1-0.1,0.2-0.1c0.1,0,0.1,0,0.2,0c0,0,0,0,0.1,0.1c0,0,0,0,0,0.1c0,0.1,0,0.1,0,0.2s-0.1,0.1-0.1,0.2
		c-0.1,0.2-0.1,0.5-0.2,0.7s-0.1,0.5-0.1,0.8c0,0.1,0,0.2,0,0.3c0,0.1,0,0.2,0,0.2c0,0.1,0,0.1-0.1,0.2c0,0.1-0.1,0.1-0.1,0.1
		c0,0-0.1,0-0.1-0.1s0-0.1-0.1-0.1c0,0,0-0.1,0-0.1C68.3,40.6,68.3,40.5,68.3,40.5z"/>
	<path d="M70.1,39.5c0-0.1,0-0.1,0.1-0.2c0.1-0.1,0.2-0.1,0.3-0.1s0.3-0.1,0.4-0.1s0.2,0,0.3,0c0.1,0,0.1,0,0.2,0c0.1,0,0.1,0,0.2,0
		c0.1,0,0.1,0,0.1,0.1c0,0,0.1,0.1,0.1,0.1c0,0,0,0.1,0,0.1c0,0.1-0.1,0.1-0.1,0.1c-0.2,0-0.3,0-0.5,0s-0.3,0.1-0.5,0.1
		c-0.1,0-0.1,0-0.2,0.1c-0.1,0-0.1,0.1-0.2,0.1c0,0-0.1,0-0.1,0c0,0,0,0-0.1-0.1c0,0,0-0.1,0-0.1C70.1,39.6,70.1,39.6,70.1,39.5z
		 M70.2,41.4c0-0.1,0-0.1,0-0.2s0-0.2,0.1-0.3c0-0.1,0-0.2,0.1-0.3s0.1-0.2,0.1-0.2c0,0,0,0,0.1,0c0,0,0.1,0,0.2,0
		c0.1,0,0.1,0.1,0.1,0.2c0,0.1,0,0.2,0,0.3c0,0.1,0,0.2-0.1,0.3c0,0.1,0,0.2,0,0.3c0,0.1,0,0.1,0.1,0.1s0.1,0,0.1,0
		c0.3,0,0.6-0.1,0.8-0.2c0.1,0,0.1-0.1,0.2-0.1c0.1,0,0.2-0.1,0.3-0.1c0.1,0,0.2-0.1,0.3-0.1c0.1,0,0.1-0.1,0.2-0.1s0.1,0,0.1,0
		c0,0,0,0.1,0.1,0.1c0,0.1,0,0.1,0,0.1c0,0,0,0.1-0.1,0.1c0,0-0.1,0-0.1,0.1c-0.1,0-0.1,0.1-0.2,0.1s-0.1,0.1-0.2,0.1
		c-0.1,0-0.1,0.1-0.2,0.1c-0.1,0.1-0.3,0.1-0.5,0.2c-0.2,0.1-0.3,0.1-0.4,0.1c0,0-0.1,0-0.2,0.1c-0.1,0-0.2,0-0.3,0
		c-0.1,0-0.1,0-0.2,0s-0.1-0.1-0.2-0.1C70.2,41.7,70.2,41.6,70.2,41.4z M73.3,43c0,0,0-0.1,0-0.2c0-0.1,0-0.2,0-0.4s0-0.2,0-0.3
		c0-0.1,0-0.2,0-0.2c0-0.1,0-0.1,0-0.2c0,0,0-0.1,0-0.2c0,0,0-0.1,0-0.1c0,0,0-0.1,0-0.1c0,0,0-0.1,0-0.2s0-0.2,0-0.3
		c0-0.1,0-0.2,0-0.3s0-0.2,0-0.2c0-0.3,0.1-0.6,0.1-0.8c0-0.3,0.1-0.6,0.1-0.8c0-0.1,0-0.1,0.1-0.1c0.1,0,0.1,0,0.2,0
		c0.1,0,0.1,0,0.1,0c0,0,0,0.1,0,0.1c0,0.1,0,0.3,0,0.4s0,0.3-0.1,0.4c0,0.2-0.1,0.5-0.1,0.8c0,0.3-0.1,0.6-0.1,0.8v0.2
		c0,0,0.1,0,0.2,0c0.1,0,0.1-0.1,0.2-0.1c0.1,0,0.2-0.1,0.2-0.1c0.1,0,0.1,0,0.2-0.1c0.1,0,0.3-0.1,0.4-0.1s0.2-0.1,0.3-0.1
		c0.1,0,0.1,0,0.2,0c0,0,0.1,0,0.1,0.1c0,0.1,0,0.1-0.1,0.1s-0.1,0-0.2,0.1c-0.2,0.1-0.5,0.2-0.8,0.3s-0.5,0.2-0.7,0.4
		c0,0,0,0.1,0,0.2c0,0.1,0,0.2,0,0.4c0,0.1,0,0.2,0,0.4c0,0.1,0,0.2,0,0.2c0,0.1,0,0.1,0,0.2c0,0.1-0.1,0.1-0.1,0.1
		c-0.1,0-0.1,0-0.2,0S73.3,43.1,73.3,43z"/>
	<path d="M76.5,41.4c0,0,0.1-0.1,0.2-0.1c0.1,0,0.1-0.1,0.2-0.1c0-0.1,0-0.1,0-0.2c0-0.1,0-0.1,0-0.2c0,0,0-0.1,0-0.2
		c0-0.1,0-0.2,0-0.2c0-0.1,0-0.2,0-0.3s0-0.2,0-0.2c0-0.1,0-0.2-0.1-0.2c0,0-0.1,0-0.2,0c-0.1,0-0.2,0-0.3,0.1
		c-0.1,0.1-0.2,0.2-0.3,0.3c0,0,0,0,0,0.1c0,0,0,0.1,0,0.1c0,0.1,0,0.1,0,0.2c0,0.1,0,0.1,0,0.1c0,0.1,0,0.1,0,0.1c0,0,0,0,0,0
		s0,0,0,0c0,0,0,0.1,0,0.1c0,0.1,0,0.2-0.1,0.2s-0.1,0-0.1,0c0,0-0.1,0-0.1,0c0,0-0.1-0.1-0.1-0.1c0,0,0-0.1,0-0.1c0,0,0-0.1,0-0.1
		c0,0,0-0.1,0-0.1c0,0,0-0.1,0-0.1c0,0,0-0.1,0-0.1c0-0.1,0-0.1,0-0.2c0-0.1,0-0.1,0-0.2c0-0.1,0-0.1,0-0.2c0,0,0,0,0-0.1
		s0-0.1,0-0.2c0-0.1,0-0.1,0-0.2s0-0.1,0-0.1c0-0.1,0-0.2,0-0.2c0-0.1,0-0.1,0.1-0.2c0-0.1,0.1-0.1,0.1-0.1s0.1,0,0.2,0
		c0,0,0.1,0,0.1,0.1c0,0,0,0.1,0,0.1c0,0.1,0,0.1-0.1,0.2c0,0.1,0,0.1,0,0.2c0.1,0,0.1-0.1,0.2-0.1c0.1,0,0.1,0,0.1-0.1
		c0,0,0.1,0,0.2,0c0.1,0,0.1,0,0.2,0c0.2,0,0.3,0,0.4,0.1c0.1,0.1,0.2,0.2,0.2,0.4c0,0.1,0,0.2,0,0.3s0,0.2,0,0.3c0,0.1,0,0.2,0,0.3
		c0,0.1,0,0.1,0,0.2c0,0.1,0,0.1,0,0.1c0,0,0,0.1,0,0.1c0.1,0,0.2-0.1,0.3-0.1c0.1,0,0.1,0,0.2-0.1c0,0,0.1,0,0.1,0c0,0,0,0,0.1,0.1
		s0,0.1,0,0.1c0,0,0,0.1,0,0.1c0,0-0.1,0-0.1,0.1s-0.1,0-0.1,0.1c0,0-0.1,0-0.1,0.1c0,0-0.1,0-0.1,0.1c0,0-0.1,0-0.1,0.1
		c-0.1,0-0.1,0.1-0.2,0.1c0,0,0,0-0.1,0.1c0,0-0.1,0-0.1,0.1c0,0-0.1,0-0.1,0.1s-0.1,0-0.1,0c0,0-0.1,0-0.1,0c0,0-0.1-0.1-0.1-0.1
		s0-0.1,0-0.1C76.4,41.5,76.5,41.5,76.5,41.4z M77.9,39.5c0,0,0-0.1,0.1-0.1c0.1-0.1,0.1-0.1,0.2-0.1c0.1,0,0.1-0.1,0.2-0.1
		c0.1,0,0.1-0.1,0.2-0.1c0.1,0,0.2-0.1,0.2-0.1c0.1,0,0.2,0,0.2,0c0,0,0.1,0,0.1,0c0.1,0,0.1,0,0.2,0s0.1,0,0.1,0.1
		c0,0,0.1,0.1,0.1,0.1c0,0,0,0.1,0,0.1c0,0-0.1,0.1-0.1,0.1c0,0-0.1,0-0.1,0c0,0-0.1,0-0.1,0c-0.1,0-0.3,0-0.4,0.1
		c-0.1,0.1-0.2,0.2-0.3,0.2c-0.1,0.1-0.1,0.1-0.2,0.2c-0.1,0.1-0.1,0.1-0.2,0c-0.1,0-0.1-0.1-0.1-0.1S77.9,39.6,77.9,39.5z
		 M78.3,41.2c0-0.1,0-0.1,0-0.1c0,0,0-0.1,0.1-0.1c0,0,0-0.1,0.1-0.1c0,0,0,0,0.1,0c0.3-0.2,0.5-0.4,0.8-0.7
		c0.3-0.2,0.5-0.5,0.7-0.7c0,0,0.1-0.1,0.1-0.2c0,0,0.1-0.1,0.1-0.1c0,0,0.1-0.1,0.1-0.1c0,0,0.1-0.1,0.1-0.1s0-0.1,0.1-0.2
		s0.1-0.1,0.1-0.1c0,0,0.1-0.1,0.1-0.1c0.1,0,0.1,0,0.2,0.1c0,0,0.1,0.1,0.1,0.1c0,0.1,0,0.1,0,0.2c0,0.1-0.1,0.1-0.1,0.2
		c0,0.1-0.1,0.1-0.1,0.2c0,0.1,0,0.1-0.1,0.2s0,0.1-0.1,0.2c0,0.1,0,0.1-0.1,0.2c-0.1,0.2-0.1,0.4-0.1,0.6c0,0.2,0,0.4,0,0.6
		c0,0,0,0.1,0,0.1c0,0,0,0-0.1,0.1s0,0-0.1,0c0,0,0,0,0,0c-0.1,0-0.1,0-0.2-0.1s0-0.2-0.1-0.3c0,0,0-0.1,0-0.2c0-0.1,0-0.2,0-0.2
		c0-0.1,0-0.2,0-0.2c0-0.1,0-0.1,0-0.2c-0.1,0-0.1,0.1-0.2,0.2s-0.2,0.2-0.2,0.2c-0.1,0.1-0.2,0.2-0.4,0.4c-0.1,0.1-0.3,0.2-0.4,0.3
		c0,0-0.1,0.1-0.2,0.1c-0.1,0-0.2,0.1-0.2,0C78.4,41.3,78.4,41.3,78.3,41.2z M78.8,42.4c0-0.1,0-0.2,0.1-0.3c0-0.1,0.1-0.2,0.1-0.3
		c0-0.1,0.1-0.2,0.2-0.3c0.1-0.1,0.1-0.2,0.2-0.2c0.1,0,0.1,0,0.2,0c0.1,0,0.1,0.1,0.1,0.2c0,0.1,0,0.1,0,0.1c0,0-0.1,0.1-0.1,0.2
		c0,0.1-0.1,0.1-0.1,0.2c0,0.1-0.1,0.1-0.1,0.2c0,0,0,0,0,0.1c0,0,0,0,0,0.1c0,0,0,0,0.1,0c0,0,0.1,0,0.1,0c0,0,0.1,0,0.1,0
		s0,0,0.1,0c0.1,0,0.2-0.1,0.4-0.1c0.1,0,0.3-0.1,0.4-0.1s0.3-0.1,0.5-0.1c0.2,0,0.3-0.1,0.5-0.1c0.1,0,0.3,0,0.4,0c0,0,0,0,0,0.1
		c0,0,0,0.1,0,0.1c0,0,0,0.1,0,0.1c0,0,0,0-0.1,0.1c0,0-0.1,0-0.2,0s-0.2,0-0.3,0c-0.2,0-0.4,0.1-0.6,0.1c-0.2,0.1-0.5,0.1-0.7,0.2
		c-0.1,0-0.2,0.1-0.4,0.2c-0.1,0.1-0.3,0.1-0.5,0c-0.1,0-0.2-0.1-0.2-0.1C78.8,42.6,78.8,42.5,78.8,42.4z"/>
</g>
<g class="st1">
	<path d="M20.5,50.9c0,0,0.1-0.1,0.1-0.1c0.5-0.1,0.9-0.2,1.4-0.3c0.4-0.1,0.9-0.1,1.4-0.1c0,0,0.1,0,0.2,0s0.2,0,0.3,0
		c0.1,0,0.2,0,0.2,0.1c0.1,0,0.1,0.1,0.1,0.2c0,0,0,0,0,0c0,0,0,0-0.1,0c-0.4,0-0.8,0-1.1,0c-0.4,0-0.7,0.1-1.1,0.1
		c-0.1,0-0.2,0-0.3,0.1c-0.1,0-0.2,0.1-0.3,0.1c-0.1,0-0.1,0.1-0.2,0.1s-0.1,0.1-0.2,0.1c-0.1,0-0.1,0-0.2-0.1
		C20.5,51.1,20.5,51.1,20.5,50.9L20.5,50.9z M20.8,49.1c0-0.2,0-0.3,0-0.4c0-0.1,0-0.3,0-0.4c0-0.1,0-0.1,0-0.1c0,0,0-0.1,0-0.1
		c0,0,0-0.1,0-0.1c0,0,0-0.1,0.1-0.2c0-0.1,0.1-0.1,0.1-0.1c0,0,0,0,0.1-0.1c0,0,0.1,0,0.1,0c0,0,0.1,0,0.1,0c0,0,0.1,0,0.1,0
		c0,0,0.1,0,0.1,0.1v0c0,0,0,0.1,0,0.1c0,0,0,0.1,0,0.1c0,0.1-0.1,0.2-0.1,0.3s0,0.2-0.1,0.3c0,0.1,0,0.2,0,0.3c0,0.1,0,0.2,0,0.3
		c0,0,0,0.1,0,0.1c0,0,0,0.1,0,0.1v0.1c0,0.1,0,0.1-0.1,0.1c0,0-0.1,0-0.1,0c-0.1,0-0.1,0-0.1-0.1c0,0,0-0.1-0.1-0.1
		C20.8,49.2,20.8,49.2,20.8,49.1z M21.4,49.7C21.4,49.6,21.5,49.6,21.4,49.7c0.1-0.1,0.1-0.1,0.2-0.2s0.1,0,0.1-0.1c0,0,0.1,0,0.1,0
		c0,0,0.1-0.1,0.1-0.2c0.1-0.1,0.1-0.3,0.1-0.4c0-0.1,0-0.2,0.1-0.2c0,0,0-0.1,0-0.2c0-0.1,0-0.2-0.1-0.2c0,0-0.1,0-0.1,0
		s-0.1,0-0.1,0.1c0,0-0.1,0-0.1,0c0,0-0.1,0-0.1,0c-0.1,0-0.1,0-0.1-0.1s-0.1-0.1,0-0.2c0,0,0-0.1,0-0.1s0,0,0.1-0.1
		c0.1,0,0.1-0.1,0.2-0.1c0,0,0.1,0,0.2-0.1c0.1,0,0.2,0,0.2,0c0.1,0,0.2,0,0.2,0c0.1,0,0.2,0.1,0.2,0.2c0,0.1,0,0.2,0,0.2
		c0,0.1,0,0.2,0,0.3c0,0.1,0,0.2-0.1,0.3c0,0.1,0,0.1-0.1,0.2c0,0.1,0,0.1-0.1,0.2c0.1,0,0.1,0,0.2-0.1c0.1,0,0.1,0,0.2,0
		c0,0,0.1,0,0.1,0s0.1,0,0.2,0c0.1,0,0.1,0,0.2,0c0.1,0,0.1,0,0.1,0c0,0,0.1,0,0.1,0c0,0,0.1,0,0.1,0c0,0,0,0,0,0c0,0,0,0,0,0.1
		c0,0,0,0.1,0,0.1c0,0,0,0-0.1,0.1c0,0-0.1,0-0.1,0s-0.1,0-0.2,0c-0.1,0-0.1,0-0.2,0c-0.1,0-0.1,0-0.2,0c-0.2,0-0.3,0.1-0.4,0.1
		c-0.1,0-0.2,0.1-0.4,0.1c-0.1,0-0.1,0.1-0.2,0.1s-0.1,0.1-0.2,0.1c-0.1,0-0.1,0-0.1-0.1C21.4,49.8,21.4,49.7,21.4,49.7z M22.5,54.4
		c0-0.1,0-0.3,0-0.6s0-0.5,0.1-0.7s0-0.5,0.1-0.7c0-0.2,0-0.4,0.1-0.6c0-0.1,0-0.2,0-0.3s0-0.2,0-0.3c0,0,0-0.1,0.1-0.1
		s0.1-0.1,0.1-0.1c0.1,0,0.1,0,0.2,0c0.1,0,0.1,0.1,0.1,0.2c0,0.1,0,0.2,0,0.3c0,0.1,0,0.3-0.1,0.4c0,0.2,0,0.3-0.1,0.5
		c0,0.2,0,0.3,0,0.4c0,0.1,0,0.3,0,0.4c0,0.1,0,0.3,0,0.4s0,0.3,0,0.4s0,0.2,0,0.3c0,0,0,0,0,0.1c0,0,0,0.1,0,0.1c0,0,0,0.1-0.1,0.1
		s-0.1,0-0.1,0c0,0-0.1,0-0.1,0c0,0,0-0.1-0.1-0.1S22.5,54.5,22.5,54.4C22.5,54.5,22.5,54.4,22.5,54.4z"/>
	<path d="M24.6,50.8c0,0,0-0.1,0-0.1c0,0,0.1,0,0.1-0.1c0.4-0.2,0.8-0.3,1.2-0.3c0.4,0,0.9-0.1,1.3-0.1h0.4c0.2,0,0.3,0,0.5,0
		c0.1,0,0.3,0,0.4,0.1c0.1,0,0.2,0.1,0.3,0.1c0.1,0,0.1,0.1,0.1,0.2c0,0,0,0-0.1,0c0,0,0,0-0.1,0c-0.1,0-0.2,0-0.3,0
		c-0.1,0-0.2,0-0.3,0c-0.2,0-0.3,0-0.5,0c-0.2,0-0.3,0-0.5,0c-0.2,0-0.4,0-0.6,0c-0.2,0-0.4,0-0.6,0.1s-0.3,0.1-0.5,0.1
		c-0.1,0-0.2,0.1-0.3,0.1c-0.1,0.1-0.2,0.1-0.3,0.1c-0.1,0-0.1,0-0.2-0.1C24.6,50.9,24.6,50.9,24.6,50.8z M24.7,49.8
		c0.1-0.2,0.2-0.4,0.3-0.5c0.1-0.1,0.3-0.3,0.5-0.4c0.1-0.1,0.2-0.2,0.4-0.3c0.1-0.1,0.2-0.2,0.3-0.3c0,0,0.1,0,0.1-0.1
		c0,0,0.1-0.1,0.2-0.1c0.1,0,0.1-0.1,0.2-0.1c0.1,0,0.1-0.1,0.1-0.1c0,0,0.1,0,0.2,0c0.1,0,0.1,0.1,0.1,0.1c0,0,0,0.1-0.1,0.1
		s-0.1,0.1-0.1,0.1c0,0,0,0-0.1,0.1c0,0-0.1,0.1-0.1,0.1c0,0-0.1,0.1-0.1,0.1s-0.1,0.1-0.1,0.1c0.1,0,0.2,0,0.3,0c0.1,0,0.2,0,0.3,0
		c0.1,0,0.2,0,0.3,0c0.1,0,0.2,0,0.3,0s0.2,0,0.3,0c0.1,0,0.1,0,0.2,0c0.1,0,0.2,0,0.2,0.1c0.1,0,0.1,0.1,0.1,0.1
		c0,0.1,0,0.1-0.1,0.1c0,0-0.1,0-0.2,0c0,0-0.1,0-0.2,0c-0.1,0-0.2,0-0.2,0c-0.1,0-0.2,0-0.3,0c-0.1,0-0.2,0-0.2,0
		c-0.1,0-0.2,0-0.3,0c-0.1,0-0.2,0-0.3,0c-0.1,0-0.2,0-0.4,0c-0.1,0-0.2,0-0.3,0.1c0,0-0.1,0-0.1,0.1s-0.1,0.1-0.1,0.1
		c-0.1,0.1-0.2,0.1-0.2,0.2c-0.1,0.1-0.2,0.2-0.3,0.3c0,0.1-0.1,0.1-0.1,0.1c-0.1,0-0.1,0-0.2,0C24.6,50.1,24.6,50,24.7,49.8z
		 M26.1,52.5c0-0.2,0-0.5,0.1-0.7c0.1-0.2,0.2-0.4,0.3-0.6c0,0,0,0,0.1-0.1s0.1,0,0.1,0c0,0,0.1,0,0.2,0c0.1,0,0.1,0,0.1,0.1
		c0,0.1,0,0.1,0,0.2c0,0.1-0.1,0.1-0.1,0.2c0,0,0,0.1-0.1,0.1c0,0,0,0.1-0.1,0.1c0,0,0,0.1-0.1,0.2c0,0.1-0.1,0.1-0.1,0.2
		c0,0,0,0.1,0,0.1c0,0,0,0.1,0,0.1c0,0.1,0,0.1,0.1,0.1c0,0,0.1,0,0.2,0c0.1,0,0.3-0.1,0.4-0.1c0.1,0,0.2-0.1,0.4-0.1
		s0.2-0.1,0.4-0.1c0.1,0,0.2-0.1,0.4-0.1c0,0,0.1,0,0.1,0s0,0.1,0,0.1s0,0.1,0,0.1c0,0-0.1,0.1-0.1,0.1c0,0-0.1,0-0.3,0.1
		c-0.1,0-0.3,0.1-0.5,0.2c-0.2,0.1-0.3,0.1-0.5,0.2c-0.1,0-0.2,0.1-0.3,0.1c0,0-0.1,0-0.1,0c0,0-0.1,0-0.1,0h0c-0.1,0-0.2,0-0.3-0.1
		C26.2,52.8,26.1,52.7,26.1,52.5z"/>
	<path d="M32,51.4c0,0.1-0.1,0.1-0.1,0.2s-0.1,0.2-0.2,0.2c0,0.1-0.1,0.1-0.1,0.1s-0.1,0-0.1,0c-0.1,0-0.1-0.1-0.2-0.1
		c0-0.1,0-0.1,0-0.2c0-0.1,0.1-0.1,0.1-0.2c0.1-0.1,0.1-0.2,0.2-0.3c0.1-0.1,0.1-0.2,0.2-0.3c0.1-0.1,0.1-0.2,0.1-0.2
		c0.1-0.2,0.2-0.4,0.3-0.6c0.1-0.2,0.1-0.3,0.2-0.5c0,0,0,0,0-0.1c0,0,0-0.1,0-0.1c-0.1,0-0.1,0-0.2,0c-0.1,0-0.2,0.1-0.4,0.2
		s-0.2,0.1-0.3,0.1c-0.1,0-0.1,0-0.1-0.1c0-0.1,0-0.1,0-0.2c0,0,0-0.1,0-0.1c0,0,0-0.1,0.1-0.1c0.1-0.1,0.3-0.2,0.4-0.2
		c0.1-0.1,0.3-0.1,0.4-0.1c0.2,0,0.4,0,0.5,0.1c0.1,0.1,0.1,0.2,0.1,0.4c0,0.1,0,0.2,0,0.2c0,0.1,0,0.1,0,0.2c0,0.1,0,0.1-0.1,0.2
		c0,0.1,0,0.1-0.1,0.2c0,0.1-0.1,0.2-0.2,0.4c-0.1,0.1-0.1,0.3-0.2,0.4c0,0.1,0.1,0.1,0.1,0.2s0.1,0.1,0.2,0.1
		c0.1,0,0.1,0.1,0.2,0.1c0.1,0,0.2,0.1,0.2,0.1c0.1,0,0.1,0.1,0.2,0.1c0.1,0,0.1,0,0.2,0.1c0,0,0.1,0,0.1,0.1c0,0,0,0.1,0,0.1
		c0,0.1,0,0.1-0.1,0.1c-0.1,0-0.1,0-0.2,0c-0.1,0-0.2,0-0.3-0.1c-0.1,0-0.3-0.1-0.4-0.1c-0.1-0.1-0.2-0.1-0.3-0.2
		C32.1,51.5,32,51.5,32,51.4z M35.5,52.3c0-0.1,0-0.2,0-0.2c0-0.1,0-0.1,0-0.2c0-0.1,0-0.2,0.1-0.3c0-0.1,0.1-0.2,0.1-0.3
		c-0.1,0-0.1,0-0.2,0.1c-0.1,0-0.1,0.1-0.2,0.1c-0.1,0.1-0.3,0.1-0.4,0.2s-0.3,0.1-0.4,0.2c0,0,0,0,0,0.1c0,0,0,0.1,0,0.2
		c0,0.1,0,0.1,0,0.2c0,0.1-0.1,0.2-0.2,0.2c-0.1,0-0.2,0-0.2-0.1c0-0.1-0.1-0.2-0.1-0.3c0-0.1,0-0.3,0-0.4s0-0.2,0-0.3
		c0-0.3,0-0.7,0-1.1c0-0.4,0.1-0.7,0.2-1.1c0,0,0,0,0-0.1c0,0,0.1,0,0.1,0c0.1,0,0.1,0,0.2,0c0.1,0,0.1,0.1,0.1,0.2
		c0,0.1,0,0.1,0,0.2c0,0.1-0.1,0.1-0.1,0.2c0,0.2-0.1,0.5-0.1,0.7c0,0.2,0,0.5,0,0.7c0,0,0,0,0,0.1c0,0,0,0,0,0.1c0,0,0,0.1,0,0.1
		c0,0,0.1,0,0.1,0c0.1,0,0.1,0,0.1-0.1c0,0,0.1,0,0.1-0.1c0,0,0.1,0,0.1,0c0.2-0.1,0.3-0.1,0.4-0.2s0.3-0.1,0.4-0.1
		c0,0,0.1,0,0.1-0.1c0,0,0-0.1,0-0.1c0.1-0.2,0.1-0.4,0.2-0.6s0.1-0.4,0.2-0.6c0,0,0-0.1,0.1-0.1c0,0,0.1,0,0.1,0
		c0.1,0,0.2,0,0.2,0.1c0.1,0,0.1,0.1,0.1,0.2c0,0.1,0,0.1,0,0.1c0,0,0,0.1-0.1,0.1c0,0.1-0.1,0.3-0.1,0.4c0,0.1-0.1,0.3-0.1,0.4
		c0,0.1-0.1,0.3-0.1,0.4c0,0.1-0.1,0.3-0.1,0.4c0,0.1-0.1,0.2-0.1,0.4c0,0.1,0,0.2-0.1,0.3c0,0.1,0,0.2,0,0.3s0,0.3,0,0.4
		c0,0,0,0.1-0.1,0.1c0,0-0.1,0-0.1,0c-0.1,0-0.1,0-0.1-0.1s-0.1-0.1-0.1-0.2c0-0.1,0-0.1,0-0.2C35.6,52.4,35.5,52.3,35.5,52.3z"/>
	<path d="M38.2,51.7c0.1,0,0.1-0.1,0.1-0.1c0,0,0.1-0.1,0.1-0.1c0,0,0.1,0,0.1-0.1c0,0,0.1-0.1,0.1-0.1c0-0.1,0-0.1,0-0.2
		c0-0.1,0-0.1,0-0.2c0-0.1,0-0.2,0.1-0.3s0-0.2,0.1-0.2c0-0.1,0-0.2,0-0.2c0-0.1,0-0.2,0-0.3c0-0.1,0-0.2,0-0.2c0,0-0.1,0-0.2,0
		c-0.1,0-0.1,0-0.2,0c-0.1,0-0.2,0-0.3,0.1c-0.1,0-0.2,0.1-0.3,0.1c-0.1,0.1-0.1,0.1-0.2,0.2c0,0,0,0.1,0,0.1s0,0.2,0,0.2
		c0,0.1,0,0.2,0,0.3c0,0.1,0,0.2,0,0.3c0,0,0,0.1,0,0.1c0,0,0,0.1-0.1,0.1s0,0-0.1,0c0,0,0,0-0.1,0c0,0-0.1,0-0.1,0
		c0,0-0.1-0.1-0.1-0.1c0,0,0-0.1,0-0.1c0,0,0-0.1,0-0.1s0-0.1,0-0.1c0,0,0-0.1,0-0.1c0-0.1,0-0.2,0-0.4c0-0.1,0-0.2,0-0.4
		c0-0.2,0-0.4,0.1-0.5c0-0.2,0.1-0.3,0.1-0.5c0-0.1,0.1-0.1,0.1-0.1s0.1,0,0.2,0c0,0,0.1,0,0.1,0.1c0,0,0,0.1,0,0.1
		c0,0.1,0,0.1-0.1,0.2c0,0,0,0.1,0,0.1c0,0,0,0.1,0,0.1c0.1-0.1,0.3-0.1,0.5-0.2c0.2,0,0.3-0.1,0.5-0.1c0.2,0,0.3,0,0.4,0.1
		c0.1,0.1,0.2,0.2,0.2,0.4c0,0.1,0,0.3,0,0.4c0,0.1,0,0.2,0,0.3c0,0.1,0,0.2,0,0.3c0,0.1,0,0.2-0.1,0.3c0,0,0,0.1,0,0.1
		c0,0,0,0.1,0,0.1c0.1,0,0.1,0,0.2-0.1c0,0,0.1,0,0.1,0c0.1,0,0.2-0.1,0.3-0.1c0.1,0,0.1,0,0.2-0.1c0.1,0,0.1,0,0.1,0.1
		c0,0.1,0,0.1,0,0.1c0,0-0.1,0.1-0.1,0.1c-0.1,0-0.1,0.1-0.2,0.1c-0.1,0-0.2,0.1-0.2,0.1c-0.1,0-0.1,0.1-0.1,0.1
		c-0.1,0-0.2,0.1-0.3,0.1c-0.1,0-0.2,0.1-0.3,0.1c0,0,0,0-0.1,0.1c0,0-0.1,0-0.1,0.1c0,0-0.1,0-0.1,0.1s-0.1,0-0.1,0
		c0,0-0.1,0-0.1,0c0,0-0.1-0.1-0.1-0.1c0,0,0-0.1,0-0.1C38.1,51.8,38.2,51.7,38.2,51.7z M40.9,51.7c0-0.1,0-0.2,0-0.3
		c0-0.1,0-0.2,0-0.3c0-0.2,0-0.5,0.1-0.7s0.1-0.4,0.1-0.7c0-0.1,0-0.1,0-0.2c0-0.1,0-0.2,0.1-0.2s0.1-0.1,0.1-0.2s0.1-0.1,0.1-0.1
		s0.1,0,0.2,0.1c0.1,0,0.1,0.1,0.1,0.1c0,0.1,0,0.2-0.1,0.3s0,0.2-0.1,0.2c-0.1,0.3-0.1,0.5-0.1,0.7c0,0.2-0.1,0.3-0.1,0.4
		c0,0.1,0,0.2,0,0.2c0,0,0,0.1,0,0.1c0,0.2,0,0.3-0.1,0.5c0,0.2,0,0.3,0,0.5c0,0,0,0.1-0.1,0.1c0,0-0.1,0-0.1,0
		c-0.1,0-0.1,0-0.1-0.1S40.9,51.8,40.9,51.7z"/>
	<path d="M43.4,51.9c0,0-0.1,0-0.1,0c0,0,0-0.1,0-0.2c0-0.1,0-0.2,0.1-0.3c0-0.1,0.1-0.3,0.1-0.4c0-0.1,0.1-0.3,0.1-0.4
		c0-0.1,0.1-0.2,0.1-0.3c0-0.1,0-0.1,0-0.2c0,0,0-0.1,0-0.1c0,0-0.1,0-0.1,0s-0.2,0-0.3,0c-0.1,0-0.2,0-0.3,0.1c0,0-0.1,0-0.2,0.1
		c-0.1,0-0.1,0-0.2,0.1c-0.1,0-0.2,0-0.2,0c0,0-0.1-0.1-0.1-0.1c0,0,0-0.1,0-0.1c0,0,0-0.1,0.1-0.1c0.1,0,0.2-0.1,0.3-0.1
		c0.1,0,0.2-0.1,0.3-0.1c0.1,0,0.2,0,0.3,0c0.1,0,0.2,0,0.3,0c0.1,0,0.2,0,0.3,0.1c0.1,0,0.1,0.1,0.2,0.2c0,0.1,0,0.1,0,0.2
		c0,0.1,0,0.2-0.1,0.3c0,0.1-0.1,0.2-0.1,0.3s-0.1,0.2-0.1,0.3c0,0,0,0.1,0,0.1s0,0.1-0.1,0.2c0,0.1,0,0.1-0.1,0.2
		c0,0.1,0,0.1-0.1,0.1c0,0.1-0.1,0.1-0.1,0.2C43.5,51.8,43.5,51.9,43.4,51.9z M45.2,52.3c0-0.3,0-0.6,0.1-0.9
		c0.1-0.3,0.1-0.6,0.2-0.9c0-0.1,0-0.1,0-0.2c0-0.1,0-0.2,0.1-0.3c0-0.1,0-0.2,0.1-0.3s0-0.1,0-0.2c0,0,0-0.1,0.1-0.2
		c0-0.1,0-0.1,0.1-0.2c0-0.1,0-0.1,0-0.2s0-0.1,0-0.1c0,0,0-0.1,0.1-0.2c0-0.1,0-0.1,0.1-0.2s0.1-0.1,0.1-0.2c0,0,0.1-0.1,0.1-0.1
		c0.1,0,0.1,0,0.2,0.1c0,0,0,0.1,0,0.2c0,0.1,0,0.3-0.1,0.4c0,0.1-0.1,0.3-0.1,0.4c0,0.1-0.1,0.3-0.1,0.4c0,0.1-0.1,0.3-0.1,0.4
		c-0.1,0.2-0.1,0.4-0.1,0.6c0,0.2-0.1,0.4-0.1,0.6c0,0,0,0.1,0,0.1c0,0.1,0,0.1,0,0.1c0.1,0,0.2,0,0.3-0.1c0.1,0,0.2-0.1,0.3-0.1
		c0.2,0,0.4-0.1,0.6-0.1c0.2,0,0.4-0.1,0.6-0.1c0.1,0,0.1,0,0.2,0c0.1,0,0.1,0,0.1,0.1c0,0,0,0.1,0,0.1c0,0,0,0.1-0.1,0.1l-0.1,0
		c0,0-0.1,0-0.1,0c0,0,0,0-0.1,0c0,0,0,0-0.1,0c0,0-0.1,0-0.1,0c-0.1,0-0.1,0-0.2,0c-0.1,0-0.1,0-0.1,0c-0.1,0-0.3,0.1-0.4,0.1
		s-0.3,0.1-0.4,0.2c-0.1,0-0.2,0.1-0.2,0.1c-0.1,0-0.1,0.1-0.1,0.2c0,0,0,0.1,0,0.2c0,0.1,0,0.1,0,0.1c0,0.1,0,0.1-0.1,0.2
		c0,0-0.1,0.1-0.2,0.1c-0.1,0-0.2-0.1-0.2-0.2V52.3z"/>
	<path d="M50,50.5c0-0.1,0-0.2,0-0.3c0-0.1,0.1-0.2,0.1-0.3c0-0.1,0.1-0.2,0.1-0.3s0.1-0.2,0.1-0.3c0.1-0.1,0.1-0.2,0.2-0.3
		s0.1-0.2,0.1-0.2c0-0.1,0.1-0.1,0.2-0.1c0.1,0,0.1,0,0.2,0.1c0,0,0,0.1,0,0.1c0,0.1,0,0.1,0,0.2c0,0,0,0.1-0.1,0.1
		c0.1,0,0.1,0.1,0.2,0.2c0.1,0.1,0.1,0.2,0.1,0.4c0,0.1,0,0.2-0.1,0.3s-0.1,0.2-0.2,0.4c-0.1,0.1-0.2,0.2-0.3,0.3
		c-0.1,0-0.2,0.1-0.3,0.1c-0.1,0-0.1,0-0.2-0.1S50,50.6,50,50.5z M50.9,52.7c0,0-0.1,0.1-0.2,0.1s-0.1,0.1-0.2,0.2
		c0,0-0.1,0.1-0.1,0.1c0,0,0,0.1-0.1,0.1c0,0,0,0.1-0.1,0.1c0,0-0.1,0-0.1,0c-0.1,0-0.1,0-0.2,0S50,53.2,50,53.1c0-0.1,0-0.1,0-0.1
		c0,0,0-0.1,0.1-0.1c0.1-0.1,0.2-0.2,0.3-0.4c0.1-0.1,0.2-0.3,0.4-0.4c0.1-0.1,0.3-0.3,0.4-0.4c0.1-0.1,0.2-0.2,0.4-0.3
		c0,0,0,0,0.1,0c0,0,0.1,0,0.1,0c0,0,0.1,0,0.2,0.1c0.1,0,0.1,0.1,0.1,0.2c0,0,0,0.1-0.1,0.2c-0.1,0.1-0.2,0.2-0.2,0.3
		c-0.1,0.1-0.2,0.2-0.2,0.2s-0.1,0.1-0.1,0.2c0,0,0,0.1,0.1,0.2c0,0.1,0.1,0.1,0.1,0.2s0.1,0.1,0.2,0.2c0.1,0.1,0.1,0.1,0.2,0.2
		c0,0,0,0.1,0,0.1s0,0.1,0,0.1s0,0-0.1,0.1c0,0,0,0-0.1,0c-0.1,0-0.2-0.1-0.3-0.1c-0.1-0.1-0.2-0.1-0.2-0.2S51.1,53,51,52.9
		C50.9,52.8,50.9,52.8,50.9,52.7z M50.8,49.5c0,0-0.1,0.1-0.1,0.1c0,0.1-0.1,0.2-0.1,0.3c0,0.1-0.1,0.2-0.1,0.3
		c0,0.1-0.1,0.2-0.1,0.2c0.1,0,0.2-0.1,0.3-0.2c0.1-0.1,0.2-0.3,0.2-0.5C51,49.7,51,49.7,50.8,49.5C50.9,49.6,50.9,49.5,50.8,49.5z
		 M53.1,52.6c0,0-0.1,0.1-0.1,0.1c0,0-0.1,0.1-0.1,0.1c-0.1,0.1-0.1,0.1-0.2,0.2c0,0.1-0.1,0.1-0.2,0.1c-0.1,0-0.1,0-0.2-0.1
		s0-0.1,0-0.2c0,0,0,0,0.1-0.1c0,0,0-0.1,0.1-0.1c0.2-0.2,0.4-0.4,0.6-0.6s0.4-0.4,0.7-0.6c0,0,0.1,0,0.1,0c0,0,0.1,0,0.1,0
		s0.1,0.1,0.1,0.1c0,0,0,0.1,0,0.1S54,51.8,54,51.8c-0.1,0.1-0.1,0.1-0.2,0.2c-0.1,0.1-0.1,0.1-0.2,0.2s-0.1,0.1-0.1,0.1
		c0,0.1,0,0.2,0.1,0.3c0,0.1,0.1,0.2,0.1,0.3c0,0.1,0.1,0.2,0.2,0.3c0.1,0.1,0.1,0.1,0.1,0.2c0,0.1,0.1,0.1,0.1,0.2
		c0,0.1,0,0.1,0,0.1c-0.1,0-0.2,0-0.3-0.1c0,0-0.1-0.1-0.2-0.2c-0.1-0.1-0.1-0.1-0.1-0.2c0,0-0.1-0.1-0.1-0.2c0-0.1-0.1-0.1-0.1-0.2
		c0-0.1-0.1-0.1-0.1-0.2C53.1,52.7,53.1,52.6,53.1,52.6z M52.9,50.5c0-0.1,0-0.2,0-0.3c0-0.1,0-0.2,0-0.3c0-0.2,0.1-0.4,0.1-0.6
		s0.1-0.4,0.1-0.6c0-0.1,0.1-0.2,0.1-0.2c0-0.1,0.1-0.1,0.1-0.2c0,0,0.1-0.1,0.2-0.1c0.1,0,0.1,0,0.2,0c0,0,0,0,0.1,0.1
		c0,0,0,0,0,0.1c0,0.1,0,0.1,0,0.2s-0.1,0.1-0.1,0.2c-0.1,0.2-0.1,0.5-0.2,0.7s-0.1,0.5-0.1,0.8c0,0.1,0,0.2,0,0.3
		c0,0.1,0,0.2,0,0.2c0,0.1,0,0.1-0.1,0.2c0,0.1-0.1,0.1-0.1,0.1c0,0-0.1,0-0.1-0.1s0-0.1-0.1-0.1c0,0,0-0.1,0-0.1
		C52.9,50.6,52.9,50.5,52.9,50.5z"/>
	<path d="M55.5,50.9c0-0.1,0-0.2,0-0.3s0.1-0.2,0.1-0.3c0-0.1,0-0.1,0.1-0.2s0.1-0.2,0.1-0.4c0-0.1,0.1-0.2,0.1-0.4s0.1-0.2,0.1-0.2
		c0-0.1,0-0.2-0.2-0.2c-0.1,0-0.2,0-0.3,0c-0.1,0-0.2,0-0.3,0.1c-0.1,0-0.2,0.1-0.3,0.1c-0.1,0-0.2,0-0.2,0.1c-0.1,0-0.1,0-0.2,0
		c0,0-0.1-0.1-0.1-0.1c0,0,0-0.1,0-0.1s0-0.1,0.1-0.1c0,0,0.1,0,0.2-0.1s0.2-0.1,0.3-0.1c0.1,0,0.2-0.1,0.4-0.1c0.1,0,0.2,0,0.3,0
		c0.1,0,0.2,0,0.2,0c0.1,0,0.1,0,0.2,0.1c0.1,0,0.1,0.1,0.1,0.1s0,0.1,0,0.2c0,0.1,0,0.3-0.1,0.5c-0.1,0.2-0.1,0.3-0.2,0.5
		c0,0,0.1,0,0.2-0.1c0.1,0,0.1-0.1,0.2-0.1c0.1,0,0.1-0.1,0.2-0.1c0.1,0,0.1,0,0.2-0.1c0.1,0,0.2-0.1,0.3-0.1c0.1,0,0.2-0.1,0.3-0.1
		c0.1,0,0.2-0.1,0.3-0.1s0.2-0.1,0.3-0.1c0-0.1,0.1-0.2,0.1-0.4s0.1-0.2,0.1-0.3c0-0.1,0.1-0.1,0.1-0.1c0.1,0,0.1,0,0.1,0
		c0.1,0,0.2,0,0.2,0s0.1,0.1,0.1,0.2c0,0.1-0.1,0.2-0.1,0.3c0,0.1-0.1,0.2-0.1,0.3c-0.1,0.3-0.1,0.5-0.1,0.8c0,0.3,0,0.5,0,0.8
		c0,0,0,0.1-0.1,0.1c0,0-0.1,0-0.1,0c0,0-0.1,0-0.1,0c0,0-0.1-0.1-0.1-0.1s0-0.1,0-0.2c0-0.1,0-0.1,0-0.2l0-0.4c0-0.1,0-0.2,0-0.3
		c0-0.1,0-0.2,0-0.3c0,0-0.1,0-0.2,0.1c-0.1,0-0.2,0.1-0.2,0.1c-0.1,0-0.2,0.1-0.3,0.2c-0.1,0.1-0.3,0.1-0.4,0.2
		c-0.1,0.1-0.3,0.2-0.4,0.2s-0.2,0.2-0.3,0.2c0,0-0.1,0.1-0.1,0.2c0,0.1,0,0.1-0.1,0.2c0,0.1-0.1,0.1-0.1,0.1s-0.1,0.1-0.1,0.1
		c-0.1,0-0.2,0-0.2,0C55.5,51.1,55.5,51,55.5,50.9z M57.5,52.6c0,0-0.1,0.1-0.1,0.1c-0.1,0.1-0.1,0.1-0.1,0.2
		c-0.1,0.1-0.1,0.1-0.1,0.2c0,0.1-0.1,0.1-0.1,0.1c-0.1,0-0.1,0-0.2,0c-0.1,0-0.1-0.1-0.1-0.1c0-0.1,0-0.2,0.1-0.3
		c0.1-0.1,0.2-0.2,0.2-0.4c0.1-0.1,0.2-0.2,0.3-0.4c0.1-0.1,0.2-0.2,0.3-0.3s0.2-0.2,0.3-0.3c0,0,0,0,0.1,0c0,0,0.1,0,0.1,0
		c0,0,0.1,0,0.2,0s0.1,0.1,0.1,0.1c0,0,0,0.1-0.1,0.2s-0.1,0.1-0.1,0.2C58.1,52,58.1,52,58,52.1c-0.1,0.1-0.1,0.1-0.2,0.2
		c0,0,0,0.1,0.1,0.1c0,0.1,0.1,0.1,0.2,0.2c0.1,0.1,0.1,0.1,0.2,0.2s0.1,0.1,0.2,0.1c0.1,0,0.1,0.1,0,0.2c0,0.1-0.1,0.1-0.1,0.1
		c-0.1,0-0.2,0-0.3-0.1S58,53,57.9,53c-0.1-0.1-0.1-0.1-0.2-0.2C57.6,52.7,57.6,52.6,57.5,52.6z M59.6,51.9
		C59.6,52,59.6,52,59.6,51.9c-0.1,0.1-0.1,0.2-0.2,0.2c0,0-0.1,0.1-0.1,0.1c0,0-0.1,0.1-0.1,0.1c-0.1,0.1-0.1,0.1-0.1,0.2
		s-0.1,0.1-0.2,0.1c-0.1,0-0.1,0-0.2-0.1c0,0-0.1-0.1,0-0.2c0,0,0,0,0-0.1c0,0,0-0.1,0-0.1c0.2-0.3,0.4-0.5,0.6-0.7
		c0.2-0.2,0.4-0.5,0.6-0.7c0,0,0.1-0.1,0.1-0.1c0,0,0.1,0,0.1,0s0.1,0,0.1,0.1c0,0,0,0.1,0,0.1c0,0.1-0.1,0.2-0.1,0.3
		c-0.1,0.1-0.1,0.2-0.2,0.2c0,0.1,0.1,0.2,0.1,0.3s0.1,0.2,0.2,0.3s0.1,0.2,0.2,0.2c0.1,0.1,0.1,0.1,0.2,0.2c0,0.1,0.1,0.1,0.1,0.2
		c0,0.1,0,0.1,0,0.1c-0.1,0-0.2,0-0.3,0c-0.1,0-0.1-0.1-0.2-0.1c-0.1-0.1-0.1-0.1-0.2-0.2c0,0-0.1-0.1-0.1-0.1
		c0-0.1-0.1-0.1-0.1-0.2C59.7,52.2,59.7,52.1,59.6,51.9C59.6,52,59.6,52,59.6,51.9z M59.2,50.4c0-0.3,0.1-0.6,0.2-0.8
		s0.2-0.5,0.3-0.8c0,0,0-0.1,0.1-0.2c0-0.1,0.1-0.2,0.1-0.3c0-0.1,0.1-0.2,0.1-0.3s0-0.1,0.1-0.2c0-0.1,0.1-0.1,0.1-0.1
		c0.1,0,0.2,0,0.3,0.1c0.1,0,0.1,0.1,0.1,0.2c0,0.1,0,0.1-0.1,0.2c0,0.1-0.1,0.2-0.1,0.2c-0.1,0.1-0.1,0.3-0.2,0.5
		c0,0.2-0.1,0.3-0.2,0.5c-0.1,0.2-0.1,0.3-0.2,0.5s-0.1,0.3-0.2,0.5c0,0.1-0.1,0.1-0.1,0.1c0,0-0.1,0-0.1,0c-0.1,0-0.1,0-0.1-0.1
		C59.2,50.4,59.2,50.4,59.2,50.4z"/>
	<path d="M61.1,51c0-0.2,0-0.4,0.1-0.6c0.1-0.2,0.1-0.4,0.2-0.5c0,0,0-0.1,0.1-0.1c0-0.1,0-0.1,0.1-0.2c0,0,0.1-0.1,0.1-0.1
		c0,0,0.1,0,0.2,0c0.1,0,0.1,0,0.2,0c0.1,0,0.1,0.1,0.1,0.1c0,0,0,0.1,0,0.1s0,0.1-0.1,0.1c0.1,0,0.2,0.1,0.2,0.2s0.1,0.2,0.1,0.3
		c0,0.1,0,0.2-0.1,0.4S62.1,51,62,51.1c-0.1,0.1-0.1,0.2-0.2,0.3c-0.1,0.1-0.2,0.1-0.3,0.1c-0.1,0-0.2-0.1-0.3-0.1
		C61.2,51.3,61.1,51.2,61.1,51z M61.8,50.1c0,0-0.1,0.1-0.1,0.2c0,0.1-0.1,0.2-0.1,0.3c0,0.1,0,0.2-0.1,0.3s0,0.2,0,0.2
		c0.1,0,0.1,0,0.2-0.1c0-0.1,0.1-0.1,0.1-0.2c0-0.1,0.1-0.2,0.1-0.2s0-0.1,0-0.1c0,0,0-0.1,0-0.1C61.9,50.2,61.9,50.2,61.8,50.1z
		 M64.4,51.1c0,0,0-0.1,0-0.1s0-0.1,0-0.1l0.1-0.7c0,0-0.1,0-0.2,0.1c-0.1,0-0.1,0.1-0.2,0.1c-0.2,0.1-0.3,0.1-0.5,0.2
		s-0.3,0.1-0.5,0.2c-0.1,0-0.1,0-0.2,0.1s-0.1,0-0.2,0c-0.1,0-0.1,0-0.2,0c0,0-0.1-0.1-0.1-0.1c0,0,0-0.1,0-0.1s0-0.1,0.1-0.1
		c0,0,0,0,0,0c0,0,0.1,0,0.1,0c0,0,0.1,0,0.1,0c0,0,0,0,0.1,0c0.2,0,0.3-0.1,0.4-0.1c0.1,0,0.2-0.1,0.2-0.1c0,0,0.1,0,0.1,0
		c0,0,0.1,0,0.1,0c0.1,0,0.1,0,0.2-0.1c0.1,0,0.2-0.1,0.3-0.1c0.1,0,0.2-0.1,0.2-0.1c0.1-0.1,0.1-0.1,0.1-0.2c0,0,0-0.1,0-0.1
		s0-0.1,0-0.1c0,0,0-0.1,0-0.1c0,0,0,0,0-0.1c0,0,0-0.1,0.1-0.1c0.1,0,0.1,0,0.1,0c0.1,0,0.2,0,0.2,0.1c0,0,0.1,0.1,0.1,0.2
		c0,0.1,0,0.2-0.1,0.4c-0.1,0.1-0.1,0.2-0.1,0.3c-0.1,0.3-0.1,0.6-0.2,0.9c-0.1,0.3-0.1,0.6-0.1,0.9c0,0.1,0,0.3,0,0.4
		c0,0.1,0,0.3,0.1,0.4c0,0,0,0.1,0,0.1c0,0-0.1,0-0.1,0c-0.1,0-0.1,0-0.2-0.1c0,0-0.1-0.1-0.1-0.1c0,0,0-0.1-0.1-0.2
		c0-0.1,0-0.2,0-0.3c0-0.1,0-0.2,0-0.4C64.3,51.4,64.3,51.2,64.4,51.1z"/>
	<path d="M65.8,53c0,0,0-0.1,0-0.1c0,0,0-0.1,0.1-0.1c0,0,0.1,0,0.2-0.1c0.1,0,0.1,0,0.2-0.1c0.2-0.1,0.3-0.2,0.5-0.3
		c0.2-0.1,0.3-0.3,0.4-0.4c0.1-0.2,0.2-0.4,0.2-0.6c0.1-0.2,0.1-0.4,0.2-0.6c0-0.1,0.1-0.2,0.1-0.3c0-0.1,0.1-0.2,0.1-0.3
		c0,0,0-0.1,0-0.2c0-0.1,0-0.1,0-0.2c0-0.1,0-0.1,0.1-0.1c0,0,0.1-0.1,0.1-0.1c0.1,0,0.1,0,0.1,0.1c0,0,0,0.1,0,0.2
		c0,0.1,0,0.2,0,0.2s0,0.1-0.1,0.2c0,0.1-0.1,0.2-0.1,0.4c0,0.1-0.1,0.2-0.1,0.3s-0.1,0.2-0.1,0.3c0,0.1-0.1,0.2-0.1,0.4
		c0,0.1,0,0.1-0.1,0.2c0,0.1,0,0.1-0.1,0.2c0,0.1-0.1,0.1-0.1,0.2c0,0.1-0.1,0.1-0.1,0.2c0,0.1-0.1,0.1-0.2,0.2s-0.1,0.1-0.2,0.2
		c0.1,0,0.2,0,0.4,0c0.1,0,0.3,0,0.6,0c0.1,0,0.1,0,0.2,0c0.1,0,0.1,0,0.2,0c0.1,0,0.1,0,0.2,0c0.1,0,0.1,0,0.2,0c0,0,0.1,0,0.1,0.1
		s0,0.1,0,0.1c0,0.1-0.1,0.1-0.2,0.1c-0.1,0-0.3,0-0.5,0c-0.2,0-0.4,0-0.5,0c-0.1,0-0.3,0-0.4,0c-0.1,0-0.3,0-0.5,0
		c-0.1,0-0.3,0-0.4,0.1c-0.1,0-0.3,0-0.4,0c-0.1,0-0.1,0-0.2,0C65.9,53.2,65.8,53.1,65.8,53z M66,51.7c0-0.2,0-0.4,0.1-0.5
		c0.1-0.2,0.1-0.4,0.2-0.5c0,0,0-0.1,0.1-0.1s0.1-0.1,0.1-0.1c0.1,0,0.1,0,0.2,0.1c0.1,0,0.1,0.1,0.1,0.1c0,0.1,0,0.2-0.1,0.3
		c0,0.1-0.1,0.2-0.1,0.3c0,0.1-0.1,0.2-0.1,0.3c0,0.1-0.1,0.2-0.1,0.3c0,0.1,0,0.1,0,0.2c0,0,0,0.1,0,0.1c0,0,0,0.1,0,0.1
		c0,0,0,0-0.1,0c-0.1,0-0.1,0-0.2-0.1s-0.1-0.1-0.1-0.1c0-0.1,0-0.1,0-0.2C66,51.8,66,51.7,66,51.7z M66.2,49.6c0-0.1,0-0.2,0.1-0.4
		c0-0.1,0.1-0.2,0.2-0.3c0.1-0.1,0.1-0.2,0.2-0.3s0.1-0.1,0.2-0.2c0,0,0.1,0,0.1,0s0.1,0,0.1,0c0,0,0,0,0.1,0c0,0,0.1,0,0.1,0
		c0.1,0,0.2,0.1,0.3,0.2c0.1,0.1,0.1,0.2,0.1,0.3c0,0.1,0,0.2-0.1,0.4c0,0.1-0.1,0.2-0.2,0.3c-0.1,0.1-0.2,0.2-0.3,0.3
		s-0.3,0.1-0.4,0.1c-0.1,0-0.2,0-0.3-0.1C66.2,49.7,66.2,49.7,66.2,49.6z M67.1,48.7c0,0-0.1,0.1-0.2,0.1c-0.1,0.1-0.1,0.1-0.2,0.2
		c0,0.1-0.1,0.2-0.1,0.3c0,0.1,0,0.2,0,0.2c0.1,0,0.1,0,0.2-0.1c0.1,0,0.1-0.1,0.2-0.2s0.1-0.1,0.1-0.2c0-0.1,0.1-0.2,0.1-0.2
		C67.2,48.8,67.2,48.7,67.1,48.7z"/>
	<path d="M69.9,51.1c0-0.1,0-0.3,0.1-0.4c0-0.1,0.1-0.2,0.1-0.3c0.1-0.1,0.1-0.2,0.2-0.3c0.1-0.1,0.2-0.2,0.2-0.4
		c0.1-0.1,0.1-0.2,0.2-0.3c0.1-0.1,0.1-0.2,0.1-0.3S71,49,71,48.9c0-0.1,0-0.2,0-0.3c0-0.1-0.1-0.2-0.1-0.3
		c-0.1-0.1-0.2-0.1-0.4-0.1c-0.1,0-0.2,0-0.2,0c-0.1,0-0.1,0-0.2,0.1c-0.1,0-0.1,0.1-0.1,0.1c0,0.1,0,0.1,0,0.2c0,0.1,0,0.1,0.1,0.2
		c0,0.1,0,0.1,0.1,0.1c0,0,0,0.1,0,0.1c0,0-0.1,0-0.1,0c0,0-0.1,0-0.2,0c-0.1,0-0.1-0.1-0.1-0.1c-0.1-0.2-0.2-0.3-0.2-0.5
		c0-0.1,0-0.2,0.1-0.3c0.1-0.1,0.2-0.2,0.3-0.2c0.1-0.1,0.2-0.1,0.3-0.1c0.1,0,0.2,0,0.4,0c0.3,0,0.6,0.1,0.8,0.2
		c0.2,0.1,0.3,0.3,0.3,0.5c0,0.1,0,0.3,0,0.4c0,0.1-0.1,0.2-0.1,0.3c0,0.1-0.1,0.2-0.2,0.3c-0.1,0.1-0.1,0.2-0.2,0.3
		c0,0.1-0.1,0.2-0.2,0.3c-0.1,0.1-0.1,0.2-0.2,0.3c-0.1,0.1-0.1,0.2-0.2,0.3s-0.1,0.2-0.1,0.3c0,0.1,0,0.2,0,0.3c0,0.1,0,0.2,0,0.3
		c0,0.1,0,0.1-0.1,0.2c0,0-0.1,0-0.1,0c-0.1,0-0.1,0-0.2-0.1c0-0.1-0.1-0.1-0.1-0.2s0-0.2,0-0.2C69.9,51.2,69.9,51.2,69.9,51.1z
		 M69.8,53.1c0-0.1,0-0.1,0-0.2s0.1-0.1,0.2-0.1c0.1,0,0.2,0,0.3,0.1s0.1,0.2,0.2,0.3c0,0.1,0,0.2,0,0.3c0,0.1-0.1,0.1-0.2,0.1
		c-0.1,0-0.3,0-0.3-0.1C69.9,53.3,69.8,53.2,69.8,53.1z"/>
</g>
<path class="st2" d="M55.6-29.8c-2.7-2.7-6.4-3.4-8.8-2c-0.4,0.3-1,0.3-1.4,0c-2.5-1.5-6.2-0.7-8.8,2c-3,3.1-3.6,7.4-1.3,9.8
	s6.7,1.8,9.8-1.3l0,0c0.6-0.6,1.5-0.6,2,0l0,0l0,0c3.1,3,7.4,3.6,9.8,1.3S58.7-26.7,55.6-29.8z"/>
<circle class="st2" cx="34.8" cy="-16.7" r="1.5"/>
<circle class="st2" cx="33.9" cy="-12.4" r="1.5"/>
<path class="st2" d="M35.4-5.3c0,0.8-0.7,2.7-1.5,2.7s-1.5-1.9-1.5-2.8c0.1-0.8,0.9-1.4,1.7-1.3C34.7-6.4,35.2-5.9,35.4-5.3
	L35.4-5.3z"/>
<path class="st3" d="M35.4-9.9c-0.4,0-0.9,0.1-1.3,0.3c-0.2,0.1-0.4,0.1-0.7,0c-0.4-0.2-0.9-0.3-1.3-0.3c-0.6,0-1,0.4-1,1s0.4,1,1,1
	c0.4,0,0.9-0.1,1.3-0.3c0.2-0.1,0.4-0.1,0.7,0c0.4,0.2,0.8,0.3,1.3,0.3c0.6,0,1-0.4,1-1S35.9-9.9,35.4-9.9L35.4-9.9z"/>
<circle class="st2" cx="57.5" cy="-16.7" r="1.5"/>
<circle class="st2" cx="58.4" cy="-12.4" r="1.5"/>
<path class="st2" d="M56.9-5.3c0,0.8,0.6,2.7,1.4,2.7S60-4.4,60-5.3c0.1-0.8-0.4-1.6-1.3-1.7c-0.8-0.1-1.6,0.4-1.7,1.3
	C56.9-5.6,56.9-5.4,56.9-5.3L56.9-5.3z"/>
<path class="st3" d="M56.9-9.9c0.4,0,0.9,0.1,1.3,0.3c0.2,0.1,0.4,0.1,0.7,0c0.4-0.2,0.8-0.3,1.3-0.3c0.6,0,1,0.4,1,1s-0.4,1-1,1
	c-0.4,0-0.9-0.1-1.3-0.3c-0.2-0.1-0.4-0.1-0.7,0c-0.4,0.2-0.8,0.3-1.3,0.3c-0.6,0-1-0.4-1-1S56.3-9.9,56.9-9.9z"/>
<circle class="st4" cx="41.2" cy="-14.3" r="0.3"/>
<circle class="st4" cx="42.6" cy="-12.7" r="0.3"/>
<circle class="st4" cx="43.8" cy="-14.3" r="0.3"/>
<circle class="st4" cx="45.7" cy="-14.3" r="0.3"/>
<circle class="st4" cx="44.9" cy="-12" r="0.3"/>
<circle class="st4" cx="48.6" cy="-12" r="0.3"/>
<circle class="st4" cx="47" cy="-12.7" r="0.3"/>
<circle class="st4" cx="50.1" cy="-12.7" r="0.3"/>
<circle class="st4" cx="48.3" cy="-14.3" r="0.3"/>
<circle class="st4" cx="51" cy="-14.3" r="0.3"/>
</svg>
