<svg id="레이어_1" data-name="레이어 1" xmlns="http://www.w3.org/2000/svg" viewBox="0 0 119.24 110.51"><defs><style>.cls-1{fill:#c5c5c5;}.cls-2{fill:#ead3c7;}.cls-2,.cls-3,.cls-7,.cls-8{stroke:#000;}.cls-2,.cls-3{stroke-miterlimit:10;}.cls-3,.cls-7,.cls-8{fill:none;}.cls-4{fill:#dc4574;}.cls-5{fill:#ecbe2e;}.cls-6{fill:#56b69f;}.cls-7,.cls-8{stroke-linecap:round;stroke-linejoin:round;}.cls-8{stroke-width:0.25px;}</style></defs><rect class="cls-1" x="9.42" y="9.21" width="105.46" height="97.63" rx="3.13"/><rect class="cls-2" x="5.45" y="5.77" width="104.89" height="97.63" rx="3.13"/><line class="cls-3" x1="5.45" y1="13.49" x2="110.35" y2="13.49"/><circle class="cls-4" cx="9.94" cy="9.59" r="1.64"/><circle class="cls-5" cx="14.42" cy="9.59" r="1.64"/><circle class="cls-6" cx="18.9" cy="9.59" r="1.64"/><polyline class="cls-7" points="34.69 8.6 36.84 10.58 38.98 8.6 41.12 10.58 43.27 8.6 45.41 10.58 47.56 8.6 49.7 10.58 51.85 8.6 53.99 10.58 56.14 8.6 58.29 10.58 60.44 8.6 62.59 10.58 64.73 8.6 66.88 10.58 69.03 8.6 71.17 10.58 73.33 8.6 75.47 10.58 77.63 8.6 79.78 10.58 81.94 8.6"/><line class="cls-8" x1="13.41" y1="39.36" x2="101.26" y2="39.36"/><line class="cls-8" x1="13.41" y1="60.7" x2="101.26" y2="60.7"/><line class="cls-8" x1="13.41" y1="82.05" x2="101.26" y2="82.05"/></svg>