<svg id="레이어_1" data-name="레이어 1" xmlns="http://www.w3.org/2000/svg" viewBox="0 0 30.09 23.93"><defs><style>.cls-1{fill:#fff;}.cls-1,.cls-2{stroke:#000;stroke-linecap:round;stroke-linejoin:round;}.cls-2{fill:none;}.cls-3{fill:#b13636;}</style></defs><path class="cls-1" d="M14.35,8.75,13.26,6.63a.61.61,0,0,0-.55-.34H7.9a.63.63,0,0,0-.55.33l-1.07,2a.67.67,0,0,0-.08.3v8.94a.69.69,0,0,0,.7.69H20a.69.69,0,0,0,.69-.69V9.45a.7.7,0,0,0-.69-.7Z"/><line class="cls-2" x1="8.05" y1="8.75" x2="17.67" y2="8.75"/><path class="cls-3" d="M17.18,5.7a.26.26,0,0,0-.11,0l-.08,0a.82.82,0,0,1-.24.1,1.81,1.81,0,0,1-.27.06.17.17,0,0,1-.12,0,.23.23,0,0,1-.05-.12.66.66,0,0,1,0-.2s0-.12,0-.19a1.08,1.08,0,0,1,.1-.27,1,1,0,0,1,.15-.24l.12-.12a.18.18,0,0,1,.11,0h.05l.09,0a.26.26,0,0,0,.25-.05.22.22,0,0,0,.06-.24.32.32,0,0,0-.14-.17.54.54,0,0,0-.35-.08.62.62,0,0,0-.34.11,1,1,0,0,0-.17.14.8.8,0,0,0-.15.17.94.94,0,0,0-.12.18,1,1,0,0,0-.09.17,2.08,2.08,0,0,0-.15.4,1.36,1.36,0,0,0,0,.45.85.85,0,0,0,.1.35.56.56,0,0,0,.33.26.47.47,0,0,0,.17,0h.13l.17,0a.7.7,0,0,0,.19-.06A.75.75,0,0,0,17,6.29l.14-.08a.7.7,0,0,0,.16-.14.22.22,0,0,0,0-.31A.18.18,0,0,0,17.18,5.7Z"/><path class="cls-3" d="M18.53,6.06l-.06,0h-.06a.27.27,0,0,1-.06-.1l0-.16c0-.11,0-.22,0-.33s0-.22,0-.32c0-.28,0-.55,0-.81s0-.49,0-.72,0-.45.06-.66l.06-.61a.41.41,0,0,0,0-.23A.33.33,0,0,0,18.21,2a.32.32,0,0,0-.27,0,.23.23,0,0,0-.1.14.61.61,0,0,0,0,.15l0,.17c0,.06,0,.12,0,.18v.13s0,.08,0,.13l0,.28s0,.09,0,.12a2,2,0,0,0,0,.22l0,.37a1.27,1.27,0,0,0,0,.2c0,.13,0,.25,0,.37v.38q0,.36.06.72a2.67,2.67,0,0,0,.18.7.62.62,0,0,0,.15.21.52.52,0,0,0,.24.11h.07l.15,0a.45.45,0,0,0,.19-.11.29.29,0,0,0,.09-.29A.21.21,0,0,0,18.53,6.06Z"/><path class="cls-3" d="M19.67,5.49h0c0-.1,0-.2,0-.32s0-.23,0-.35V4.48a.39.39,0,0,0-.05-.2.24.24,0,0,0-.24-.14.32.32,0,0,0-.18.07.31.31,0,0,0-.12.31c0,.29.05.53.05.72s0,.34,0,.43,0,.07,0,.12,0,.11,0,.16,0,.1,0,.15a.62.62,0,0,0,0,.13.23.23,0,0,0,.06.12.18.18,0,0,0,.15.08h.1l.1,0a.2.2,0,0,0,.09-.14,1.93,1.93,0,0,0,0-.24,1.15,1.15,0,0,0,0-.26C19.69,5.67,19.68,5.59,19.67,5.49Z"/><path class="cls-3" d="M19.63,3.35a.59.59,0,0,0-.18-.13l-.16-.1-.13,0-.13,0a.24.24,0,0,0-.2.09.43.43,0,0,0-.06.17.29.29,0,0,0,.05.18.37.37,0,0,0,.13.12l.16.07.16.08.14.08a.39.39,0,0,1,.1.08.22.22,0,0,0,.14,0,.19.19,0,0,0,.19-.13.69.69,0,0,0,0-.13.31.31,0,0,0-.08-.21A.75.75,0,0,0,19.63,3.35Z"/><path class="cls-3" d="M21.54,5.7a.26.26,0,0,0-.11,0l-.08,0a.82.82,0,0,1-.24.1,1.81,1.81,0,0,1-.27.06.19.19,0,0,1-.12,0,.17.17,0,0,1,0-.12.47.47,0,0,1,0-.2s0-.12,0-.19a1.08,1.08,0,0,1,.1-.27A1,1,0,0,1,21,4.88l.12-.12a.18.18,0,0,1,.11,0h0l.09,0a.28.28,0,0,0,.26-.05.24.24,0,0,0,.05-.24.32.32,0,0,0-.14-.17.54.54,0,0,0-.35-.08.65.65,0,0,0-.34.11,1,1,0,0,0-.17.14,1.22,1.22,0,0,0-.15.17l-.12.18a1,1,0,0,0-.09.17,1.57,1.57,0,0,0-.14.4,1.14,1.14,0,0,0,0,.45.85.85,0,0,0,.1.35.56.56,0,0,0,.33.26.47.47,0,0,0,.17,0h.13l.17,0a.7.7,0,0,0,.19-.06l.19-.08.14-.08a1,1,0,0,0,.15-.14.22.22,0,0,0,0-.31A.18.18,0,0,0,21.54,5.7Z"/><path class="cls-3" d="M25.43,7.1h0a.36.36,0,0,0-.2-.07l-.12,0L25,7l-.08,0-.12-.07,0,0-.06-.06-.07-.06,0,0-.2-.25c-.06-.08-.13-.19-.22-.33a2.65,2.65,0,0,1-.23-.39c-.06-.13-.13-.27-.21-.41l-.1-.16L23.54,5a.26.26,0,0,0-.17-.11.3.3,0,0,0-.21.06.3.3,0,0,0-.11.22.48.48,0,0,0,.05.17,1.66,1.66,0,0,0,.13.27l.06.1.07.15.14.25c0,.08.1.17.15.25a2.11,2.11,0,0,0,.14.22,1.43,1.43,0,0,0,.14.2,1.51,1.51,0,0,0,.17.2,2.27,2.27,0,0,0,.22.22,1.14,1.14,0,0,0,.78.3l.22,0a.23.23,0,0,0,.18-.23A.23.23,0,0,0,25.43,7.1Z"/><path class="cls-3" d="M23.28,4.75c.12-.14.25-.27.37-.39A3.59,3.59,0,0,1,24,4l.06,0,.09-.06.08-.08a.2.2,0,0,0,.06-.15.24.24,0,0,0-.06-.17.22.22,0,0,0-.15-.08.3.3,0,0,0-.13,0l-.12,0a2.73,2.73,0,0,0-.52.37,3.92,3.92,0,0,0-.45.46l-.23.29,0,0v0a.88.88,0,0,1,0-.16c0-.06,0-.12,0-.2s0-.31,0-.45,0-.27,0-.41V2.59a.26.26,0,0,0-.11-.24.37.37,0,0,0-.21-.06.26.26,0,0,0-.26.22c0,.2,0,.4,0,.6s0,.63,0,.95a8.18,8.18,0,0,0,.08.89s0,.06,0,.12l0,.2,0,.21c0,.07,0,.12,0,.12l.07.39,0,.14s0,.08,0,.11a.31.31,0,0,0,.12.15.27.27,0,0,0,.17.06.33.33,0,0,0,.19-.06.23.23,0,0,0,.11-.22l0-.31a2.9,2.9,0,0,1,0-.34.34.34,0,0,1,0-.15l.08-.14L23,5.09a1.58,1.58,0,0,1,.12-.15Z"/><line class="cls-2" x1="17.12" y1="9.06" x2="17.12" y2="10.96"/><line class="cls-2" x1="12.69" y1="11.62" x2="14.33" y2="12.57"/><line class="cls-2" x1="12.69" y1="16.74" x2="14.33" y2="15.79"/><line class="cls-2" x1="17.12" y1="19.29" x2="17.12" y2="17.4"/><line class="cls-2" x1="21.55" y1="16.74" x2="19.91" y2="15.79"/><line class="cls-2" x1="21.55" y1="11.62" x2="19.91" y2="12.57"/><polygon class="cls-1" points="24.11 16.93 17.35 14.18 20.09 20.94 20.4 18.21 23.06 20.88 24.1 19.84 21.47 17.22 24.11 16.93"/></svg>