<svg id="레이어_1" data-name="레이어 1" xmlns="http://www.w3.org/2000/svg" xmlns:xlink="http://www.w3.org/1999/xlink" viewBox="0 0 95.24 103.71"><defs><style>.cls-1,.cls-19,.cls-38,.cls-4{fill:none;}.cls-2{fill:#c5c5c5;}.cls-22,.cls-23,.cls-27,.cls-3,.cls-41{fill:#fff;}.cls-12,.cls-19,.cls-20,.cls-21,.cls-23,.cls-24,.cls-27,.cls-28,.cls-29,.cls-3,.cls-30,.cls-31,.cls-34,.cls-39,.cls-4,.cls-40,.cls-41,.cls-42,.cls-43,.cls-44{stroke:#000;}.cls-12,.cls-20,.cls-21,.cls-24,.cls-27,.cls-28,.cls-3,.cls-30,.cls-31,.cls-38,.cls-39,.cls-4,.cls-40,.cls-41,.cls-42,.cls-43,.cls-44{stroke-miterlimit:10;}.cls-5{fill:#dc4574;}.cls-6{fill:#ecbe2e;}.cls-7{fill:#56b69f;}.cls-8{fill:#5c70df;}.cls-9{fill:#45ac87;}.cls-10{fill:#cd7c98;}.cls-11,.cls-40{fill:#b13636;}.cls-13{fill:#f1c138;}.cls-14{fill:#b0d6df;}.cls-15{fill:#95805e;}.cls-16{fill:#dcbfae;}.cls-17{fill:#7f428d;}.cls-18{fill:#9ab48b;}.cls-19,.cls-23,.cls-29,.cls-34,.cls-38{stroke-linecap:round;}.cls-19,.cls-23,.cls-29,.cls-34{stroke-linejoin:round;}.cls-20{fill:#ac3e4c;}.cls-21{fill:#26603e;}.cls-24{fill:#e9d350;}.cls-25,.cls-29{fill:#e7eed7;}.cls-26{clip-path:url(#clip-path);}.cls-27,.cls-28{stroke-width:0.5px;}.cls-28{fill:#9a9a9a;}.cls-30{fill:#d7d7d7;}.cls-31{fill:#56886b;}.cls-32{clip-path:url(#clip-path-2);}.cls-33{fill:#99c326;}.cls-34{fill:#e4cb51;}.cls-35{clip-path:url(#clip-path-3);}.cls-36{clip-path:url(#clip-path-4);}.cls-37{clip-path:url(#clip-path-5);}.cls-38{stroke:#bb9026;}.cls-39{fill:#4a6ccb;}.cls-41{stroke-width:0.7px;}.cls-42{fill:#aea484;}.cls-43{fill:#68adae;}.cls-44,.cls-45{fill:#e78192;}.cls-46{font-size:4.58px;font-family:NotoSansCJKkr-Bold-KSCpc-EUC-H, Noto Sans CJK KR;}.cls-47{letter-spacing:-0.04em;}.cls-48{letter-spacing:-0.02em;}.cls-49{letter-spacing:-0.01em;}</style><clipPath id="clip-path"><path class="cls-1" d="M30.26,82.78s-1.33,1.22-.79,2.15,3.38.92,3.93.42.46,0,2.15.12,4.44.46,6.83-.92c.35-.21.19-.94.19-1.29s0-1.39-1.68-1.71-3-.61-3.92-.88-2.35-2-3.09-1.42-2.34,1.1-3.06,0C30.65,79,29.88,78.84,30.26,82.78Z"/></clipPath><clipPath id="clip-path-2"><path class="cls-1" d="M75,53.27H71.17a.46.46,0,0,1-.45-.42l-.32-4.63a.45.45,0,0,1,.45-.5h4.54a.46.46,0,0,1,.46.5l-.39,4.63A.47.47,0,0,1,75,53.27Z"/></clipPath><clipPath id="clip-path-3"><circle class="cls-1" cx="44.53" cy="47.29" r="4.05"/></clipPath><clipPath id="clip-path-4"><circle class="cls-1" cx="44.53" cy="57.6" r="7.69"/></clipPath><clipPath id="clip-path-5"><path class="cls-1" d="M44.54,60.42S56.77,52,52,49c-.75-.47-.89-1.31-.27-1.64,1.13-.59,4.61,2.11,2.59,5.92-2.16,4.05-8.8,9.09-8.8,9.09Z"/></clipPath></defs><rect class="cls-2" x="6.3" y="9.24" width="86.08" height="92.23" rx="3.13"/><rect class="cls-3" x="3.64" y="5.06" width="85.2" height="92.23" rx="3.13"/><line class="cls-4" x1="3.64" y1="12.79" x2="88.84" y2="12.79"/><circle class="cls-5" cx="8.12" cy="8.88" r="1.64"/><circle class="cls-6" cx="12.61" cy="8.88" r="1.64"/><circle class="cls-7" cx="17.09" cy="8.88" r="1.64"/><rect class="cls-8" x="45.89" y="73.84" width="18.02" height="16.76"/><rect class="cls-9" x="26.3" y="73.84" width="19.59" height="16.76"/><rect class="cls-10" x="63.88" y="35.11" width="18.48" height="20.84"/><path class="cls-11" d="M63.91,56H82a0,0,0,0,1,0,0V85.48A5.12,5.12,0,0,1,76.9,90.6h-13a0,0,0,0,1,0,0V56A0,0,0,0,1,63.91,56Z"/><rect class="cls-12" x="45.89" y="73.84" width="17.49" height="13.74" rx="1.68"/><rect class="cls-13" x="26.3" y="35.34" width="37.61" height="38.51"/><rect class="cls-14" x="9.77" y="35.38" width="16.54" height="18.8"/><path class="cls-15" d="M9.77,73.84H26.3a0,0,0,0,1,0,0V90.38a0,0,0,0,1,0,0H13.79a4,4,0,0,1-4-4V73.84A0,0,0,0,1,9.77,73.84Z"/><path class="cls-16" d="M63.91,18.93H82a0,0,0,0,1,0,0V35.47a0,0,0,0,1,0,0H67.94a4,4,0,0,1-4-4V18.93A0,0,0,0,1,63.91,18.93Z" transform="translate(145.92 54.39) rotate(180)"/><path class="cls-17" d="M14,18.35H63.91a0,0,0,0,1,0,0v17a0,0,0,0,1,0,0H9.77a0,0,0,0,1,0,0V22.55A4.2,4.2,0,0,1,14,18.35Z"/><rect class="cls-18" x="9.77" y="54.47" width="16.54" height="19.37"/><rect class="cls-19" x="9.77" y="18.35" width="72.25" height="72.25" rx="4.36"/><line class="cls-19" x1="9.85" y1="35.34" x2="82.02" y2="35.34"/><line class="cls-19" x1="63.91" y1="55.95" x2="82.02" y2="55.95"/><line class="cls-19" x1="9.77" y1="54.47" x2="26.3" y2="54.47"/><line class="cls-19" x1="9.77" y1="73.84" x2="63.91" y2="73.84"/><line class="cls-19" x1="63.91" y1="18.35" x2="63.91" y2="90.01"/><line class="cls-19" x1="45.89" y1="73.84" x2="45.89" y2="90.01"/><line class="cls-19" x1="26.3" y1="35.34" x2="26.3" y2="90.01"/><path class="cls-20" d="M17,58.48l-2.89,7.69A1,1,0,0,0,15,67.53h5.79a1,1,0,0,0,.94-1.36l-2.89-7.69A1,1,0,0,0,17,58.48Z"/><rect class="cls-21" x="13.65" y="67.53" width="8.55" height="1.84" rx="0.91"/><path d="M16.34,65.26a.16.16,0,0,1-.16.15.15.15,0,0,1-.15-.15c0-.09.07-.37.15-.37S16.34,65.17,16.34,65.26Z"/><path d="M17.9,65.26a.15.15,0,0,1-.15.15.16.16,0,0,1-.16-.15c0-.09.07-.37.16-.37S17.9,65.17,17.9,65.26Z"/><path d="M17.9,61.29a.16.16,0,0,1-.15.16.16.16,0,0,1-.16-.16c0-.08.07-.36.16-.36S17.9,61.21,17.9,61.29Z"/><path d="M17.18,63.23a.15.15,0,0,1-.15.15.15.15,0,0,1-.15-.15c0-.09.07-.37.15-.37S17.18,63.14,17.18,63.23Z"/><path d="M18.74,63.23a.15.15,0,0,1-.15.15.16.16,0,0,1-.16-.15c0-.09.07-.37.16-.37S18.74,63.14,18.74,63.23Z"/><path d="M19.44,65.26a.15.15,0,1,1-.3,0c0-.09.07-.37.15-.37S19.44,65.17,19.44,65.26Z"/><path class="cls-22" d="M21.26,24.18l.08,0a.35.35,0,0,1,.12.1l.09.17.06.15a.32.32,0,0,1,0,.08v.06a1,1,0,0,1,.09.32c0,.11,0,.24,0,.4v1.13a.71.71,0,0,0,0,.14.76.76,0,0,1,0,.15c0,.22,0,.44-.06.67a4.64,4.64,0,0,1-.11.65v.1l-.11.28a.76.76,0,0,1,0,.21.64.64,0,0,1-.06.18c-.17.29-.31.53-.44.71a3.24,3.24,0,0,1-.37.42l-.19.2-.22.2-.1.08a2.3,2.3,0,0,1-.2.17l-.13.1a.37.37,0,0,1-.17.05.15.15,0,0,1-.1,0,.16.16,0,0,1-.06-.08s0,0,0-.08a.18.18,0,0,1,0-.05.34.34,0,0,1,.05-.17l.09-.07.05-.07.12-.08,0,0,0-.05.07-.06.12-.11A.2.2,0,0,0,20,30a.08.08,0,0,0,0-.06l0-.06.07-.08a.47.47,0,0,1,.05-.1l.06-.1a.11.11,0,0,0,0-.05.15.15,0,0,0,0-.06l.06-.09,0-.09.06-.18,0-.08,0-.11,0-.08c0-.12.05-.27.08-.44s0-.35.06-.55l0-.05v-.12a.25.25,0,0,0,0-.07.15.15,0,0,1,0-.07.16.16,0,0,1,0-.08.28.28,0,0,0,0-.13v-.11a.22.22,0,0,1,0-.08v-.2a.27.27,0,0,1,0-.12v0a.08.08,0,0,1,0,0v-.05l0-.08s0,0,0,0,0,0,0,0l0-.12v-.11l0-.09V26l0-.05s0-.07,0-.1,0-.06,0-.09a.29.29,0,0,0,0-.09s0-.05,0-.07l0-.11,0-.06,0-.11a.2.2,0,0,0,0-.1v-.11a.49.49,0,0,1,0-.12s0-.07,0-.11v-.26s0-.07,0-.14a.25.25,0,0,1,.09-.19.33.33,0,0,1,.14-.1l0,0,.12,0Z"/><path class="cls-22" d="M24.89,29.8l-.06-.15v0a.14.14,0,0,1,0-.06l0-.06v-.06l0-.09v-.11a1.17,1.17,0,0,0,0-.23.36.36,0,0,0,0-.11,0,0,0,0,1,0,0l-.14.17-.1.12,0,.09-.11.13-.15.16-.1.11L24,29.7l-.06.05-.06,0-.08,0-.1,0-.3.06a2,2,0,0,1-.35,0l-.16-.07a.56.56,0,0,1-.09-.14,1.5,1.5,0,0,0-.09-.18l0-.1v-.08a1.24,1.24,0,0,1,0-.16l0-.16s0,0,0-.06a.11.11,0,0,1,0,0,.34.34,0,0,0,0-.1.17.17,0,0,0,0-.1.15.15,0,0,1,0-.07V28.6a5.61,5.61,0,0,1,.06-.59,5,5,0,0,1,.1-.56l0-.05v-.09l.05-.1a1.33,1.33,0,0,1,.06-.28.48.48,0,0,1,.08-.18.41.41,0,0,1,.2-.13l0,0,.09,0h.1a.15.15,0,0,1,.16.11.69.69,0,0,1,0,.25V27a.31.31,0,0,1,0,.1.16.16,0,0,1,0,.07v0s0,.08,0,.19l0,.07v.12l0,.11v.17a.17.17,0,0,1,0,.07l0,.18v.29l0,.1c0,.12,0,.27,0,.42a2.81,2.81,0,0,0,.08.4h0a3.44,3.44,0,0,0,.58-.61c.2-.26.39-.53.58-.82a.45.45,0,0,1,0-.13.61.61,0,0,0,0-.15.06.06,0,0,0,0,0v-.13s0,0,0-.06a.52.52,0,0,1,0-.11s0-.09,0-.16V27l0-.05a.17.17,0,0,1,0-.1.14.14,0,0,1,0-.09v-.1a.4.4,0,0,0,.06-.13l0-.09.1-.22a.16.16,0,0,1,.16-.11.29.29,0,0,1,.19.06.47.47,0,0,1,.11.13l.07.06.06.46c0,.11,0,.2,0,.28s0,.17,0,.26v.11a.66.66,0,0,0,0,.13v.15l0,0v.1l0,.36v.3s0,.07,0,.12v.61l0,.09a.29.29,0,0,1,0,.09.89.89,0,0,1,0,.11l0,.09a.24.24,0,0,1,0,.07.27.27,0,0,0,0,.11l-.1.06a1.18,1.18,0,0,1-.29.05h-.07l-.06,0Z"/><path class="cls-22" d="M27.82,25.85l-.06,0-.13.1-.08.09,0,0,0,0,0,.05h0a1.41,1.41,0,0,0-.1.52,1.84,1.84,0,0,0,0,.33c0,.12,0,.22,0,.29s0,.13.05.2a1.11,1.11,0,0,0,.08.24l.12.37.08.25a1,1,0,0,1,.06.23,1.57,1.57,0,0,1,0,.23,2.81,2.81,0,0,1,0,.3v.17a.59.59,0,0,1,0,.13c0,.05,0,.08,0,.11l-.06.17-.09.15a.35.35,0,0,0-.05.08l-.08.13-.1.14a.69.69,0,0,1,0,.1l-.06.1s0,0-.06.06l-.07.08a1.7,1.7,0,0,1-.22.24c-.07.08-.15.15-.22.22l-.08.07-.14.08-.09,0-.09,0h-.05s-.06,0-.1,0l0,0a.17.17,0,0,1-.12-.18.85.85,0,0,1,.09-.19l.1-.12.15-.16.21-.21.06-.12.07-.11,0-.06,0-.05.11-.17a1.09,1.09,0,0,0,.09-.21s0,0,0,0,0-.05,0-.1a.93.93,0,0,0,0-.24l0-.1a2.32,2.32,0,0,0-.08-.58,3.28,3.28,0,0,0-.09-.32.9.9,0,0,1-.08-.21c0-.06-.05-.13-.08-.2l0-.05-.07-.09a.4.4,0,0,1,0-.17.22.22,0,0,0,0-.13.31.31,0,0,1-.05-.13v-.05a.54.54,0,0,1,0-.08.34.34,0,0,1,0-.15v-.1a.19.19,0,0,0,0-.08.34.34,0,0,0,0-.1v-.09a.41.41,0,0,1,0-.12.64.64,0,0,0,0-.09s0-.06,0-.08a.54.54,0,0,1,.07-.13.44.44,0,0,1,.09-.11.36.36,0,0,1,.06-.11l.09-.08a.4.4,0,0,1,.1-.12.74.74,0,0,1,.16-.12.69.69,0,0,1,.19-.1l.18-.08.06,0,.08,0a.16.16,0,0,0,.09,0l.08,0H28a.12.12,0,0,1,.09,0,.3.3,0,0,1,.07.08v.08a0,0,0,0,1,0,0,.13.13,0,0,1-.05.11.33.33,0,0,1-.1.06Z"/><path class="cls-22" d="M29.26,29.78l-.05-.2.05-.08,0-.06V29.3a.17.17,0,0,1,0-.08.11.11,0,0,1,0-.08v-.06l0-.06v-.19h0v-.06a.82.82,0,0,0,0-.14v-.29a2,2,0,0,0,.09-.31c0-.14.05-.28.08-.43s0-.25.06-.33l0-.17-.68.1a.12.12,0,0,1-.11,0h-.12a.53.53,0,0,1-.23,0l-.08-.1a.22.22,0,0,1,0-.18.57.57,0,0,1,.17-.09,1.63,1.63,0,0,1,.31-.11l.42-.06.43-.06a.25.25,0,0,0,0-.07.17.17,0,0,1,0-.05l.06-.23a2.16,2.16,0,0,0,.05-.32l0-.06,0,0v0a.25.25,0,0,1,0-.07.11.11,0,0,1,0-.05l0-.05,0,0,0-.06v-.11a1.07,1.07,0,0,0,.07-.19c0-.06,0-.12.07-.17a.67.67,0,0,1,.12-.2.29.29,0,0,1,.23-.1.18.18,0,0,1,.18.08.62.62,0,0,1,.1.2l.06.09v.19a1.62,1.62,0,0,1,0,.21c0,.07,0,.11,0,.15s0,.2,0,.3l0,.28v.1s0,.06,0,.1l.41,0,.42,0h.06l.09,0h.1a.33.33,0,0,1,.05.21.79.79,0,0,1-.06.22.19.19,0,0,0-.09,0l0,0h0a.15.15,0,0,1-.08,0,.18.18,0,0,1-.1,0H31l-.22,0-.27,0V27h0a.16.16,0,0,0,0,.06l0,0,0,.1v.15l-.09.36,0,.13,0,.09a1.25,1.25,0,0,1,0,.15q0,.09,0,.21l0,.16c0,.05,0,.1,0,.13l-.05.24a.77.77,0,0,1,0,.15c0,.05,0,.1,0,.14v.11l-.07.11v.11a.45.45,0,0,1,0,.08s0,0,0,.06a.13.13,0,0,1,0,.06s0,0,0,.06a.31.31,0,0,1,0,.08.06.06,0,0,1,0,0,.1.1,0,0,1,0,.07l0,.05v0l-.16.09h-.27a.37.37,0,0,1-.14-.07Z"/><path class="cls-22" d="M36.23,29.27a.37.37,0,0,1-.06-.1.27.27,0,0,1,.07-.15l0,0,.1-.12a1.33,1.33,0,0,0,.12-.12l.08-.09,0-.07.08-.11a.21.21,0,0,0,.06-.1.32.32,0,0,1,0-.09l0-.09,0-.07a.15.15,0,0,1,0-.06,1.41,1.41,0,0,0,.12-.27,1.09,1.09,0,0,1,.07-.24,1.46,1.46,0,0,1,0-.17c0-.05,0-.09,0-.13a.69.69,0,0,1,0-.13l0-.05a.3.3,0,0,0,0-.09q0-.07,0-.18a2.82,2.82,0,0,0,0-.32s0,0,0-.08l0-.14,0-.18a.37.37,0,0,1-.06-.1l0-.1a.46.46,0,0,0-.18-.19l-.27-.15-.4-.1-.19,0-.36-.1a.31.31,0,0,0-.14-.07h-.4l-.25,0h-.35l-.1,0-.11,0c0-.05-.08-.09-.08-.13a.22.22,0,0,1,.06-.18.34.34,0,0,1,.15-.06h.52a.68.68,0,0,1,.17,0h.44l.31,0,.05,0,0,0,.13,0,.45.11.43.13.3.11.16.1a.69.69,0,0,1,.17.17l.07.06.06,0,0,.08,0,0s0,0,0,0l0,.06.08.12L38,26a.76.76,0,0,1,0,.11,1.47,1.47,0,0,1,0,.27,1.31,1.31,0,0,1,0,.17v.07l0,.06,0,.12a.5.5,0,0,1,0,.16l-.06.16a.49.49,0,0,0-.07.19.78.78,0,0,1,0,.22,1.08,1.08,0,0,1-.16.28c-.08.17-.15.3-.21.41a.85.85,0,0,1-.24.26.48.48,0,0,1-.09.25l-.12.16-.16.2-.11,0a.35.35,0,0,1-.24.12l0,0-.1.05h-.11l-.11,0Zm-1-3.78c.1,0,.16,0,.18.08a.77.77,0,0,1,.07.16.18.18,0,0,0,.06.08.23.23,0,0,1,.07.16l.07.3a.26.26,0,0,1,.06.13,1.68,1.68,0,0,0,0,.2.77.77,0,0,0,0,.15.78.78,0,0,0,0,.14.17.17,0,0,0,0,.1l.05.09a.37.37,0,0,1,0,.12v.24a.88.88,0,0,0,.06.27l0,0a.54.54,0,0,1,0,.24v.14s0,.05,0,.07v.08a.86.86,0,0,0,0,.15.24.24,0,0,0,0,.14.34.34,0,0,1,0,.1s0,.07,0,.13l0,.08,0,.07s0,0,0,.07a.51.51,0,0,1,0,.09.39.39,0,0,1,0,.15l0,.19a.19.19,0,0,1,0,.07.39.39,0,0,1,0,.06l-.11.11a.64.64,0,0,0-.19.08.26.26,0,0,1-.18.07l-.06,0-.13,0a2.12,2.12,0,0,0-.11-.21c0-.08-.06-.17-.09-.28a2.73,2.73,0,0,1-.07-.37c0-.15,0-.33,0-.53s0-.31-.06-.56,0-.5-.08-.77,0-.34,0-.47,0-.24,0-.37a.23.23,0,0,0,0-.07.66.66,0,0,1,0-.15.49.49,0,0,1,0-.15.77.77,0,0,1,.08-.19.61.61,0,0,1,.12-.15A.23.23,0,0,1,35.19,25.49Z"/><path class="cls-22" d="M41,26.08a.68.68,0,0,1,.12.12.76.76,0,0,1,.11.14,1.76,1.76,0,0,1,.18.87l0,.13v.21l0,.14,0,.09,0,.12a4.67,4.67,0,0,1-.23.5c-.09.15-.17.29-.26.41a.25.25,0,0,1,0,.07l0,.08-.11.09-.07.09-.06.09-.07.1-.12.09h-.06l0,0a.35.35,0,0,1-.18.13.68.68,0,0,1-.22.05.94.94,0,0,1-.54-.17l-.12-.1a.49.49,0,0,1-.12-.15s0-.05,0-.09,0,0,0,0v0a.46.46,0,0,1,0-.14.61.61,0,0,1-.05-.18.68.68,0,0,1,0-.14v-.14a0,0,0,0,1,0,0v-.08s0,0,0,0l0-.07,0-.14V28l0-.09c0-.07,0-.12.05-.17l0-.14a.14.14,0,0,0,0-.06l0,0,.07-.18a.5.5,0,0,0,.08-.21,1.61,1.61,0,0,1,.09-.26.72.72,0,0,1,.16-.21.43.43,0,0,1,0-.07l0-.08a.17.17,0,0,1,.06-.09h.1l.07-.05s.06,0,.07-.06l.13,0h.19l.08.06a.45.45,0,0,1,.14-.1l0,0,0,0a.36.36,0,0,1,.12-.08l.11,0h.06l.13,0Zm-.77.63a.09.09,0,0,1-.09-.08,2.08,2.08,0,0,0-.19.29c0,.11-.09.22-.13.33l-.09.31c0,.1,0,.18,0,.25v.09a.2.2,0,0,0,0,.07s0,.07,0,.1a.38.38,0,0,1,0,.1l0,.07,0,0c0,.05,0,.09,0,.13a.5.5,0,0,0,0,.12,1.06,1.06,0,0,0,0,.31.3.3,0,0,0,.09.19.24.24,0,0,0,.15,0,1,1,0,0,0,.16-.19.8.8,0,0,1,.15-.2h0l0-.06.09-.14c.09-.14.18-.29.27-.46a2,2,0,0,0,.17-.5,1.86,1.86,0,0,0,0-.34.81.81,0,0,0-.14-.52.08.08,0,0,0-.07,0l-.06,0-.05.05a.35.35,0,0,0-.06.09s0,.07-.08.08l-.11,0a.11.11,0,0,1-.09-.05Z"/><path class="cls-22" d="M46.08,25.65h0l-.11-.06h-.14l-.17,0-.15,0-.11,0a.08.08,0,0,1-.08,0s-.07,0-.09,0h-.06l-.05,0h0l-.17,0a.41.41,0,0,0-.16,0l-.12-.06h-.08a.15.15,0,0,1-.08-.05.14.14,0,0,1,0-.07.18.18,0,0,1,0-.13.19.19,0,0,1,.11-.11,1,1,0,0,1,.17-.1,7.28,7.28,0,0,1,.73-.09,3.76,3.76,0,0,1,.74,0,.36.36,0,0,1,.18.09.74.74,0,0,1,0,.12l0,.1a.69.69,0,0,1,0,.1l0,0a.2.2,0,0,0,0,.08Zm-.26,3.51,0,.09,0,.08h.44a.37.37,0,0,1,.18.08.34.34,0,0,1,0,.21,1.64,1.64,0,0,1-.12.22h-.11l-.1-.05s0,0,0,0h0l-.24,0a.69.69,0,0,0-.2,0l0,0a.27.27,0,0,1-.12,0h-.1l-.1,0-.22,0-.17,0a.05.05,0,0,1,0,0s0,0-.06,0H44.6l-.08,0a.56.56,0,0,1,0-.08s0-.09,0-.12a.17.17,0,0,1,.1-.11.33.33,0,0,1,.16-.07l.25,0c0-.07,0-.13,0-.19a.69.69,0,0,1,0-.2,0,0,0,0,1,0,0,0,0,0,0,0,0,0l0-.12a1.77,1.77,0,0,0,0-.24,2.44,2.44,0,0,1,0-.28V28.1a1.48,1.48,0,0,1,0-.21V27.8a1.1,1.1,0,0,1,0-.21s0-.07,0-.1a.81.81,0,0,0,0-.17,1.34,1.34,0,0,1,0-.19A.58.58,0,0,1,45,27a1.91,1.91,0,0,1,0-.34,1.28,1.28,0,0,1,0-.27l0-.08a1.56,1.56,0,0,1,0-.16.54.54,0,0,1,.13-.17l.06-.07a.09.09,0,0,1,.07,0c.06,0,.1,0,.11,0a.46.46,0,0,0,.07.07.29.29,0,0,1,.11.11l.09.14,0,.1a.15.15,0,0,1,0,.07s0,0,0,0v.21a.79.79,0,0,0,0,.17.32.32,0,0,1,0,.14c0,.22,0,.36,0,.42a.68.68,0,0,0,0,.12v.75l0,.06,0,0a1.47,1.47,0,0,1,0,.32,2.34,2.34,0,0,1,0,.38v.07Z"/><path class="cls-22" d="M47.51,29.78l0-.2,0-.08,0-.06V29.3a.45.45,0,0,1,0-.08.19.19,0,0,1,0-.08v-.06l0-.06v-.19h0v-.06a.42.42,0,0,0,0-.14s0-.07,0-.1v-.19a1,1,0,0,0,.09-.31l.09-.43a1.94,1.94,0,0,1,.05-.33l0-.17-.69.1a.11.11,0,0,1-.1,0h-.13a.54.54,0,0,1-.23,0l-.07-.1a.22.22,0,0,1,0-.18.45.45,0,0,1,.17-.09,1.63,1.63,0,0,1,.31-.11l.42-.06.43-.06a.25.25,0,0,0,0-.07.06.06,0,0,1,0-.05c0-.07,0-.15.05-.23s0-.19.06-.32a.16.16,0,0,1,0-.06l0,0v0l0-.07v-.05a.11.11,0,0,1,0-.05.1.1,0,0,1,0,0l0-.06v-.11c0-.06.05-.12.07-.19a.87.87,0,0,1,.07-.17.67.67,0,0,1,.12-.2.27.27,0,0,1,.22-.1.2.2,0,0,1,.19.08.62.62,0,0,1,.1.2l.06.09v.19a1.46,1.46,0,0,1,0,.21.62.62,0,0,1,0,.15c0,.1,0,.2,0,.3l0,.28s0,.06,0,.1a.38.38,0,0,1,0,.1l.42,0,.41,0h.07l.09,0h.1a.32.32,0,0,1,0,.21.55.55,0,0,1-.06.22.16.16,0,0,0-.08,0l0,0h0l-.08,0a.16.16,0,0,1-.1,0h-.29l-.22,0-.26,0V27s0,0,0,0a.06.06,0,0,0,0,.06l0,0,0,.1v.15l-.1.36,0,.13,0,.09a.92.92,0,0,1,0,.15l0,.21a.5.5,0,0,0,0,.16c0,.05,0,.1,0,.13l0,.24c0,.05,0,.1,0,.15a.59.59,0,0,1,0,.14v.11l-.06.11v.11a.45.45,0,0,1,0,.08s0,0,0,.06,0,0,0,.06,0,0,0,.06,0,.05,0,.08a.16.16,0,0,0,0,0,.16.16,0,0,1,0,.07l-.06.05v0l-.16.09h-.27A.42.42,0,0,1,47.6,30Z"/><path class="cls-22" d="M53.67,30l-.09,0-.09,0a.54.54,0,0,1-.19.05.43.43,0,0,1-.23-.05.18.18,0,0,1-.11-.17.45.45,0,0,1,0-.11v-.14a1.35,1.35,0,0,0,0-.22v-.28l.07-.06a.08.08,0,0,1,0-.07s0,0,.06,0l0,0v0l0-.07.09-.06.09,0v-.09h.26a.12.12,0,0,1,.12.06.37.37,0,0,1,0,.11s.06,0,.12,0a1.35,1.35,0,0,1,0,.22c0,.06,0,.11,0,.15l0,.1a.29.29,0,0,1,0,.09,1.16,1.16,0,0,1,0,.18,1.11,1.11,0,0,0,0,.19v.06s0,0,0,.08Zm1.07-6.37a.75.75,0,0,1,.06.31,1,1,0,0,1,0,.25c0,.09-.05.16-.07.23l0,.11,0,.11c-.07.29-.12.49-.15.63s-.06.22-.07.28,0,.15,0,.21a1.1,1.1,0,0,0,0,.18V26a.77.77,0,0,0-.09.2l-.06.29a.52.52,0,0,0,0,.11s0,.07,0,.1a1.09,1.09,0,0,0-.08.15L54,27l-.06.13.05,0a.48.48,0,0,1-.09.19l-.14.09,0,0s0,0,0,0a.4.4,0,0,1-.13.1l-.08,0c-.17,0-.27,0-.3-.11a.72.72,0,0,1,0-.28,2.28,2.28,0,0,1,0-.26c0-.08,0-.16,0-.23s0-.1,0-.14a.12.12,0,0,0,0-.07.1.1,0,0,1-.06-.1.18.18,0,0,1,0-.11l.07-.08,0,0,0-.12.05-.16a.44.44,0,0,0,0-.2,1.09,1.09,0,0,0,.08-.15,1.54,1.54,0,0,0,.05-.17.49.49,0,0,1,.06-.17c0-.06,0-.14.06-.23a3,3,0,0,1,.09-.35.8.8,0,0,1,.18-.34.52.52,0,0,1,0-.11,1,1,0,0,1,.07-.2.43.43,0,0,0,0-.05s0-.05,0-.1a.17.17,0,0,1,.07-.1l.07,0a.65.65,0,0,0,.11-.12.17.17,0,0,0,0-.1l.17,0,.07,0Z"/><polyline class="cls-23" points="72.97 63.71 72.97 62.54 76.11 62.54 76.11 63.84"/><path class="cls-3" d="M68.94,65.92l.44-1.58a.67.67,0,0,1,.65-.5h6a.68.68,0,0,1,.65.47l.51,1.61"/><path class="cls-24" d="M75.82,83.76H70.25A1.25,1.25,0,0,1,69,82.58l-.92-15.4a1.25,1.25,0,0,1,1.25-1.33h7.44A1.25,1.25,0,0,1,78,67.18l-1,15.41A1.25,1.25,0,0,1,75.82,83.76Z"/><polygon class="cls-21" points="77.76 70.34 68.27 70.34 68.77 78.77 77.31 78.77 77.76 70.34"/><circle class="cls-3" cx="72.97" cy="74.68" r="2.42"/><path class="cls-25" d="M31.81,86.18c-.51,0-2.22-.07-2.77-1s.13-2,.7-2.59c-.24-2.7.08-3.41.35-3.7a.72.72,0,0,1,.54-.25.73.73,0,0,1,.61.33.9.9,0,0,0,.83.41,2.84,2.84,0,0,0,1.52-.54,1.05,1.05,0,0,1,.63-.2,3.48,3.48,0,0,1,1.81.89,4.64,4.64,0,0,0,1.07.66c1,.28,2.3.57,3.88.87a2.22,2.22,0,0,1,2.09,2.2c0,.07,0,.15,0,.24,0,.46.1,1.16-.45,1.48a9.28,9.28,0,0,1-4.75,1.13c-.84,0-1.62-.07-2.24-.13H35.5A7.13,7.13,0,0,1,34,85.68l-.18-.06-.11.1A3.35,3.35,0,0,1,31.81,86.18Z"/><path d="M30.63,79.14a.24.24,0,0,1,.19.11,1.41,1.41,0,0,0,1.25.63,3.36,3.36,0,0,0,1.81-.63.6.6,0,0,1,.34-.11c.77,0,1.92,1.29,2.75,1.53s2.24.57,3.92.88,1.68,1.36,1.68,1.71.16,1.08-.19,1.29a8.87,8.87,0,0,1-4.5,1.06c-.88,0-1.69-.08-2.33-.14a13.47,13.47,0,0,1-1.72-.35c-.13,0-.24.06-.43.23a2.85,2.85,0,0,1-1.59.33c-1,0-2-.22-2.34-.75-.54-.93.79-2.15.79-2.15-.3-3,.1-3.64.37-3.64m0-1a1.23,1.23,0,0,0-.91.41c-.37.41-.71,1.19-.49,3.87a2.61,2.61,0,0,0-.62,3c.66,1.13,2.46,1.25,3.2,1.25a3.87,3.87,0,0,0,2.15-.5,7.13,7.13,0,0,0,1.49.28l.14,0c.64.06,1.43.13,2.29.13a9.69,9.69,0,0,0,5-1.2,1.89,1.89,0,0,0,.7-2c0-.07,0-.14,0-.19a2.71,2.71,0,0,0-2.5-2.69c-1.56-.29-2.84-.58-3.83-.86a5.08,5.08,0,0,1-.92-.58,3.88,3.88,0,0,0-2.1-1,1.56,1.56,0,0,0-.92.3,2.44,2.44,0,0,1-1.23.44c-.3,0-.37-.11-.42-.18a1.22,1.22,0,0,0-1-.56Z"/><g class="cls-26"><path class="cls-27" d="M30,83a11.77,11.77,0,0,1,4.18.26c1.77.57,3.65,1.77,8.63,0l.74-.16v3.13H28.5L28,82.92Z"/><path class="cls-28" d="M43.16,82.64a2.56,2.56,0,0,0-1.82,3h2Z"/><path class="cls-28" d="M28.46,84.63s4.65-.68,3.83,1.86h-4Z"/><path class="cls-28" d="M34.74,85.82s.67-2.15,4.23.28Z"/></g><path class="cls-29" d="M36.4,79A1.81,1.81,0,0,0,35,80.84"/><path class="cls-29" d="M37.66,79.85a1.46,1.46,0,0,0-1.15,1.46"/><rect class="cls-30" x="13.41" y="38.07" width="9.02" height="13.28" rx="1.21"/><circle cx="17.91" cy="49.47" r="0.54"/><rect class="cls-3" x="14.94" y="39.69" width="5.97" height="7.56" rx="0.16"/><path d="M18.67,42.94l-1-.55a.56.56,0,0,0-.85.49V44a.57.57,0,0,0,.85.49l1-.55A.56.56,0,0,0,18.67,42.94Z"/><path class="cls-22" d="M71.17,53.77a1,1,0,0,1-1-.87l-.32-4.64a.92.92,0,0,1,.24-.72,1,1,0,0,1,.71-.32h4.54a1,1,0,0,1,.71.31,1,1,0,0,1,.25.73L76,52.89a1,1,0,0,1-1,.88Z"/><path d="M75.39,47.72a.46.46,0,0,1,.46.5l-.39,4.63a.47.47,0,0,1-.46.42H71.17a.46.46,0,0,1-.45-.42l-.32-4.63a.45.45,0,0,1,.45-.5h4.54m0-1H70.85a1.46,1.46,0,0,0-1.45,1.6l.32,4.6a1.47,1.47,0,0,0,1.45,1.35H75a1.47,1.47,0,0,0,1.45-1.34l.39-4.63a1.44,1.44,0,0,0-1.45-1.58Z"/><path class="cls-31" d="M74.34,39.37c-1.2-1.06-3.21.44-3.21.44S69.37,36,67.28,38.64a2.69,2.69,0,0,0-.47,2.24c.81-.41,1.65-.37,2,.13s-.08,1.43-1,2l-.07,0a13.22,13.22,0,0,0,2,2.32,15.46,15.46,0,0,0,2.11-.88c-.39-.87-.4-1.68,0-2s1.24,0,1.92.63C75.34,41.58,75.12,40.06,74.34,39.37Z"/><path class="cls-4" d="M72.61,42.35a8.86,8.86,0,0,1,.08,5.48"/><g class="cls-32"><line class="cls-4" x1="69.93" y1="49.69" x2="76.24" y2="49.69"/><rect class="cls-33" x="70.39" y="47.83" width="5.46" height="1.59"/></g><path class="cls-21" d="M76.63,45.61c0-.44.53-.81,1.28-1-.28-1.65-1.36-2.2-2.17-2-1.23.29-1.18,2.28-1.18,2.28s-3.27-.62-2.51,1.94,5.45,1.47,5.45,1.47a11,11,0,0,0,.39-1.77C77.16,46.42,76.63,46.05,76.63,45.61Z"/><polyline class="cls-34" points="40.35 45.23 39.51 41.99 41.9 43.29"/><polyline class="cls-34" points="48.67 45.23 49.5 41.99 47.11 43.29"/><circle class="cls-34" cx="44.53" cy="47.29" r="4.51"/><g class="cls-35"><path class="cls-22" d="M40.43,47.24s3-.32,3.81-1.86a.32.32,0,0,1,.56,0,4,4,0,0,0,3.78,1.91h3.63v4.34H38.71V48.4Z"/></g><circle class="cls-23" cx="44.53" cy="57.6" r="8.12"/><g class="cls-36"><path class="cls-13" d="M39.06,51.34s4.92-2.72,6.06,0S36,56.88,36,56.88Z"/></g><path class="cls-13" d="M43.9,60.25l.36-.24c2.33-1.62,8.39-6.44,8.32-9.23a1.64,1.64,0,0,0-.89-1.38,1.74,1.74,0,0,1-.9-1.47,1.19,1.19,0,0,1,.66-1,1.21,1.21,0,0,1,.6-.14,3.56,3.56,0,0,1,2.69,1.88,4.73,4.73,0,0,1,0,4.85c-2.18,4.1-8.67,9-8.94,9.26l-.49.37Z"/><path d="M52.05,47.26c1.35,0,4.05,2.54,2.22,6-2.16,4.05-8.8,9.09-8.8,9.09l-.93-1.93S56.77,52,52,49c-.75-.47-.89-1.31-.27-1.64a.75.75,0,0,1,.37-.08m0-1h0a1.78,1.78,0,0,0-.83.19,1.71,1.71,0,0,0-.93,1.46,2.23,2.23,0,0,0,1.14,1.92,1.1,1.1,0,0,1,.65,1c.06,2.28-4.94,6.61-8.11,8.81l-.7.48.37.77.92,1.93.53,1.11,1-.74c.28-.21,6.85-5.23,9.08-9.42a5.23,5.23,0,0,0,0-5.35,4.08,4.08,0,0,0-3.12-2.12Z"/><g class="cls-37"><line class="cls-38" x1="51.87" y1="49.33" x2="53.69" y2="48.1"/><line class="cls-38" x1="52.63" y1="50.44" x2="54.59" y2="49.63"/><line class="cls-38" x1="52.68" y1="51.63" x2="55.02" y2="51.9"/><line class="cls-38" x1="52.43" y1="53.04" x2="54.06" y2="53.48"/></g><path class="cls-39" d="M71.37,22.13H69a1.63,1.63,0,0,0-1.62,1.62V30A1.63,1.63,0,0,0,69,31.63h2.37a.77.77,0,0,0,.76-.76v-8A.76.76,0,0,0,71.37,22.13Z"/><path class="cls-40" d="M74.3,22.13h2.37a1.63,1.63,0,0,1,1.62,1.62V30a1.63,1.63,0,0,1-1.62,1.63H74.3a.77.77,0,0,1-.76-.76v-8A.76.76,0,0,1,74.3,22.13Z"/><circle class="cls-41" cx="75.91" cy="27.26" r="0.78"/><circle class="cls-41" cx="69.76" cy="24.76" r="0.78"/><circle class="cls-22" cx="75.91" cy="23.73" r="0.25"/><circle class="cls-22" cx="75.91" cy="24.85" r="0.25"/><circle class="cls-22" cx="76.48" cy="24.29" r="0.25"/><circle class="cls-22" cx="75.36" cy="24.29" r="0.25"/><circle class="cls-22" cx="69.76" cy="27.02" r="0.25"/><circle class="cls-22" cx="69.76" cy="28.14" r="0.25"/><circle class="cls-22" cx="70.32" cy="27.59" r="0.25"/><circle class="cls-22" cx="69.2" cy="27.59" r="0.25"/><rect class="cls-42" x="33.66" y="53.14" width="22.66" height="16.09" rx="2.08"/><path class="cls-4" d="M55.61,53.56l-1.88,5.15a1.56,1.56,0,0,1-1.47,1H38.06a1.56,1.56,0,0,1-1.48-1l-1.83-5.36"/><circle class="cls-22" cx="55.76" cy="76.1" r="0.11"/><circle class="cls-22" cx="58.41" cy="77.19" r="0.11"/><circle class="cls-22" cx="55.65" cy="84.96" r="0.11"/><circle class="cls-22" cx="59.46" cy="83.21" r="0.11"/><circle class="cls-22" cx="50.03" cy="84.77" r="0.11"/><circle class="cls-22" cx="51.58" cy="79.49" r="0.11"/><polygon class="cls-13" points="57.46 78.95 57.66 79.34 58.08 79.4 57.77 79.7 57.85 80.13 57.46 79.93 57.08 80.13 57.15 79.7 56.84 79.4 57.27 79.34 57.46 78.95"/><polygon class="cls-13" points="52.97 76.19 53.09 76.42 53.34 76.46 53.16 76.64 53.2 76.9 52.97 76.78 52.74 76.9 52.78 76.64 52.6 76.46 52.85 76.42 52.97 76.19"/><polygon class="cls-13" points="51.5 83.67 51.59 83.86 51.8 83.89 51.65 84.04 51.69 84.24 51.5 84.15 51.31 84.24 51.35 84.04 51.2 83.89 51.41 83.86 51.5 83.67"/><polygon class="cls-13" points="58.41 85.4 58.5 85.59 58.71 85.62 58.56 85.77 58.59 85.98 58.41 85.88 58.22 85.98 58.26 85.77 58.11 85.62 58.31 85.59 58.41 85.4"/><path class="cls-13" d="M56.41,81.6a2.15,2.15,0,0,1-2.15-2.15,2.23,2.23,0,0,1,.14-.69A2.13,2.13,0,1,0,57,81.47,1.86,1.86,0,0,1,56.41,81.6Z"/><path class="cls-43" d="M50.76,74.3s-.48,8.18-2.29,9.46H46.24V74.3Z"/><path class="cls-43" d="M58.91,74.3s.47,8.18,2.29,9.46h2.22V74.3Z"/><path class="cls-43" d="M49.71,88.39S49.35,84.51,48,83.9H46.24v4.49Z"/><path class="cls-43" d="M59.92,88.39s.36-3.88,1.76-4.49h1.71v4.49Z"/><path class="cls-44" d="M20,83a1.52,1.52,0,0,0-3-.07,1.53,1.53,0,0,0,0,3,1.51,1.51,0,0,0,.76-.2,1.09,1.09,0,0,1,1.08,0A1.52,1.52,0,1,0,20,83Z"/><path class="cls-45" d="M21.76,82.77a.83.83,0,0,1-.44-.12,1,1,0,0,1-.21-1.43,1.12,1.12,0,0,1,.92-.55.79.79,0,0,1,.45.13,1,1,0,0,1,.21,1.42,1.14,1.14,0,0,1-.93.55Z"/><path d="M22,81.05a.54.54,0,0,1,.25.06.66.66,0,0,1,.09.91.76.76,0,0,1-.61.38.51.51,0,0,1-.24-.07.66.66,0,0,1-.09-.91.73.73,0,0,1,.6-.37m0-.75a1.5,1.5,0,0,0-1.24.73,1.59,1.59,0,0,0-.24,1,1.24,1.24,0,0,0,.57.94,1.2,1.2,0,0,0,.64.19A1.52,1.52,0,0,0,23,82.42a1.62,1.62,0,0,0,.24-1,1.26,1.26,0,0,0-.57-1A1.22,1.22,0,0,0,22,80.3Z"/><path class="cls-45" d="M14.71,82.78a1.12,1.12,0,0,1-.92-.55,1.21,1.21,0,0,1-.17-.88.85.85,0,0,1,.38-.54.84.84,0,0,1,.44-.13,1.2,1.2,0,0,1,1.09,1.44.84.84,0,0,1-.37.54A.87.87,0,0,1,14.71,82.78Z"/><path d="M14.44,81.06a.76.76,0,0,1,.61.38.65.65,0,0,1-.09.9.45.45,0,0,1-.25.07A.77.77,0,0,1,14.1,82a.65.65,0,0,1,.1-.9.4.4,0,0,1,.24-.07m0-.75h0a1.19,1.19,0,0,0-.64.18,1.26,1.26,0,0,0-.57,1,1.53,1.53,0,0,0,.24,1,1.5,1.5,0,0,0,1.24.73,1.22,1.22,0,0,0,.65-.18,1.27,1.27,0,0,0,.57-1,1.6,1.6,0,0,0-.25-1,1.49,1.49,0,0,0-1.24-.73Z"/><path class="cls-45" d="M16.74,80.56a1,1,0,0,1-1-1,1.15,1.15,0,0,1,.21-.87.84.84,0,0,1,.56-.34h.11a1.06,1.06,0,0,1,1,1,1,1,0,0,1-.77,1.21Z"/><path d="M16.66,78.76a.68.68,0,0,1,.6.63.66.66,0,0,1-.46.79h-.06a.75.75,0,0,1-.14-1.42h.06m0-.75H16.5a1.23,1.23,0,0,0-.91.63,1.59,1.59,0,0,0-.18,1,1.42,1.42,0,0,0,1.33,1.27h.17A1.4,1.4,0,0,0,18,79.29,1.43,1.43,0,0,0,16.66,78Z"/><path class="cls-45" d="M19.53,80.55a1,1,0,0,1-.77-1.21,1.06,1.06,0,0,1,1-1h.11a.83.83,0,0,1,.57.34,1.19,1.19,0,0,1,.2.87,1,1,0,0,1-1,1Z"/><path d="M19.72,78.76h.06a.65.65,0,0,1,.45.79.67.67,0,0,1-.59.63h-.06a.65.65,0,0,1-.45-.79.67.67,0,0,1,.59-.63m0-.75a1.41,1.41,0,0,0-1.33,1.28,1.38,1.38,0,0,0,1.08,1.63h.17A1.43,1.43,0,0,0,21,79.66a1.59,1.59,0,0,0-.19-1,1.24,1.24,0,0,0-.9-.63Z"/><text class="cls-46" transform="translate(28.91 10.6)"><tspan class="cls-47">F</tspan><tspan class="cls-48" x="2.48" y="0">A</tspan><tspan class="cls-49" x="5.33" y="0">V</tspan><tspan x="8.1" y="0">ORIT THING</tspan></text></svg>