<svg id="레이어_1" data-name="레이어 1" xmlns="http://www.w3.org/2000/svg" viewBox="0 0 36.76 66.78"><defs><style>.cls-1{fill:#f8c421;}.cls-1,.cls-2,.cls-3{stroke:#000;stroke-linecap:round;stroke-linejoin:round;}.cls-2{fill:#ff8a00;}.cls-3{fill:#daa81f;}</style></defs><path class="cls-1" d="M20.3,8,18.12,3.78A1.24,1.24,0,0,0,17,3.1H7.4a1.24,1.24,0,0,0-1.1.66l-2.15,4A1.2,1.2,0,0,0,4,8.34V26.21A1.39,1.39,0,0,0,5.39,27.6H31.67a1.39,1.39,0,0,0,1.39-1.39V9.41A1.39,1.39,0,0,0,31.67,8Z"/><line class="cls-1" x1="7.7" y1="8.03" x2="26.93" y2="8.03"/><path class="cls-2" d="M20.3,43.47l-2.18-4.24A1.24,1.24,0,0,0,17,38.55H7.4a1.24,1.24,0,0,0-1.1.66l-2.15,4a1.27,1.27,0,0,0-.15.6V61.66a1.39,1.39,0,0,0,1.39,1.39H31.67a1.39,1.39,0,0,0,1.39-1.39V44.86a1.39,1.39,0,0,0-1.39-1.39Z"/><line class="cls-3" x1="7.7" y1="43.47" x2="26.93" y2="43.47"/></svg>