<svg id="레이어_1" data-name="레이어 1" xmlns="http://www.w3.org/2000/svg" viewBox="0 0 75.22 100.96"><defs><style>.cls-1{fill:#c5c5c5;}.cls-2{fill:#eee;}.cls-2,.cls-3,.cls-7,.cls-9{stroke:#000;}.cls-2,.cls-3,.cls-7{stroke-miterlimit:10;}.cls-3,.cls-7,.cls-9{fill:none;}.cls-4{fill:#dc4574;}.cls-5{fill:#ecbe2e;}.cls-6{fill:#56b69f;}.cls-7,.cls-9{stroke-linecap:round;}.cls-8{fill:#959595;}.cls-9{stroke-linejoin:round;}</style></defs><rect class="cls-1" x="6.29" y="6.9" width="66.88" height="92.23" rx="3.13"/><rect class="cls-2" x="3" y="3.39" width="66.5" height="92.23" rx="3.13"/><line class="cls-3" x1="3" y1="11.12" x2="69.5" y2="11.12"/><circle class="cls-4" cx="7.48" cy="7.22" r="1.64"/><circle class="cls-5" cx="11.97" cy="7.22" r="1.64"/><circle class="cls-6" cx="16.45" cy="7.22" r="1.64"/><line class="cls-7" x1="22.61" y1="7.22" x2="49.64" y2="7.22"/><polygon class="cls-8" points="47.86 73.72 47.86 57.64 36.44 57.64 36.44 68.32 19.32 68.32 19.32 74.03 25.03 74.03 25.03 84.92 53.57 84.92 53.57 73.72 47.86 73.72"/><rect class="cls-8" x="13.42" y="24.42" width="17.32" height="16.83"/><rect class="cls-8" x="19.32" y="40.96" width="17.13" height="5.71"/><rect class="cls-8" x="28.1" y="32.9" width="10.99" height="5.71" transform="translate(69.34 2.16) rotate(90)"/><rect class="cls-8" x="7.62" y="35.6" width="5.8" height="5.8"/><rect class="cls-8" x="42.15" y="84.92" width="5.8" height="5.8"/><polygon class="cls-8" points="64.99 40.96 59.28 40.96 59.28 30.11 53.57 30.11 53.57 35.6 47.86 35.6 47.86 40.96 47.86 41.4 47.86 46.67 53.53 46.67 53.53 52.41 59.32 52.41 59.32 46.67 64.99 46.67 64.99 40.96"/><rect class="cls-9" x="7.48" y="24.76" width="57.5" height="65.75" rx="2.6"/><line class="cls-9" x1="7.62" y1="30.26" x2="64.99" y2="30.26"/><line class="cls-9" x1="7.62" y1="35.75" x2="64.99" y2="35.75"/><line class="cls-9" x1="7.62" y1="41.25" x2="64.99" y2="41.25"/><line class="cls-9" x1="7.48" y1="46.65" x2="64.99" y2="46.65"/><line class="cls-9" x1="7.48" y1="52.14" x2="64.99" y2="52.14"/><line class="cls-9" x1="7.48" y1="57.64" x2="64.99" y2="57.64"/><line class="cls-9" x1="7.48" y1="63.04" x2="64.99" y2="63.04"/><line class="cls-9" x1="7.48" y1="68.53" x2="64.99" y2="68.53"/><line class="cls-9" x1="7.48" y1="74.03" x2="64.99" y2="74.03"/><line class="cls-9" x1="7.48" y1="79.43" x2="64.99" y2="79.43"/><line class="cls-9" x1="7.48" y1="84.92" x2="64.99" y2="84.92"/><line class="cls-9" x1="13.61" y1="90.51" x2="13.61" y2="24.76"/><line class="cls-9" x1="19.32" y1="90.51" x2="19.32" y2="24.76"/><line class="cls-9" x1="25.03" y1="90.51" x2="25.03" y2="24.76"/><line class="cls-9" x1="30.74" y1="90.51" x2="30.74" y2="24.76"/><line class="cls-9" x1="36.44" y1="90.51" x2="36.44" y2="24.76"/><line class="cls-9" x1="42.15" y1="90.51" x2="42.15" y2="24.76"/><line class="cls-9" x1="47.86" y1="90.51" x2="47.86" y2="24.76"/><line class="cls-9" x1="53.57" y1="90.51" x2="53.57" y2="24.76"/><line class="cls-9" x1="59.28" y1="90.51" x2="59.28" y2="24.76"/><rect class="cls-3" x="29.37" y="14.53" width="14.59" height="7.01" rx="3.51"/><line class="cls-7" x1="8.65" y1="16.68" x2="24.06" y2="16.68"/><line class="cls-7" x1="8.65" y1="20.19" x2="24.06" y2="20.19"/><line class="cls-7" x1="48.94" y1="16.68" x2="64.36" y2="16.68"/><line class="cls-7" x1="48.94" y1="20.19" x2="64.36" y2="20.19"/><path d="M31.55,18.91l.28-.34a.94.94,0,0,0,.62.27c.26,0,.39-.1.39-.28s-.14-.23-.36-.33l-.33-.14a.7.7,0,0,1-.49-.65.76.76,0,0,1,.84-.71,1.09,1.09,0,0,1,.77.31l-.25.31a.79.79,0,0,0-.52-.2c-.21,0-.35.1-.35.26s.17.24.38.32l.32.13a.68.68,0,0,1,.49.67.79.79,0,0,1-.89.74A1.31,1.31,0,0,1,31.55,18.91Z"/><path d="M34.19,17.18H33.5v-.4h1.87v.4h-.69v2h-.49Z"/><path d="M36.77,18.59H36l-.17.63h-.49l.78-2.44h.57l.79,2.44h-.51Zm-.11-.38L36.59,18c-.08-.26-.14-.54-.22-.8h0c-.06.26-.14.54-.21.8l-.07.26Z"/><path d="M39.07,19.22l-.5-.92h-.34v.92h-.49V16.78h.85c.51,0,.92.17.92.74a.69.69,0,0,1-.47.7l.58,1Zm-.84-1.31h.32c.31,0,.48-.13.48-.39s-.17-.36-.48-.36h-.32Z"/><path d="M40.42,17.18h-.69v-.4H41.6v.4h-.69v2h-.49Z"/></svg>