<?xml version="1.0" encoding="utf-8"?>
<!-- Generator: Adobe Illustrator 24.2.0, SVG Export Plug-In . SVG Version: 6.00 Build 0)  -->
<svg version="1.1" id="레이어_1" xmlns="http://www.w3.org/2000/svg" xmlns:xlink="http://www.w3.org/1999/xlink" x="0px"
	 y="0px" viewBox="0 0 8.5 8.5" style="enable-background:new 0 0 8.5 8.5;" xml:space="preserve">
<path d="M4.5,1.5l0.1,0.3c0.1,0.3,0.4,0.5,0.7,0.4c0.1,0,0.2-0.1,0.3-0.2l0.2-0.2L5.7,2.1C5.6,2.5,5.8,2.8,6.1,2.9
	c0.1,0,0.2,0,0.4,0l0.3-0.1L6.5,3C6.3,3.2,6.3,3.6,6.5,3.8C6.6,3.9,6.7,4,6.9,4h0.3L6.9,4.1C6.6,4.2,6.5,4.6,6.6,4.8
	C6.6,5,6.7,5,6.8,5.1l0.3,0.2H6.7c-0.3,0-0.6,0.2-0.6,0.5c0,0.1,0,0.2,0.1,0.3l0.2,0.3L6,6.2C5.7,6,5.4,6.1,5.2,6.3
	C5.1,6.4,5.1,6.5,5.1,6.7V7L5,6.7C4.8,6.4,4.5,6.3,4.2,6.5C4.1,6.5,4.1,6.6,4,6.7L3.8,7V6.7c0-0.3-0.2-0.6-0.6-0.6
	c-0.1,0-0.2,0-0.4,0.1L2.6,6.4l0.2-0.3c0.2-0.3,0-0.6-0.2-0.8C2.4,5.2,2.3,5.2,2.2,5.2H1.9L2.1,5c0.3-0.2,0.3-0.5,0.1-0.8
	C2.2,4.2,2.1,4.1,2,4L1.7,4H2c0.3,0,0.6-0.3,0.6-0.6c0-0.2-0.1-0.3-0.2-0.4L2.2,2.8l0.3,0.1c0.3,0.1,0.6,0,0.8-0.3
	c0-0.1,0.1-0.2,0-0.4L3.2,1.9l0.2,0.2C3.6,2.4,4,2.4,4.2,2.2C4.3,2.1,4.4,2,4.4,1.9L4.5,1.5z"/>
</svg>
