<?xml version="1.0" encoding="utf-8"?>
<!-- Generator: Adobe Illustrator 24.2.0, SVG Export Plug-In . SVG Version: 6.00 Build 0)  -->
<svg version="1.1" id="레이어_1" xmlns="http://www.w3.org/2000/svg" xmlns:xlink="http://www.w3.org/1999/xlink" x="0px"
	 y="0px" viewBox="0 0 180.6 153.9" style="enable-background:new 0 0 180.6 153.9;" xml:space="preserve">
<style type="text/css">
	.st0{fill:none;}
	.st1{fill:#FFFFFF;}
</style>
<g id="레이어_2_1_">
	<polygon points="56.2,60.3 56.2,52.5 50.5,52.5 50.5,60.3 45.9,60.3 45.9,41.4 50.5,41.4 50.5,48.4 56.2,48.4 56.2,41.4 60.8,41.4 
		60.8,60.3 	"/>
	<polygon points="65.2,60.3 65.2,41.4 77.1,41.4 77.1,45.3 69.7,45.3 69.7,48.5 76,48.5 76,52.5 69.7,52.5 69.7,56.3 77.4,56.3 
		77.4,60.3 	"/>
	<polygon points="81,60.3 81,41.4 85.6,41.4 85.6,56.3 92.8,56.3 92.8,60.3 	"/>
	<polygon points="95.9,60.3 95.9,41.4 100.5,41.4 100.5,56.3 107.8,56.3 107.8,60.3 	"/>
	<path d="M117.5,60.6c-5.2,0-8.5-3.9-8.5-9.9s3.3-9.7,8.5-9.7s8.5,3.8,8.5,9.7S122.7,60.6,117.5,60.6z M117.5,45.1
		c-2.4,0-3.8,2.1-3.8,5.6s1.5,5.8,3.8,5.8s3.8-2.2,3.8-5.8S119.9,45.1,117.5,45.1z"/>
	<rect x="61" y="67.1" width="4.6" height="18.9"/>
	<path d="M86.1,86l-1.3-4.6h-5L78.6,86h-4.7l6-18.9h4.9L90.9,86H86.1z M83.8,77.6l-0.4-1.3c-0.3-1.1-0.7-2.3-1-3.5
		c-0.1-0.2-0.1-0.4-0.2-0.6c-0.3,1.4-0.7,2.8-1.1,4.2l-0.4,1.3L83.8,77.6L83.8,77.6z"/>
	<path d="M105.8,86v-8c0-0.7,0-1.4,0.1-2.2l-0.2,0.7l-2.9,7.9H100l-2.9-7.8L97,75.9c0,0.7,0.1,1.4,0.1,2v8h-4.3V67.1h4.8l3.2,8.7
		c0.3,0.7,0.5,1.4,0.7,2.1c0-0.1,0-0.2,0.1-0.3c0.2-0.6,0.4-1.3,0.6-1.9l3.1-8.7h4.8v19H105.8z"/>
	<path class="st0" d="M49.3,112c-2.6,0-5-1-6.9-2.8l-0.3-0.3l2.7-3.2l0.4,0.4c1.1,1.1,2.6,1.8,4.2,1.8c0.9,0,2.3-0.2,2.3-1.6
		c0-0.9-0.7-1.2-2.2-1.9l-2.5-1.1c-2.6-1.1-4-2.9-4-5.3c0-3.2,2.9-5.7,6.7-5.7c2.2,0,4.4,0.9,6,2.4L56,95l-2.4,3l-0.4-0.3
		c-1-0.9-2.2-1.4-3.5-1.4c-0.5,0-2.1,0.1-2.1,1.4c0,0.8,0.8,1.2,2.3,1.8l0.2,0.1l2.4,1c2.7,1.1,3.9,2.8,3.9,5.3
		C56.4,109,54,112,49.3,112z"/>
	<path class="st0" d="M67.1,112c-5.2,0-8.5-3.9-8.5-9.9s3.3-9.7,8.5-9.7s8.5,3.8,8.5,9.7S72.3,112,67.1,112z M67.1,96.5
		c-2.4,0-3.8,2.1-3.8,5.6s1.5,5.8,3.8,5.8s3.9-2.2,3.9-5.8S69.6,96.5,67.1,96.5L67.1,96.5z"/>
	<path class="st0" d="M89.4,111.7l-5.3-9.8l-0.8-1.6c0.1,1.2,0.2,2.6,0.2,3.8v7.7h-4.4v-19h4.4l5.3,9.8l0.7,1.5
		c-0.1-1.2-0.2-2.5-0.2-3.7v-7.6h4.4v18.9L89.4,111.7L89.4,111.7z"/>
	<path class="st0" d="M106.4,112c-5.5,0-9.1-3.8-9.1-9.7s3.7-9.9,9.1-9.9c2.2,0,4.4,0.8,5.9,2.4l0.3,0.3l-2.6,3l-0.4-0.4
		c-0.8-0.9-2-1.4-3.2-1.4c-2.8,0-4.6,2.2-4.6,5.7c0,2.6,0.8,5.7,4.8,5.7c0.6,0,1.2-0.1,1.8-0.4v-2.8h-3.2v-3.9h7.4v8.8l-0.2,0.2
		C110.9,111.2,108.7,112,106.4,112z"/>
	<rect x="123" y="92.8" class="st0" width="4.6" height="18.9"/>
</g>
<g id="레이어_1_1_">
	<path class="st1" d="M60.3,41.9v17.9h-3.6V52H50v7.7h-3.6V41.9H50v7h6.8v-7H60.3 M61.3,40.9h-5.6v7H51v-7h-5.6v19.9H51V53h4.8v7.7
		h5.6L61.3,40.9L61.3,40.9z"/>
	<path class="st1" d="M76.6,41.9v3h-7.4V49h6.3v3h-6.3v4.8h7.7v3H65.7V41.9H76.6 M77.7,40.9h-13v19.9H78v-5h-7.7V53h6.3v-5h-6.3
		v-2.2h7.4L77.7,40.9L77.7,40.9z"/>
	<path class="st1" d="M85.1,41.9v14.9h7.3v3H81.5V41.9H85.1 M86.1,40.9h-5.6v19.9h12.8v-5H86L86.1,40.9L86.1,40.9z"/>
	<path class="st1" d="M100,41.9v14.9h7.3v3H96.4V41.9H100 M101,40.9h-5.6v19.9h12.8v-5H101V40.9z"/>
	<path class="st1" d="M117.5,41.5c4.7,0,8,3.4,8,9.2s-3.3,9.4-8,9.4s-8-3.5-8-9.4S112.8,41.5,117.5,41.5 M117.5,57
		c2.7,0,4.4-2.5,4.4-6.3s-1.7-6.1-4.4-6.1s-4.3,2.3-4.3,6.1S114.9,57,117.5,57 M117.5,40.5c-5.5,0-9,4-9,10.2s3.6,10.4,9,10.4
		s9-4.2,9-10.4S123,40.5,117.5,40.5z M117.5,56c-2.5,0-3.3-2.7-3.3-5.3c0-3.2,1.3-5.1,3.3-5.1s3.4,1.9,3.4,5.1
		C120.9,53.3,120,56,117.5,56z"/>
	<path class="st1" d="M65,67.6v17.9h-3.5V67.6H65 M66,66.6h-5.5v19.9H66V66.6z"/>
	<path class="st1" d="M84.5,67.6l5.8,17.9h-3.8l-1.3-4.6h-5.8l-1.3,4.6h-3.6l5.7-17.9H84.5 M80.2,78.1h4.3l-0.5-2
		c-0.6-1.9-1-3.9-1.6-5.8h-0.1c-0.5,2-1,4-1.5,5.8L80.2,78.1 M85.2,66.6h-5.7l-0.2,0.7l-5.7,17.9l-0.4,1.3H79l0.2-0.7l1-3.8h4.3
		l1.1,3.8l0.2,0.7h5.9l-0.4-1.3l-5.7-17.9L85.2,66.6L85.2,66.6z M81.5,77.1l0.2-0.7c0.2-0.8,0.4-1.5,0.6-2.3
		c0.2,0.8,0.4,1.6,0.6,2.3l0.2,0.7H81.5z"/>
	<path class="st1" d="M109.6,67.6v17.9h-3.3V78c0-1.7,0.3-4.2,0.4-5.9h-0.1l-1.4,4.2l-2.8,7.5h-2.1l-2.8-7.5l-1.4-4.2H96
		c0.2,1.7,0.5,4.2,0.5,5.9v7.5h-3.2V67.6h4l3,8.4c0.4,1.1,0.7,2.3,1.1,3.5h0.1c0.4-1.2,0.7-2.3,1.1-3.5l3-8.4H109.6 M110.6,66.6
		h-5.7l-0.2,0.7l-3,8.4l-0.2,0.6c-0.1-0.2-0.1-0.4-0.2-0.6l-3-8.4L98,66.6h-5.7v19.9h5.2V79l1.9,5.2l0.2,0.7h3.4l0.2-0.7l1.9-5.3
		v7.5h5.3L110.6,66.6L110.6,66.6z"/>
	<path class="st1" d="M49.7,92.9c2.1,0,4.1,0.8,5.6,2.3l-1.8,2.3c-1-0.9-2.4-1.5-3.8-1.5c-1.6,0-2.6,0.7-2.6,1.9s1.3,1.7,2.8,2.3
		l2.3,1c2.2,0.9,3.6,2.3,3.6,4.9c0,2.9-2.5,5.4-6.6,5.4c-2.4,0-4.8-0.9-6.5-2.6l2-2.5c1.2,1.2,2.8,1.9,4.5,2c1.9,0,2.8-0.8,2.8-2.1
		s-1.1-1.7-2.7-2.4l-2.4-1c-1.8-0.8-3.6-2.2-3.6-4.8C43.5,95.2,46.1,93,49.7,92.9 M49.7,92c-4.1,0-7.2,2.7-7.2,6.2
		c0,2.6,1.5,4.6,4.2,5.7l2.4,1l0.2,0.1c1.6,0.7,1.9,0.9,1.9,1.4c0,0.9-1,1.1-1.8,1.1c-1.5-0.1-2.8-0.7-3.9-1.7l-0.8-0.7l-0.7,0.8
		l-2,2.5l-0.6,0.7l0.7,0.6c1.9,1.9,4.5,2.9,7.2,2.9c5,0,7.6-3.2,7.6-6.4c0-2.7-1.4-4.6-4.2-5.8l-2.3-1l-0.2-0.1
		c-1.4-0.6-2-0.8-2-1.3c0-0.8,1.1-0.9,1.6-0.9c1.2,0,2.3,0.5,3.2,1.3l0.8,0.6l0.6-0.8l1.8-2.3l0.6-0.7l-0.6-0.6
		C54.4,92.9,52.2,91.9,49.7,92L49.7,92z"/>
	<path class="st1" d="M67.1,92.9c4.7,0,8,3.4,8,9.2s-3.3,9.4-8,9.4s-8-3.6-8-9.4S62.4,92.9,67.1,92.9 M67.1,108.4
		c2.7,0,4.4-2.4,4.4-6.3S69.8,96,67.1,96s-4.3,2.3-4.3,6.1S64.5,108.4,67.1,108.4 M67.1,91.9c-5.5,0-9,4-9,10.2s3.6,10.4,9,10.4
		s9-4.2,9-10.4S72.6,91.9,67.1,91.9z M67.1,107.4c-2.5,0-3.3-2.7-3.3-5.3c0-3.2,1.2-5.1,3.3-5.1s3.4,1.9,3.4,5.1
		C70.5,104.7,69.6,107.4,67.1,107.4z"/>
	<path class="st1" d="M93.3,93.3v17.9h-3.6l-5.2-9.6l-1.8-3.8h-0.1c0.2,1.9,0.4,4.2,0.4,6.2v7.2h-3.4V93.3h3.7l5.2,9.5l1.8,3.9h0.1
		c-0.2-1.9-0.5-4.2-0.5-6.3v-7.1H93.3 M94.3,92.3h-5.4v8.1c0,0.4,0,0.8,0,1.2l-4.8-8.8l-0.3-0.5h-5.2v19.9H84V104c0-0.4,0-0.8,0-1.3
		l4.8,8.9l0.3,0.5h5.2V92.3L94.3,92.3z"/>
	<path class="st1" d="M106.4,92.9c2.1,0,4.1,0.8,5.5,2.3l-1.9,2.3c-0.9-1-2.2-1.5-3.5-1.5c-3,0-5.1,2.3-5.1,6.2s1.8,6.2,5.3,6.2
		c0.8,0,1.6-0.2,2.3-0.7v-3.5h-3.2v-2.9h6.4v8.1c-1.6,1.4-3.7,2.2-5.8,2.2c-4.9,0-8.6-3.2-8.6-9.2S101.6,92.9,106.4,92.9
		 M106.4,91.9c-5.6,0-9.6,4.3-9.6,10.4s3.8,10.2,9.6,10.2c2.4,0,4.7-0.8,6.5-2.4l0.3-0.3v-9.5h-8.4v4.9h3.2v2
		c-0.4,0.2-0.8,0.2-1.3,0.2c-2.8,0-4.3-1.8-4.3-5.2c0-3.2,1.6-5.2,4.1-5.2c1.1,0,2.1,0.4,2.8,1.2l0.8,0.8l0.7-0.8l1.9-2.3l0.6-0.7
		l-0.6-0.7C111,92.8,108.7,91.9,106.4,91.9L106.4,91.9z"/>
	<path class="st1" d="M127.1,93.3v17.9h-3.6V93.3H127.1 M128.1,92.3h-5.6v19.9h5.6V92.3z"/>
</g>
</svg>
