<svg id="레이어_1" data-name="레이어 1" xmlns="http://www.w3.org/2000/svg" xmlns:xlink="http://www.w3.org/1999/xlink" viewBox="0 0 180.61 153.95"><defs><style>.cls-1,.cls-4,.cls-8{fill:none;}.cls-2{fill:#c5c5c5;}.cls-12,.cls-3{fill:#fff;}.cls-3,.cls-4,.cls-8{stroke:#000;}.cls-3,.cls-4{stroke-miterlimit:10;}.cls-5{fill:#dc4574;}.cls-6{fill:#ecbe2e;}.cls-7{fill:#56b69f;}.cls-8{stroke-linecap:round;stroke-linejoin:round;}.cls-9{fill:#b13636;}.cls-10{clip-path:url(#clip-path);}.cls-11{fill:#842525;}</style><clipPath id="clip-path"><path class="cls-1" d="M167.89,143.75l-160.55,0a2.57,2.57,0,0,1-2.58-2.57V13.54l165.72-.17.26,127.43A2.87,2.87,0,0,1,167.89,143.75Z"/></clipPath></defs><rect class="cls-2" x="6.91" y="9.85" width="168.69" height="139.13" rx="3.13"/><rect class="cls-3" x="4.26" y="5.14" width="166.8" height="139.13" rx="3.13"/><line class="cls-4" x1="4.26" y1="12.87" x2="171.05" y2="12.87"/><circle class="cls-5" cx="8.74" cy="8.97" r="1.64"/><circle class="cls-6" cx="13.22" cy="8.97" r="1.64"/><circle class="cls-7" cx="17.7" cy="8.97" r="1.64"/><polyline class="cls-8" points="31.73 7.97 33.87 9.96 36.01 7.97 38.15 9.96 40.3 7.97 42.44 9.96 44.59 7.97 46.73 9.96 48.88 7.97 51.03 9.96 53.17 7.97 55.32 9.96 57.47 7.97 59.62 9.96 61.77 7.97 63.91 9.96 66.06 7.97 68.21 9.96 70.36 7.97 72.51 9.96 74.66 7.97 76.81 9.96 78.97 7.97"/><path class="cls-9" d="M167.89,143.75l-160.55,0a2.57,2.57,0,0,1-2.58-2.57V13.54l165.72-.17.26,127.43A2.87,2.87,0,0,1,167.89,143.75Z"/><g class="cls-10"><path class="cls-11" d="M126,46.92a8.42,8.42,0,0,0-8.48-6.39c-5.47,0-9,4-9,10.21a13,13,0,0,0,.81,4.65l-1.16.54-.09-.16L101,40.87v0H95.42V58.58L93.33,56.1v-.33h-.16l-7.1-14.9v0H80.5v7.31l-.29.31-2.58-7.62v0h-13v7.58l-3.36-7.58v0H55.73v6.66L51,40.87H45.38V60.76h0v.05L60.45,86.16v.3h.17l3.52,5.92a8.47,8.47,0,0,0-5.53,6.1l0,0L56.8,95.26l-.19,0,.07-.09-.63-.63a8.9,8.9,0,0,0-6.32-2.6c-4.1,0-7.19,2.66-7.19,6.18,0,2.56,1.51,4.6,4.24,5.73l2.39,1,.17.07c1.62.68,1.9.9,1.9,1.42,0,.88-1,1.06-1.85,1.06a6,6,0,0,1-3.87-1.72l-.77-.71-.68.81-2,2.46-.56.68h-.1L65,146.45H96.3L97.81,149h81.58V116.64Zm-5.28,5.68S120.35,56,117.45,56c-2.22,0-2.91-2.33-3.1-3.41h0v0c0-.31-.07-.51-.07-.51h0a11.55,11.55,0,0,1-.09-1.32c0-3.22,1.25-5.14,3.35-5.14,1.47,0,2.52,1,3,2.63l0,0A9.5,9.5,0,0,1,120.73,52.6Z"/><polygon class="cls-11" points="123.34 42.58 168.34 102.21 125.54 50.74 123.34 42.58"/></g><path class="cls-12" d="M60.29,41.87V59.76H56.73V52H50v7.73H46.38V41.87H50v7h6.77v-7h3.56m1-1H55.73v7H51v-7H45.38V60.76H51V53h4.77v7.73h5.56V40.87Z"/><path class="cls-12" d="M76.63,41.87v3h-7.4V49h6.29v3H69.23v4.79H76.9v3H65.65V41.87h11m1-1h-13V60.76H77.9v-5H70.23V53h6.29V48H70.23V45.84h7.4v-5Z"/><path class="cls-12" d="M85.07,41.87v14.9h7.26v3H81.5V41.87h3.57m1-1H80.5V60.76H93.33v-5H86.07V40.87Z"/><path class="cls-12" d="M100,41.87v14.9h7.25v3H96.42V41.87H100m1-1H95.42V60.76h12.83v-5H101V40.87Z"/><path class="cls-12" d="M117.53,41.53c4.74,0,8,3.41,8,9.21s-3.27,9.36-8,9.36-8-3.55-8-9.36,3.26-9.21,8-9.21m0,15.48c2.66,0,4.36-2.45,4.36-6.27s-1.7-6.14-4.36-6.14-4.35,2.3-4.35,6.14S114.87,57,117.53,57m0-16.48c-5.47,0-9,4-9,10.21s3.61,10.36,9,10.36,9-4.16,9-10.36-3.54-10.21-9-10.21Zm0,15.48c-2.47,0-3.35-2.72-3.35-5.27,0-3.22,1.25-5.14,3.35-5.14s3.36,1.92,3.36,5.14c0,2.55-.89,5.27-3.36,5.27Z"/><path class="cls-12" d="M65,67.56v17.9H61.45V67.56H65m1-1H60.45v19.9H66V66.56Z"/><path class="cls-12" d="M84.49,67.56l5.76,17.9H86.5l-1.26-4.59h-5.8l-1.26,4.59H74.55l5.74-17.9h4.2M80.21,78.08h4.26l-.53-2c-.56-1.86-1-3.91-1.57-5.85h-.1c-.46,2-1,4-1.52,5.85l-.54,2m5-11.52H79.56l-.23.7L73.6,85.15l-.42,1.31h5.76l.21-.74,1-3.85h4.28l1.06,3.85.2.74h5.88l-.42-1.31L85.45,67.26l-.23-.7Zm-3.7,10.52.19-.69c.21-.75.43-1.52.63-2.28.2.78.42,1.56.64,2.3l.18.67Z"/><path class="cls-12" d="M109.57,67.56v17.9h-3.26V78c0-1.7.26-4.19.43-5.88h-.09l-1.45,4.21-2.76,7.52h-2.06L97.6,76.32l-1.42-4.21h-.1c.17,1.69.46,4.18.46,5.88v7.47H93.32V67.56h4l3,8.37c.38,1.11.72,2.3,1.08,3.46h.12c.39-1.16.71-2.35,1.09-3.46l3-8.37h4m1-1H104.9l-.23.67-3,8.37-.21.61c-.06-.2-.13-.41-.2-.61l-3-8.38L98,66.56H92.32v19.9h5.22V79l1.91,5.16.24.65h3.45l.24-.66,1.93-5.26v7.54h5.26V66.56Z"/><path class="cls-12" d="M49.73,92.92a7.92,7.92,0,0,1,5.61,2.3l-1.81,2.25A5.7,5.7,0,0,0,49.73,96c-1.57,0-2.59.7-2.59,1.89s1.28,1.74,2.81,2.34l2.34,1c2.18.89,3.61,2.27,3.61,4.86,0,2.92-2.45,5.41-6.58,5.41a9.52,9.52,0,0,1-6.53-2.61l2.05-2.46a7.09,7.09,0,0,0,4.55,2c1.86,0,2.85-.8,2.85-2.06s-1.08-1.74-2.68-2.42l-2.39-1c-1.82-.75-3.63-2.2-3.63-4.81,0-2.93,2.56-5.18,6.19-5.18m0-1c-4.1,0-7.19,2.66-7.19,6.18,0,2.56,1.51,4.6,4.24,5.73l2.39,1,.17.07c1.62.68,1.9.9,1.9,1.42,0,.88-1,1.06-1.85,1.06a6,6,0,0,1-3.87-1.72l-.77-.71-.68.81-2,2.46-.6.72.68.64a10.48,10.48,0,0,0,7.22,2.89c5,0,7.58-3.22,7.58-6.41,0-2.73-1.39-4.62-4.23-5.79l-2.33-1-.19-.07c-1.4-.55-2-.85-2-1.35,0-.8,1.11-.89,1.59-.89a4.73,4.73,0,0,1,3.16,1.25l.78.64.63-.78,1.82-2.25.56-.7-.63-.63a8.9,8.9,0,0,0-6.32-2.6Z"/><path class="cls-12" d="M67.14,92.92c4.74,0,8,3.41,8,9.21s-3.27,9.36-8,9.36-8-3.55-8-9.36,3.26-9.21,8-9.21m0,15.48c2.66,0,4.36-2.44,4.36-6.27S69.8,96,67.14,96s-4.35,2.3-4.35,6.14,1.69,6.27,4.35,6.27m0-16.48c-5.47,0-9,4-9,10.21s3.62,10.36,9,10.36,9-4.16,9-10.36-3.54-10.21-9-10.21Zm0,15.48c-2.47,0-3.35-2.72-3.35-5.27C63.79,98.91,65,97,67.14,97s3.36,1.92,3.36,5.14c0,2.55-.89,5.27-3.36,5.27Z"/><path class="cls-12" d="M93.31,93.26v17.9H89.68l-5.17-9.58-1.82-3.85h-.12c.17,1.94.44,4.19.44,6.24v7.19H79.62V93.26h3.65l5.2,9.53,1.79,3.87h.12c-.19-1.86-.46-4.23-.46-6.27V93.26h3.39m1-1H88.92v8.13c0,.39,0,.78,0,1.18l-4.8-8.79-.28-.52H78.62v19.9H84V104c0-.41,0-.84,0-1.27l4.82,8.93.29.53h5.22V92.26Z"/><path class="cls-12" d="M106.39,92.92a7.51,7.51,0,0,1,5.54,2.3L110,97.49a4.71,4.71,0,0,0-3.51-1.5c-3,0-5.05,2.32-5.05,6.17s1.79,6.24,5.3,6.24a3.59,3.59,0,0,0,2.25-.68v-3.53h-3.17v-2.93h6.36v8.08a8.4,8.4,0,0,1-5.81,2.15c-4.88,0-8.58-3.24-8.58-9.21s3.82-9.36,8.58-9.36m0-1c-5.64,0-9.58,4.26-9.58,10.36s3.76,10.21,9.58,10.21a9.46,9.46,0,0,0,6.51-2.43l.3-.3v-9.5h-8.36v4.93H108v2a3.32,3.32,0,0,1-1.25.23c-2.85,0-4.3-1.76-4.3-5.24C102.46,99,104,97,106.51,97a3.72,3.72,0,0,1,2.82,1.22l.77.75.69-.83,1.91-2.27.58-.69-.63-.65a8.54,8.54,0,0,0-6.26-2.6Z"/><path class="cls-12" d="M127.05,93.26v17.9h-3.58V93.26h3.58m1-1h-5.58v19.9h5.58V92.26Z"/></svg>