<svg id="레이어_1" data-name="레이어 1" xmlns="http://www.w3.org/2000/svg" xmlns:xlink="http://www.w3.org/1999/xlink" viewBox="0 0 70 70"><defs><style>.cls-1,.cls-2,.cls-5,.cls-6{fill:none;}.cls-2,.cls-4{clip-path:url(#clip-path);}.cls-3{fill:#385aa5;}.cls-5,.cls-6{stroke:#fff;stroke-miterlimit:10;}.cls-5{stroke-width:0.5px;}.cls-7{fill:#eaa020;}</style><clipPath id="clip-path"><circle class="cls-1" cx="35" cy="35" r="30"/></clipPath></defs><circle class="cls-3" cx="35" cy="35" r="30"/><g class="cls-4"><path class="cls-5" d="M42,53.68l-.12.67a1.66,1.66,0,0,0,2.21,1.84l.64-.24a1.65,1.65,0,0,0,.48-2.82l-.52-.44A1.66,1.66,0,0,0,42,53.68Z"/><path class="cls-6" d="M33.82,30.78l-.11.67a1.65,1.65,0,0,0,2.2,1.84l.64-.24A1.65,1.65,0,0,0,37,30.23l-.52-.44A1.66,1.66,0,0,0,33.82,30.78Z"/><path class="cls-5" d="M22.49,6.77l-.12.67a1.66,1.66,0,0,0,2.21,1.83L25.21,9a1.66,1.66,0,0,0,.49-2.83l-.52-.44A1.66,1.66,0,0,0,22.49,6.77Z"/><path class="cls-6" d="M50.21,11.53l-.29.13A.77.77,0,0,0,49.78,13l.26.18a.76.76,0,0,0,1.21-.54l0-.31A.76.76,0,0,0,50.21,11.53Z"/><path class="cls-6" d="M7.89,35.25l-1.63,0a1,1,0,0,0-.92,1.55l.8,1.42a1,1,0,0,0,1.8,0l.83-1.4A1,1,0,0,0,7.89,35.25Z"/><path class="cls-7" d="M45.9,44.07l.59,1.25a.62.62,0,0,0,1.07.09l.79-1.13a.62.62,0,0,0-.46-1l-1.38-.12A.62.62,0,0,0,45.9,44.07Z"/><path class="cls-7" d="M18.38,44.65,19,45.9A.62.62,0,0,0,20,46l.78-1.14a.62.62,0,0,0-.46-1L19,43.77A.62.62,0,0,0,18.38,44.65Z"/><path class="cls-7" d="M59,48.05l1.2,1.48a1.1,1.1,0,0,0,1.88-.29l.68-1.79A1.1,1.1,0,0,0,61.57,46l-1.89.3A1.1,1.1,0,0,0,59,48.05Z"/><path class="cls-7" d="M35.42,12.25l.41,1.87a1.11,1.11,0,0,0,1.82.57l1.41-1.29a1.1,1.1,0,0,0-.42-1.86L36.82,11A1.09,1.09,0,0,0,35.42,12.25Z"/><path class="cls-7" d="M12.44,24.18l1.36,1.51a2.06,2.06,0,0,0,3.48-.75L17.9,23a2,2,0,0,0-2.38-2.63l-2,.42A2.06,2.06,0,0,0,12.44,24.18Z"/><path class="cls-7" d="M24.65,63.13,26,64.64a2,2,0,0,0,3.47-.75L30.12,62a2.06,2.06,0,0,0-2.39-2.64l-2,.43A2.05,2.05,0,0,0,24.65,63.13Z"/><path class="cls-7" d="M51.46,28.74l1.37,1.51a2,2,0,0,0,3.47-.75l.63-1.93a2.06,2.06,0,0,0-2.39-2.64l-2,.43A2.05,2.05,0,0,0,51.46,28.74Z"/></g></svg>