<svg id="레이어_1" data-name="레이어 1" xmlns="http://www.w3.org/2000/svg" xmlns:xlink="http://www.w3.org/1999/xlink" viewBox="0 0 70 70"><defs><style>.cls-1,.cls-7{fill:none;}.cls-2{clip-path:url(#clip-path);}.cls-3{fill:#2e5b2e;}.cls-4{clip-path:url(#clip-path-2);}.cls-5{fill:#baf1e4;}.cls-6{fill:#f4908a;}.cls-7{stroke:#fff;stroke-linecap:round;stroke-linejoin:round;stroke-width:2px;}.cls-8{fill:#48b9a8;}</style><clipPath id="clip-path"><circle class="cls-1" cx="-41.55" cy="35" r="30"/></clipPath><clipPath id="clip-path-2"><circle class="cls-1" cx="35" cy="35" r="30.16"/></clipPath></defs><g class="cls-2"><path class="cls-3" d="M-66.27.38S-66.15,42-30.81,28.91C-9.26,20.93-4.49,41.1-4.49,41.1L4.23,15-15.88-8.66Z"/></g><g class="cls-4"><circle class="cls-5" cx="35" cy="35" r="30.16"/><path class="cls-6" d="M56.31-11.57s-4,18.23-17.14,24.24S35.89,21.06,28.05,28.9,29.2,48.58,4.84,52.41l-9.42-23.7,12.4-25Z"/><path class="cls-7" d="M61.29-10.11S35-1.12,35,26C35,54.14.41,60.61.41,60.61"/><path class="cls-8" d="M64.15,9S57.64,25.62,46.58,32.54,38.93,48.83,43.3,50.41,65.42,53,76.6,33.27Z"/><path class="cls-7" d="M14,62.44s22.51,1.36,26-7.39,13.95-2.18,19-12.66S55,14.5,69.61,14.86"/></g></svg>