<svg id="레이어_1" data-name="레이어 1" xmlns="http://www.w3.org/2000/svg" viewBox="0 0 41.1 41.1"><defs><style>.cls-1{fill:none;stroke:#dbdbdb;stroke-linecap:round;stroke-linejoin:round;stroke-width:2px;}</style></defs><path class="cls-1" d="M4.62,5.46h0c-1,9.64,7.29,16.05,7.29,16.05l9.36,8.88,4.3-4.53.52-.55,4.3-4.53L21,11.9S14.2,4,4.62,5.46Z"/><polygon class="cls-1" points="30.84 24.72 25.11 30.75 22.5 29.1 29.17 22.07 30.84 24.72"/><circle class="cls-1" cx="13.62" cy="14" r="3.84"/><circle class="cls-1" cx="20.82" cy="20.83" r="2.56"/><path class="cls-1" d="M34.63,29.67c1.24,1.18,2.42,5.16,1.72,5.9s-4.74-.24-6-1.41a3.09,3.09,0,0,1,4.26-4.49Z"/><polyline class="cls-1" points="13.28 22.81 13.13 28.17 18.66 35.06 20.25 29.43"/><polyline class="cls-1" points="22.43 13.16 27.77 12.73 34.95 17.89 29.41 19.78"/></svg>