<svg id="레이어_1" data-name="레이어 1" xmlns="http://www.w3.org/2000/svg" viewBox="0 0 48.48 41.1"><defs><style>.cls-1{fill:none;stroke:#dbdbdb;stroke-linecap:round;stroke-linejoin:round;stroke-width:2px;}</style></defs><rect class="cls-1" x="2.44" y="17.22" width="43.59" height="10.92" rx="5.46"/><circle class="cls-1" cx="14.56" cy="22.87" r="2.48"/><circle class="cls-1" cx="24.24" cy="22.87" r="2.48"/><circle class="cls-1" cx="33.91" cy="22.87" r="2.48"/><path class="cls-1" d="M34.76,28.13v2.06A1.74,1.74,0,0,1,33,31.93H15.18a1.74,1.74,0,0,1-1.74-1.74V28.31"/><path class="cls-1" d="M13.5,17.13a9,9,0,0,1,8.9-8h3.4a9,9,0,0,1,8.9,7.91"/><line class="cls-1" x1="2.44" y1="22.68" x2="11.93" y2="22.68"/><line class="cls-1" x1="36.55" y1="22.68" x2="46.03" y2="22.68"/><line class="cls-1" x1="17.23" y1="22.68" x2="21.76" y2="22.68"/><line class="cls-1" x1="26.81" y1="22.68" x2="31.34" y2="22.68"/></svg>