<?xml version="1.0" encoding="utf-8"?>
<!-- Generator: Adobe Illustrator 24.2.0, SVG Export Plug-In . SVG Version: 6.00 Build 0)  -->
<svg version="1.1" id="레이어_1" xmlns="http://www.w3.org/2000/svg" xmlns:xlink="http://www.w3.org/1999/xlink" x="0px"
	 y="0px" viewBox="0 0 98.7 53.6" style="enable-background:new 0 0 98.7 53.6;" xml:space="preserve">
<style type="text/css">
	.st0{fill:#C5C5C5;}
	.st1{fill:#EEEEEE;stroke:#000000;stroke-miterlimit:10;}
	.st2{fill:none;stroke:#000000;stroke-miterlimit:10;}
	.st3{fill:#DC4574;}
	.st4{fill:#ECBE2E;}
	.st5{fill:#56B69F;}
	.st6{fill:none;stroke:#000000;stroke-linecap:round;stroke-miterlimit:10;}
	.st7{fill:#D5D5D5;}
	.st8{clip-path:url(#SVGID_2_);fill:#D5D5D5;}
	.st9{fill:#FFFFFF;stroke:#000000;stroke-width:0.5;stroke-miterlimit:10;}
</style>
<path class="st0" d="M8.5,5.4H93c1.7,0,3.1,1.4,3.1,3.1v39.9c0,1.7-1.4,3.1-3.1,3.1H8.5c-1.7,0-3.1-1.4-3.1-3.1V8.6
	C5.3,6.9,6.8,5.4,8.5,5.4z"/>
<path class="st1" d="M6.2,3.4h84c1.7,0,3.1,1.4,3.1,3.1v38.8c0,1.7-1.4,3.1-3.1,3.1h-84c-1.7,0-3.1-1.4-3.1-3.1V6.5
	C3.1,4.8,4.5,3.4,6.2,3.4z"/>
<line class="st2" x1="3.1" y1="10.2" x2="93.3" y2="10.2"/>
<circle class="st3" cx="7.6" cy="7.2" r="1.6"/>
<circle class="st4" cx="12" cy="7.2" r="1.6"/>
<circle class="st5" cx="16.5" cy="7.2" r="1.6"/>
<line class="st6" x1="34.5" y1="7.2" x2="61.5" y2="7.2"/>
<circle class="st7" cx="41.8" cy="37.9" r="4.6"/>
<g>
	<defs>
		<circle id="SVGID_1_" cx="41.8" cy="37.9" r="4.6"/>
	</defs>
	<use xlink:href="#SVGID_1_"  style="overflow:visible;fill:#C1C1C1;"/>
	<clipPath id="SVGID_2_">
		<use xlink:href="#SVGID_1_"  style="overflow:visible;"/>
	</clipPath>
	<circle class="st8" cx="42" cy="38.4" r="4.6"/>
</g>
<path d="M43.6,37.3L41.3,36c-0.3-0.1-0.6,0-0.8,0.2c0,0.1-0.1,0.2-0.1,0.3v2.6c0,0.3,0.2,0.6,0.6,0.6c0.1,0,0.2,0,0.3-0.1l2.3-1.3
	c0.3-0.2,0.3-0.5,0.2-0.8C43.7,37.4,43.7,37.4,43.6,37.3z"/>
<circle class="st7" cx="28.3" cy="37.9" r="4.6"/>
<path class="st9" d="M28.7,38.2l1,0.6c0.2,0.1,0.5,0,0.6-0.2c0-0.1,0.1-0.1,0.1-0.2v-1.1c0-0.2-0.2-0.4-0.4-0.4
	c-0.1,0-0.1,0-0.2,0.1l-1,0.6c-0.2,0.1-0.3,0.4-0.1,0.6C28.6,38.1,28.6,38.2,28.7,38.2z"/>
<path class="st9" d="M26.3,38.2l1,0.6c0.2,0.1,0.5,0,0.6-0.2c0-0.1,0.1-0.1,0.1-0.2v-1.1c0-0.2-0.2-0.4-0.4-0.4
	c-0.1,0-0.1,0-0.2,0.1l-1,0.6c-0.2,0.1-0.3,0.4-0.1,0.6C26.2,38.1,26.2,38.2,26.3,38.2z"/>
<circle class="st7" cx="68.1" cy="37.9" r="4.6"/>
<path class="st9" d="M67.7,37.6l-1-0.6c-0.2-0.1-0.4-0.1-0.6,0.1c0,0.1-0.1,0.1-0.1,0.2v1.2c0,0.2,0.2,0.4,0.4,0.4
	c0.1,0,0.2,0,0.2-0.1l1-0.6c0.2-0.1,0.3-0.4,0.1-0.6C67.8,37.7,67.8,37.7,67.7,37.6z"/>
<path class="st9" d="M70.1,37.6l-1-0.6c-0.2-0.1-0.4-0.1-0.6,0.1c0,0.1-0.1,0.1-0.1,0.2v1.2c0,0.2,0.2,0.4,0.4,0.4
	c0.1,0,0.2,0,0.2-0.1l1-0.6c0.2-0.1,0.3-0.4,0.1-0.6C70.2,37.7,70.2,37.7,70.1,37.6z"/>
<circle class="st7" cx="54.7" cy="37.9" r="4.6"/>
<path class="st9" d="M53.4,36.2h0.4c0.3,0,0.5,0.2,0.5,0.5v2.6c0,0.3-0.2,0.5-0.5,0.5h-0.4c-0.3,0-0.5-0.2-0.5-0.5v-2.6
	C52.8,36.5,53.1,36.2,53.4,36.2z"/>
<path class="st9" d="M55.6,36.2H56c0.3,0,0.5,0.2,0.5,0.5v2.6c0,0.3-0.2,0.5-0.5,0.5h-0.4c-0.3,0-0.5-0.2-0.5-0.5v-2.6
	C55,36.5,55.3,36.2,55.6,36.2z"/>
</svg>
