<svg id="레이어_1" data-name="레이어 1" xmlns="http://www.w3.org/2000/svg" viewBox="0 0 88.42 71.81"><defs><style>.cls-1{fill:#666;}</style></defs><path class="cls-1" d="M57.42,43.67s-4.34-2.62-6.66,0-3.33,7-5.79,3.38-3.77.14,0,6.23,15.29,5.61,16.41-1.67c.3-2,0-4.56-1.22-5.48A29.68,29.68,0,0,1,57.42,43.67Z"/><path class="cls-1" d="M69.75,24.22c2.1-1.93,7.56-7.07,10.35-4.87,4.45,3.5-6.49,18.45-10.81,23.15-1.33,1.46-4,3.67-7.8,1.17-1.78-1.17-6.77-4.85-2.88-9.36C62.06,30.3,67.17,26.59,69.75,24.22Z"/><path class="cls-1" d="M46.62,28.21c-4.06-11.27-26-18.72-34.9-2.44-8.53,15.62,5.27,26.38,12,29s9.74.4,8.72-7.31S39.72,41,39.72,41C49.66,42.21,48.43,33.25,46.62,28.21ZM17.08,41.8A2.86,2.86,0,1,1,19.93,39,2.85,2.85,0,0,1,17.08,41.8Zm2.85-9.23a2.86,2.86,0,1,1,2.86-2.86A2.86,2.86,0,0,1,19.93,32.57Zm9.84-5.28a2.86,2.86,0,1,1,2.86-2.85A2.86,2.86,0,0,1,29.77,27.29Zm9.14,5.06a2.86,2.86,0,1,1,2.85-2.85A2.86,2.86,0,0,1,38.91,32.35Z"/></svg>