<svg id="레이어_1" data-name="레이어 1" xmlns="http://www.w3.org/2000/svg" viewBox="0 0 37.01 36.38"><defs><style>.cls-1{fill:#b13636;}.cls-2{fill:#f8c421;}.cls-3{fill:#45ac87;}.cls-4{fill:#c5c5c5;}</style></defs><path class="cls-1" d="M13.31,13.32a4,4,0,1,0,4,4A4,4,0,0,0,13.31,13.32Z"/><path class="cls-2" d="M9.34,22.43a4,4,0,1,0,4,4A4,4,0,0,0,9.34,22.43Z"/><path class="cls-3" d="M22.2,8.16a4,4,0,1,0,4,4A4,4,0,0,0,22.2,8.16Z"/><path class="cls-4" d="M31.56,13.62a4,4,0,1,0,4,4A4,4,0,0,0,31.56,13.62Z"/></svg>