<svg id="레이어_1" data-name="레이어 1" xmlns="http://www.w3.org/2000/svg" viewBox="0 0 75.19 101.48"><defs><style>.cls-1{fill:#c5c5c5;}.cls-2{fill:#eee;}.cls-10,.cls-2,.cls-3,.cls-7,.cls-8,.cls-9{stroke:#000;}.cls-10,.cls-2,.cls-3,.cls-7,.cls-9{stroke-miterlimit:10;}.cls-3,.cls-7,.cls-8{fill:none;}.cls-4{fill:#dc4574;}.cls-5{fill:#ecbe2e;}.cls-6{fill:#56b69f;}.cls-7,.cls-8{stroke-linecap:round;}.cls-8{stroke-linejoin:round;}.cls-9{fill:#fff;}.cls-10,.cls-11{fill:#e78192;}.cls-10{stroke-width:0.5px;}</style></defs><rect class="cls-1" x="5.47" y="6.87" width="66.88" height="92.23" rx="3.13"/><rect class="cls-2" x="2.82" y="3.69" width="66.5" height="92.23" rx="3.13"/><line class="cls-3" x1="2.82" y1="11.42" x2="69.32" y2="11.42"/><circle class="cls-4" cx="7.3" cy="7.52" r="1.64"/><circle class="cls-5" cx="11.79" cy="7.52" r="1.64"/><circle class="cls-6" cx="16.27" cy="7.52" r="1.64"/><line class="cls-7" x1="22.43" y1="7.52" x2="49.46" y2="7.52"/><path class="cls-8" d="M60.25,81.58a2.12,2.12,0,0,0-2.17,1.12,2.1,2.1,0,0,0-1.87-1.14,2.13,2.13,0,0,0-2.14,2.13s-.32,2.4,3.22,4a1.8,1.8,0,0,0,1.54,0c1.15-.57,3.22-1.87,3.26-3.82A2.21,2.21,0,0,0,60.25,81.58Z"/><line class="cls-7" x1="21.42" y1="20.11" x2="41.06" y2="20.11"/><line class="cls-8" x1="59.98" y1="76.98" x2="11.79" y2="76.98"/><line class="cls-7" x1="21.42" y1="23.05" x2="33.67" y2="23.05"/><circle class="cls-9" cx="13.94" cy="21.61" r="4.14"/><path class="cls-10" d="M14.85,22a.81.81,0,0,0-1.62,0,.82.82,0,0,0,0,1.63.77.77,0,0,0,.4-.11.6.6,0,0,1,.58,0,.8.8,0,0,0,.4.11.82.82,0,0,0,.82-.81A.8.8,0,0,0,14.85,22Z"/><path class="cls-11" d="M15.81,21.75a.41.41,0,0,1-.19-.05.48.48,0,0,1-.09-.66.52.52,0,0,1,.43-.26.36.36,0,0,1,.2.06.47.47,0,0,1,.08.65A.52.52,0,0,1,15.81,21.75Z"/><path d="M16,20.91a.31.31,0,0,1,.13,0,.36.36,0,0,1,.05.49.42.42,0,0,1-.33.2.22.22,0,0,1-.13,0,.35.35,0,0,1,0-.48.4.4,0,0,1,.33-.2m0-.25a.68.68,0,0,0-.64.75.49.49,0,0,0,.23.39.5.5,0,0,0,.26.08.67.67,0,0,0,.54-.32.6.6,0,0,0-.13-.83.48.48,0,0,0-.26-.07Z"/><path class="cls-11" d="M12.06,21.76a.52.52,0,0,1-.43-.26.46.46,0,0,1,.09-.65.31.31,0,0,1,.19-.06.52.52,0,0,1,.43.26.56.56,0,0,1,.08.41.33.33,0,0,1-.17.24A.31.31,0,0,1,12.06,21.76Z"/><path d="M11.91,20.91a.41.41,0,0,1,.33.21.35.35,0,0,1-.05.48.31.31,0,0,1-.13,0,.4.4,0,0,1-.33-.2.35.35,0,0,1,0-.48.33.33,0,0,1,.13,0m0-.25a.5.5,0,0,0-.26.08.5.5,0,0,0-.23.39.7.7,0,0,0,.1.44.67.67,0,0,0,.54.31.48.48,0,0,0,.26-.07.6.6,0,0,0,.13-.83.67.67,0,0,0-.54-.32Z"/><path class="cls-11" d="M13.14,20.57a.49.49,0,0,1-.44-.44.46.46,0,0,1,.35-.56h0a.5.5,0,0,1,.49.44.47.47,0,0,1-.35.56Z"/><path d="M13.1,19.69a.4.4,0,0,1,.07.76h0a.36.36,0,0,1-.32-.34.35.35,0,0,1,.24-.42h0m0-.25H13a.51.51,0,0,0-.37.27.66.66,0,0,0,.48,1h.07a.58.58,0,0,0,.45-.7.62.62,0,0,0-.56-.55Z"/><path class="cls-11" d="M14.63,20.57a.46.46,0,0,1-.34-.56.48.48,0,0,1,.43-.45.43.43,0,0,1,.34.21.54.54,0,0,1,.06.36.47.47,0,0,1-.44.44Z"/><path d="M14.73,19.69h0a.35.35,0,0,1,.24.42.36.36,0,0,1-.32.34h0a.35.35,0,0,1-.24-.42.36.36,0,0,1,.32-.34m0-.25a.62.62,0,0,0-.57.55.59.59,0,0,0,.46.7h.06a.62.62,0,0,0,.57-.55.71.71,0,0,0-.08-.44.55.55,0,0,0-.38-.27h-.06Z"/></svg>