<?xml version="1.0" encoding="utf-8"?>
<!-- Generator: Adobe Illustrator 24.2.0, SVG Export Plug-In . SVG Version: 6.00 Build 0)  -->
<svg version="1.1" id="레이어_1" xmlns="http://www.w3.org/2000/svg" xmlns:xlink="http://www.w3.org/1999/xlink" x="0px"
	 y="0px" viewBox="0 0 8 7.4" style="enable-background:new 0 0 8 7.4;" xml:space="preserve">
<style type="text/css">
	.st0{fill:#F68EB9;}
	.st1{fill:#F6C3DA;}
</style>
<path class="st0" d="M5.8,1C5,0.9,4.3,1.3,4,1.9C3.6,1.1,2.5,0.7,1.6,1.2C1.1,1.5,0.7,2.1,0.7,2.7c0,0-0.3,1.9,2.6,3.3
	c0.5,0.2,1,0.2,1.5,0c1-0.5,2.5-1.5,2.6-3.1C7.3,2,6.7,1.1,5.8,1z"/>
<path class="st0" d="M5-6.4c-0.4,0-0.8,0.3-1,0.6C3.7-6.4,3-6.6,2.4-6.3C2-6.1,1.8-5.7,1.8-5.2c0,0-0.2,1.3,1.6,2.1
	c0.4,0.2,0.8,0.2,1.2,0c0.7-0.4,1.7-1.1,1.6-2.1C6.2-5.9,5.7-6.4,5-6.4C5-6.4,5-6.4,5-6.4z"/>
<path class="st1" d="M4.8-12.4c-0.3,0-0.7,0.2-0.8,0.5c-0.2-0.5-0.8-0.6-1.2-0.4c-0.3,0.2-0.5,0.5-0.5,0.8c0,0.5,0.3,1.1,0.8,1.3
	c0.6,0.4,1.4,0.4,1.9,0c0.5-0.3,0.8-0.8,0.8-1.4C5.7-12.1,5.3-12.4,4.8-12.4z"/>
</svg>
