<svg id="레이어_1" data-name="레이어 1" xmlns="http://www.w3.org/2000/svg" viewBox="0 0 7.96 20.59"><defs><style>.cls-1{fill:#e15084;}.cls-2{fill:#f68eb9;}.cls-3{fill:#f6c3da;}</style></defs><path class="cls-1" d="M5.76,14.17A1.75,1.75,0,0,0,4,15.09a1.75,1.75,0,0,0-3.3.81s-.25,1.94,2.56,3.25a1.69,1.69,0,0,0,1.47,0c1-.5,2.54-1.55,2.57-3.09A1.82,1.82,0,0,0,5.76,14.17Z"/><path class="cls-2" d="M5,6.74A1.18,1.18,0,0,0,4,7.38a1.18,1.18,0,0,0-2.23.55s-.17,1.26,1.62,2.14a1.31,1.31,0,0,0,1.19,0C5.24,9.69,6.25,9,6.21,7.93A1.2,1.2,0,0,0,5,6.74Z"/><path class="cls-3" d="M4.81.74a.94.94,0,0,0-.83.5.93.93,0,0,0-1.76.43A1.59,1.59,0,0,0,3,3a1.61,1.61,0,0,0,1.94,0,1.72,1.72,0,0,0,.84-1.39A.94.94,0,0,0,4.81.74Z"/></svg>