<svg id="레이어_1" data-name="레이어 1" xmlns="http://www.w3.org/2000/svg" viewBox="0 0 39.41 38.05"><defs><style>.cls-1,.cls-2{fill:none;stroke:#fff;stroke-linecap:round;}.cls-1{stroke-linejoin:round;}.cls-2{stroke-miterlimit:10;}.cls-3{fill:#fff;}</style></defs><line class="cls-1" x1="19.99" y1="5.75" x2="19.99" y2="3.79"/><line class="cls-1" x1="25.11" y1="7.12" x2="26.08" y2="5.43"/><line class="cls-1" x1="28.85" y1="10.87" x2="30.55" y2="9.89"/><line class="cls-2" x1="30.22" y1="15.98" x2="32.18" y2="15.98"/><line class="cls-1" x1="14.93" y1="6.95" x2="13.95" y2="5.26"/><line class="cls-1" x1="11.15" y1="10.53" x2="9.46" y2="9.55"/><line class="cls-1" x1="9.66" y1="15.51" x2="7.71" y2="15.51"/><path class="cls-3" d="M26.27,19.74h0a7.33,7.33,0,1,0-12.56,0h0a6,6,0,0,0,.66.93,12.12,12.12,0,0,1,1.86,4.22.86.86,0,0,0,.85.72H23a.87.87,0,0,0,.84-.62,19,19,0,0,1,2-4.69c.13-.18.26-.37.37-.56Zm-4.08-8.53a.49.49,0,0,1,.66-.25A5.34,5.34,0,0,1,26,15.6a.49.49,0,0,1-.47.52.45.45,0,0,1-.23,0,.48.48,0,0,1-.29-.43,4.35,4.35,0,0,0-2.55-3.78A.51.51,0,0,1,22.19,11.21Z"/><rect class="cls-3" x="16.52" y="26.15" width="7.29" height="1.52" rx="0.76"/><path class="cls-3" d="M20.16,31.6a3.07,3.07,0,0,0,2.76-1.72.93.93,0,0,0-.84-1.34H18.24a.93.93,0,0,0-.83,1.34A3.06,3.06,0,0,0,20.16,31.6Z"/></svg>