<svg id="레이어_1" data-name="레이어 1" xmlns="http://www.w3.org/2000/svg" viewBox="0 0 39.41 38.05"><defs><style>.cls-1{fill:#fff;}</style></defs><path class="cls-1" d="M27.39,6.55H11.53A1.89,1.89,0,0,0,9.65,8.44v21a1.88,1.88,0,0,0,1.88,1.88H27.39a1.89,1.89,0,0,0,1.88-1.88v-21A1.89,1.89,0,0,0,27.39,6.55Zm-1.9,20.71h-12a1.05,1.05,0,0,1,0-2.1h12a1.05,1.05,0,1,1,0,2.1Zm0-4.94h-12a1,1,0,1,1,0-2.09h12a1,1,0,1,1,0,2.09Zm-13-6a1,1,0,0,1,1.05-1h6.72a1,1,0,0,1,0,2.09H13.5A1,1,0,0,1,12.45,16.34Zm13-3.88h-12a1.05,1.05,0,0,1,0-2.1h12a1.05,1.05,0,0,1,0,2.1Z"/></svg>